<svg width="160" height="58" viewBox="0 0 160 58" fill="none" xmlns="http://www.w3.org/2000/svg">
<path fill-rule="evenodd" clip-rule="evenodd" d="M32.6626 27.3858C35.1117 27.3858 36.8706 26.8681 37.9393 25.8328C39.0081 24.7975 39.5869 23.0775 39.676 20.6729C39.7651 18.491 39.8096 16.1699 39.8096 13.7096C39.8096 11.2493 39.7651 8.90595 39.676 6.67946C39.5869 4.29712 39.0081 2.58829 37.9393 1.55298C36.8706 0.517658 35.1117 0 32.6626 0C30.2134 0 28.4378 0.517658 27.3357 1.55298C26.2336 2.58829 25.6603 4.29712 25.6157 6.67946C25.5712 8.86142 25.5489 11.1937 25.5489 13.6762L25.5493 14.2059C25.5522 16.4911 25.5744 18.6468 25.6157 20.6729C25.6603 23.0775 26.2336 24.7975 27.3357 25.8328C28.4378 26.8681 30.2134 27.3858 32.6626 27.3858ZM5.67754 27.0518V18.8361L4.74242 4.74242H5.61075L7.04683 19.1701L9.08407 27.0518H14.461L16.5317 19.1701L17.9344 4.74242H18.8361L17.8676 18.8361V27.0518H22.8772V0.333973H14.8618L12.6242 10.4534L12.2234 22.6434H11.3551L10.9209 10.4534L8.7167 0.333973H0.667946V27.0518H5.67754ZM30.6253 21.6081C30.6699 22.7436 31.3489 23.3113 32.6626 23.3113C33.9539 23.3113 34.6219 22.7436 34.6664 21.6081C34.7109 20.4726 34.7499 19.2257 34.7833 17.8676C34.8167 16.5094 34.8334 15.1123 34.8334 13.6762C34.8334 12.2401 34.8167 10.843 34.7833 9.48484C34.7499 8.12668 34.7109 6.87985 34.6664 5.74434C34.6219 4.63109 33.9539 4.07447 32.6626 4.07447C31.3489 4.07447 30.6699 4.63109 30.6253 5.74434C30.5808 6.87985 30.5474 8.12668 30.5251 9.48484C30.5029 10.843 30.4917 12.2401 30.4917 13.6762C30.4917 15.1123 30.5029 16.5094 30.5251 17.8676C30.5474 19.2257 30.5808 20.4726 30.6253 21.6081ZM49.261 27.0518C51.777 27.0518 53.5916 26.5175 54.7048 25.4488C55.818 24.38 56.3969 22.6211 56.4415 20.172C56.486 18.6134 56.5138 17.1384 56.525 15.7468C56.5361 14.3553 56.5361 12.9637 56.525 11.5722C56.5138 10.1806 56.486 8.7167 56.4415 7.18042C56.3969 4.73129 55.818 2.97793 54.7048 1.92035C53.5916 0.862764 51.777 0.333973 49.261 0.333973H42.4814V27.0518H49.261ZM47.491 22.6434H49.261C50.6637 22.6434 51.3873 22.02 51.4319 20.7731C51.5654 16.0307 51.5654 11.2994 51.4319 6.57927C51.3873 5.3547 50.6637 4.74242 49.261 4.74242H47.491V22.6434ZM70.7355 27.0518V22.6434H64.1896V15.6633H70.4015V11.2549H64.1896V4.74242H70.7355V0.333973H59.18V27.0518H70.7355ZM77.7489 18.0345V27.0518H72.7393V0.333973H79.185C81.6787 0.333973 83.4766 0.840499 84.5787 1.85355C85.6808 2.8666 86.2764 4.5309 86.3655 6.84645C86.3877 7.46987 86.4044 8.01536 86.4156 8.48292C86.4267 8.95048 86.4267 9.41804 86.4156 9.8856C86.4044 10.3532 86.3877 10.8987 86.3655 11.5221C86.3209 12.9693 86.076 14.1549 85.6307 15.0789C85.1854 16.0029 84.5063 16.7098 83.5935 17.1996L86.7328 27.0518H81.4227L78.8845 18.0345H77.7489ZM79.185 13.6261H77.7489V4.74242H79.185C80.5655 4.74242 81.2891 5.3547 81.3559 6.57927C81.4672 8.31593 81.4672 10.0526 81.3559 11.7893C81.2891 13.0138 80.5655 13.6261 79.185 13.6261ZM93.1451 16.7988L93.5793 27.0518H88.7367V0.333973H95.9839L97.9877 8.85029L99.8246 22.6434H100.693L99.7578 11.7893L99.357 0.333973H104.2V27.0518H96.585L94.5812 18.3017L93.2119 4.70902H92.2768L93.1451 16.7988ZM5.14319 57.666L5.71094 52.0887H9.58503L10.1528 57.666H15.296L11.5889 30.9482H3.7071L0 57.666H5.14319ZM6.1785 47.6802H9.11747L8.51632 41.7689L8.11555 35.3566H7.18042L6.77965 41.7689L6.1785 47.6802ZM22.3094 57.666V48.6488H23.4449L25.9831 57.666H31.2933L28.1539 47.8138C29.0668 47.324 29.7459 46.6171 30.1912 45.6931C30.6365 44.7691 30.8814 43.5835 30.9259 42.1363C30.9482 41.5129 30.9649 40.9674 30.976 40.4998C30.9871 40.0322 30.9871 39.5647 30.976 39.0971C30.9649 38.6296 30.9482 38.0841 30.9259 37.4607C30.8369 35.1451 30.2413 33.4808 29.1392 32.4678C28.037 31.4547 26.2392 30.9482 23.7455 30.9482H17.2998V57.666H22.3094ZM22.3094 44.2403H23.7455C25.1259 44.2403 25.8495 43.628 25.9163 42.4035C26.0276 40.6668 26.0276 38.9301 25.9163 37.1935C25.8495 35.9689 25.1259 35.3566 23.7455 35.3566H22.3094V44.2403ZM41.947 57.666V35.3566H46.2219V30.9482H32.6292V35.3566H36.9374V57.666H41.947ZM67.9301 56.447C66.8392 57.4823 65.1025 58 62.7202 58C61.0503 58 59.7088 57.7718 58.6958 57.3154C57.6827 56.8589 56.9424 56.1409 56.4749 55.1612C56.0073 54.1816 55.7401 52.8902 55.6733 51.2871C55.6511 50.352 55.6288 49.2889 55.6065 48.0977C55.5843 46.9065 55.5731 45.6708 55.5731 44.3906C55.5731 43.1104 55.5843 41.8802 55.6065 40.7002C55.6288 39.5202 55.6511 38.4848 55.6733 37.5942C55.7401 35.9021 56.0129 34.544 56.4916 33.5198C56.9702 32.4956 57.7161 31.7553 58.7292 31.2988C59.7422 30.8424 61.0726 30.6142 62.7202 30.6142C65.058 30.6142 66.7612 31.1319 67.8299 32.1672C68.8987 33.2025 69.5109 34.9113 69.6668 37.2937C69.7113 37.8058 69.7336 38.418 69.7336 39.1305C69.7336 39.843 69.7113 40.4553 69.6668 40.9674H64.6572C64.7017 40.344 64.724 39.5758 64.724 38.663C64.724 37.7501 64.7017 36.982 64.6572 36.3585C64.5904 35.2453 63.9447 34.6887 62.7202 34.6887C61.4288 34.6887 60.7497 35.2453 60.6829 36.3585C60.5939 37.9171 60.5326 39.6315 60.4992 41.5017C60.4658 43.372 60.4658 45.2367 60.4992 47.0958C60.5326 48.9549 60.5939 50.6637 60.6829 52.2223C60.7497 53.3578 61.4288 53.9255 62.7202 53.9255C63.3658 53.9255 63.8779 53.7808 64.2564 53.4914C64.6349 53.2019 64.8465 52.7789 64.891 52.2223C64.9132 51.9551 64.9299 51.6155 64.9411 51.2036C64.9522 50.7917 64.9522 50.3743 64.9411 49.9512C64.9299 49.5282 64.9132 49.1942 64.891 48.9493H63.0541V44.6077H69.767C69.8115 45.6319 69.8282 46.7451 69.8171 47.9474C69.8059 49.1497 69.7781 50.263 69.7336 51.2871C69.6223 53.6917 69.0211 55.4117 67.9301 56.447ZM76.3129 57.666L76.8806 52.0887H80.7547L81.3225 57.666H86.4656L82.7585 30.9482H74.8768L71.1697 57.666H76.3129ZM77.3482 47.6802H80.2871L79.686 41.7689L79.2852 35.3566H78.3501L77.9493 41.7689L77.3482 47.6802ZM100.058 57.666V53.2576H93.4791V30.9482H88.4695V57.666H100.058ZM113.651 53.2576V57.666H102.062V30.9482H107.072V53.2576H113.651ZM127.21 57.666V53.2576H120.664V46.2775H126.876V41.8691H120.664V35.3566H127.21V30.9482H115.655V57.666H127.21ZM134.224 48.6488V57.666H129.214V30.9482H135.66C138.154 30.9482 139.951 31.4547 141.054 32.4678C142.156 33.4808 142.751 35.1451 142.84 37.4607C142.863 38.0841 142.879 38.6296 142.89 39.0971C142.902 39.5647 142.902 40.0322 142.89 40.4998C142.879 40.9674 142.863 41.5129 142.84 42.1363C142.796 43.5835 142.551 44.7691 142.106 45.6931C141.66 46.6171 140.981 47.324 140.068 47.8138L143.208 57.666H137.898L135.359 48.6488H134.224ZM135.66 44.2403H134.224V35.3566H135.66C137.04 35.3566 137.764 35.9689 137.831 37.1935C137.942 38.9301 137.942 40.6668 137.831 42.4035C137.764 43.628 137.04 44.2403 135.66 44.2403ZM154.563 51.2871V57.666H149.553V51.2871L149.186 49.7843L144.544 30.9482H149.653L151.089 37.4273L151.59 45.2756H152.526L153.026 37.4273L154.463 30.9482H159.572L154.93 49.7509L154.563 51.2871Z" fill="white"/>
</svg>
