<svg width="20" height="17" viewBox="0 0 20 17" fill="none" xmlns="http://www.w3.org/2000/svg">
<path d="M20 2.17217C19.2642 2.49883 18.4733 2.71883 17.6433 2.818C18.4908 2.3105 19.1417 1.50633 19.4475 0.547999C18.655 1.018 17.7767 1.35967 16.8417 1.54383C16.0942 0.746333 15.0267 0.247999 13.8467 0.247999C11.1975 0.247999 9.25083 2.71967 9.84917 5.2855C6.44 5.11467 3.41667 3.48133 1.3925 0.998833C0.3175 2.843 0.835 5.2555 2.66167 6.47717C1.99 6.4555 1.35667 6.27133 0.804167 5.96383C0.759167 7.86467 2.12167 9.643 4.095 10.0388C3.5175 10.1955 2.885 10.2322 2.24167 10.1088C2.76333 11.7388 4.27833 12.9247 6.075 12.958C4.35 14.3105 2.17667 14.9147 0 14.658C1.81583 15.8222 3.97333 16.5013 6.29 16.5013C13.9083 16.5013 18.2125 10.0672 17.9525 4.29633C18.7542 3.71717 19.45 2.99467 20 2.17217Z" fill="white"/>
</svg>
