<?xml version="1.0" standalone="no"?>
<!DOCTYPE svg PUBLIC "-//W3C//DTD SVG 1.1//EN" "http://www.w3.org/Graphics/SVG/1.1/DTD/svg11.dtd" >
<svg xmlns="http://www.w3.org/2000/svg" xmlns:xlink="http://www.w3.org/1999/xlink" version="1.1">
<metadata>
Created by FontForge 20201107 at Thu Feb  6 15:02:31 2025
 By 
Copyright 2019 The Big Shoulders Project Authors (https://github.com/xotypeco/big_shoulders)
</metadata>
<defs>
<font id="BigShoulders-ExtraBold" horiz-adv-x="1018" >
  <font-face 
    font-family="Big Shoulders ExtraBold"
    font-weight="800"
    font-stretch="normal"
    units-per-em="2000"
    panose-1="0 0 0 0 0 0 0 0 0 0"
    ascent="1600"
    descent="-400"
    x-height="1200"
    cap-height="1600"
    bbox="-597 -444 2142 2428"
    underline-thickness="40"
    underline-position="-100"
    unicode-range="U+0020-FB02"
  />
<missing-glyph horiz-adv-x="1585" 
d="M86 0v1600h1413v-1600h-1413zM538 246h511l-256 328zM364 476l248 320l-248 321v-641zM1221 477v638l-247 -319zM793 1019l260 335h-520z" />
    <glyph glyph-name="fi" unicode="fi" horiz-adv-x="1155" 
d="M163 0v990h-138v210h138v80q-1 183 98 262t307 79q36 0 76.5 -4t78.5 -10v-203q-37 1 -76 1h-78q-61 0 -92.5 -26t-30.5 -77v-102h227v-210h-227v-990h-283zM777 1384v216h286v-216h-286zM781 0v1200h278v-1200h-278z" />
    <glyph glyph-name="fl" unicode="fl" horiz-adv-x="1176" 
d="M163 0v990h-138v210h138v80q-1 183 98 262t307 79q36 0 76.5 -4t78.5 -10v-203q-37 1 -76 1h-78q-61 0 -92.5 -26t-30.5 -77v-102h227v-210h-227v-990h-283zM802 0v1600h278v-1600h-278z" />
    <glyph glyph-name="f_f" unicode="ff" horiz-adv-x="1331" 
d="M163 0l-2 990h-136v210h136v80q0 183 99.5 262t307.5 79q36 0 76.5 -4t78.5 -10v-203q-37 1 -76 1h-78q-61 0 -93 -26t-32 -77v-102h342v80q0 183 99.5 262t307.5 79q35 0 76 -4t79 -10v-203q-38 1 -76.5 1h-77.5q-61 0 -93 -26t-32 -77v-102h214v-210h-214l2 -990h-283
l-2 990h-342l2 -990h-283z" />
    <glyph glyph-name="f_f_i" unicode="ffi" horiz-adv-x="1780" 
d="M163 0l-2 990h-136v210h136v80q0 183 99.5 262t307.5 79q36 0 76.5 -4t78.5 -10v-203q-37 1 -76 1h-78q-61 0 -93 -26t-32 -77v-102h342v80q0 183 99.5 262t307.5 79q35 0 76 -4t79 -10v-203q-38 1 -76.5 1h-77.5q-61 0 -93 -26t-32 -77v-102h214v-210h-214l2 -990h-283
l-2 990h-342l2 -990h-283zM1402 1384v216h286v-216h-286zM1406 0v1200h278v-1200h-278z" />
    <glyph glyph-name="f_f_l" unicode="ffl" horiz-adv-x="1801" 
d="M163 0l-2 990h-136v210h136v80q0 183 99.5 262t307.5 79q36 0 76.5 -4t78.5 -10v-203q-37 1 -76 1h-78q-61 0 -93 -26t-32 -77v-102h342v80q0 183 99.5 262t307.5 79q35 0 76 -4t79 -10v-203q-38 1 -76.5 1h-77.5q-61 0 -93 -26t-32 -77v-102h214v-210h-214l2 -990h-283
l-2 990h-342l2 -990h-283zM1427 0v1600h278v-1600h-278z" />
    <glyph glyph-name=".notdef" horiz-adv-x="1585" 
d="M86 0v1600h1413v-1600h-1413zM538 246h511l-256 328zM364 476l248 320l-248 321v-641zM1221 477v638l-247 -319zM793 1019l260 335h-520z" />
    <glyph glyph-name=".null" horiz-adv-x="0" 
 />
    <glyph glyph-name="nonmarkingreturn" horiz-adv-x="666" 
 />
    <glyph glyph-name="space" unicode=" " horiz-adv-x="436" 
 />
    <glyph glyph-name="exclam" unicode="!" horiz-adv-x="526" 
d="M141 421l-37 541v638h280v-638l-37 -541h-206zM63 0v265h362v-265h-362z" />
    <glyph glyph-name="quotedbl" unicode="&#x22;" horiz-adv-x="810" 
d="M133 1052l-51 276v272h239v-272l-51 -276h-137zM539 1052l-50 276v272h239v-272l-51 -276h-138z" />
    <glyph glyph-name="numbersign" unicode="#" horiz-adv-x="1464" 
d="M174 0l96 429h-210l54 227h205l71 305h-208l54 227h203l93 412h282l-93 -412h202l93 412h280l-93 -412h201l-51 -227h-199l-72 -305h199l-56 -227h-191l-97 -429h-279l96 429h-204l-96 -429h-280zM600 656h203l71 305h-204z" />
    <glyph glyph-name="dollar" unicode="$" horiz-adv-x="979" 
d="M367 -215v205q-148 23 -216 112t-76 262q-1 36 -1 76t2 80.5t6 76.5h263q-4 -76 -5 -148.5t5 -135.5q4 -51 41 -77.5t105 -26.5q64 0 99 26.5t41 77.5q4 36 5 72t-0.5 72t-4.5 71q-4 48 -35 84t-82 47l-172 40q-101 23 -160 72t-85 123.5t-29 174.5q-1 47 -1 87t1 82
q8 172 77 261.5t222 112.5v222h243v-222q148 -23 217 -112.5t76 -261.5q2 -46 0.5 -110t-4.5 -121h-267q3 72 4 142t-2 140q-2 50 -38.5 76.5t-105.5 26.5q-65 0 -101.5 -26.5t-41.5 -76.5q-6 -55 -6 -110t6 -110q4 -47 27 -81.5t74 -46.5l153 -32q110 -24 176.5 -74.5
t98 -127t35.5 -179.5q1 -26 1 -54t-1 -56t-2 -54q-7 -175 -77 -264t-222 -112v-203h-243z" />
    <glyph glyph-name="percent" unicode="%" horiz-adv-x="1344" 
d="M103 0l936 1600h194l-939 -1600h-191zM992 -11q-122 0 -192.5 59.5t-76.5 178.5q-2 49 -2.5 89.5t0 83t2.5 96.5q5 113 74 174t195 61q125 0 194.5 -61t75.5 -174q2 -31 2.5 -66t0.5 -70.5t-0.5 -69t-2.5 -62.5q-6 -114 -75.5 -176.5t-194.5 -62.5zM992 149
q29 0 44.5 12.5t18.5 30.5q3 26 5 69t2 92t-2 96t-5 80q-1 18 -16 30t-47 12q-30 0 -45.5 -12t-17.5 -30q-4 -47 -5.5 -113.5t0 -128t5.5 -94.5q3 -16 19 -30t44 -14zM339 867q-123 0 -193 59.5t-76 178.5q-2 49 -2.5 89.5t0 83t2.5 96.5q5 113 74 174t195 61
q125 0 194.5 -61t75.5 -174q2 -31 2.5 -66t0.5 -70.5t-0.5 -69t-2.5 -62.5q-6 -114 -75.5 -176.5t-194.5 -62.5zM339 1027q29 0 44.5 12.5t17.5 30.5q4 26 6 69t2 92t-2 96t-6 80q-1 18 -16 30t-46 12q-30 0 -45.5 -12t-17.5 -30q-5 -47 -6 -113t0 -128t6 -95
q3 -16 18.5 -30t44.5 -14z" />
    <glyph glyph-name="ampersand" unicode="&#x26;" horiz-adv-x="1237" 
d="M517 -19q-223 0 -323 89t-108 293q-2 44 -2 72.5t1.5 57.5t4.5 73q6 122 56 195.5t119 127.5q-42 86 -69.5 170t-37.5 164q-22 177 67.5 286.5t294.5 109.5q198 0 285 -99.5t68 -282.5q-11 -100 -61 -190.5t-140 -172.5q-16 -14 -33.5 -28t-37.5 -29q32 -48 67 -98
t71 -97q-1 40 -5.5 87t-13.5 102h227q7 -58 12 -135.5t6 -158.5t-4 -150q57 -62 106.5 -113.5t85.5 -88.5l-181 -172q-29 30 -57.5 60t-58.5 61q-34 -46 -81.5 -75.5t-111.5 -43.5t-146 -14zM524 201q43 0 74 10.5t51 33.5t31 60q-74 86 -144.5 174.5t-131.5 179.5
q-18 -20 -29 -46t-14 -59q-4 -35 -5.5 -60.5t-0.5 -56.5t4 -81q4 -75 43 -115t122 -40zM479 1023q48 34 80 69.5t49 71t21 71.5q17 91 -6 146t-103 55q-64 0 -90.5 -50t-22.5 -120q3 -54 22 -116t50 -127z" />
    <glyph glyph-name="quotesingle" unicode="'" horiz-adv-x="415" 
d="M136 1052l-54 276v272h251v-272l-54 -276h-143z" />
    <glyph glyph-name="parenleft" unicode="(" horiz-adv-x="606" 
d="M343 -400q-86 112 -149.5 270t-98.5 346.5t-35 392.5q0 180 30.5 365t93 348.5t159.5 277.5h203q-96 -226 -146.5 -484.5t-50.5 -515.5q0 -170 22.5 -343.5t66.5 -340.5t108 -316h-203z" />
    <glyph glyph-name="parenright" unicode=")" horiz-adv-x="572" 
d="M229 -400h-203q64 149 108 316t66.5 340.5t22.5 343.5q0 257 -50.5 515.5t-146.5 484.5h203q97 -114 160 -277.5t93 -348.5t30 -365q0 -204 -34.5 -392.5t-98.5 -346.5t-150 -270z" />
    <glyph glyph-name="asterisk" unicode="*" horiz-adv-x="547" 
d="M41 1333l140 59l-140 59l58 98l127 -80l-12 139h119l-13 -137l128 78l58 -98l-139 -59l139 -59l-58 -98l-128 80l13 -139h-119l12 137l-127 -78z" />
    <glyph glyph-name="plus" unicode="+" horiz-adv-x="1082" 
d="M435 282v335h-334v210h334v335h213v-335h333v-210h-333v-335h-213z" />
    <glyph glyph-name="comma" unicode="," horiz-adv-x="522" 
d="M119 -274l131 274h-171v271h364v-246l-168 -299h-156z" />
    <glyph glyph-name="hyphen" unicode="-" horiz-adv-x="896" 
d="M60 593v245h776v-245h-776z" />
    <glyph glyph-name="period" unicode="." horiz-adv-x="488" 
d="M63 0v265h362v-265h-362z" />
    <glyph glyph-name="slash" unicode="/" horiz-adv-x="836" 
d="M60 -400l434 2000h282l-434 -2000h-282z" />
    <glyph glyph-name="zero" unicode="0" horiz-adv-x="1016" 
d="M508 -19q-199 0 -307.5 99.5t-112.5 283.5q-4 154 -5 301.5t0.5 290t4.5 281.5q4 186 113 284t307 98q196 0 304.5 -98t113.5 -284q4 -117 6 -229t2 -219.5t-2 -213t-6 -211.5q-6 -191 -116.5 -287t-301.5 -96zM508 208q129 0 135 100q7 171 9.5 328.5t0 317.5t-9.5 336
q-3 102 -135 102q-134 0 -137 -103q-5 -134 -7 -253.5t-2 -234t2 -234t7 -254.5q3 -105 137 -105z" />
    <glyph glyph-name="one" unicode="1" horiz-adv-x="560" 
d="M170 0v1351h-115l-8 100l181 149h230v-1600h-288z" />
    <glyph glyph-name="two" unicode="2" horiz-adv-x="977" 
d="M77 0q-1 38 -1.5 68.5t-1 58t-1 56t0 63.5t1.5 80q3 106 37.5 192.5t102 155.5t167.5 123l135 73q70 37 89.5 90t22.5 98q3 53 4 113.5t-3 115.5q-3 50 -37.5 77.5t-104.5 27.5q-67 0 -97.5 -27.5t-32.5 -71.5q-3 -78 -3.5 -143.5t3.5 -143.5h-280q-1 42 -2.5 83t-1.5 78
t1 70q8 205 105 293.5t309 88.5q149 0 240.5 -38.5t134.5 -122.5t49 -221q1 -24 1.5 -47t0.5 -44.5t-0.5 -43t-1.5 -43.5q-5 -108 -41.5 -187.5t-99.5 -138t-147 -103.5l-155 -84q-41 -23 -65 -61.5t-34 -81t-10 -77.5v-81h531v-245h-815z" />
    <glyph glyph-name="three" unicode="3" horiz-adv-x="984" 
d="M494 -19q-227 0 -329.5 89t-108.5 295q-1 37 -1.5 59.5t0 46t1.5 62.5h283v-205q0 -58 38.5 -89t109.5 -31q72 0 108 31t37 88q3 71 3 128.5t-3 109.5q-3 57 -35 98.5t-124 39.5l-192 -1l-7 234l307 419h-506v245h830l-3 -237l-319 -419q163 -12 243.5 -101.5
t89.5 -284.5q1 -24 1.5 -48t0.5 -47v-47t-2 -51q-9 -206 -107 -295t-315 -89z" />
    <glyph glyph-name="four" unicode="4" horiz-adv-x="1026" 
d="M538 0v413h-494v232l385 955h374v-943h178v-244h-178v-413h-265zM315 657h223l37 376l33 322h-57l-103 -322z" />
    <glyph glyph-name="five" unicode="5" horiz-adv-x="1014" 
d="M520 -19q-229 0 -330.5 89t-107.5 295q-1 62 -0.5 98t2.5 70h283q-3 -27 -4.5 -68t-1 -79.5t2.5 -56.5q5 -60 43 -90.5t105 -30.5q72 0 107.5 31t39.5 90q9 107 10.5 190t-6.5 159q-6 57 -38.5 84.5t-98.5 27.5q-45 0 -79 -13t-53 -37t-20 -56h-267v916h812v-245h-530
v-446h44q27 46 86.5 79t138.5 33q139 0 208.5 -89t77.5 -242q4 -59 5 -115.5t-1 -109.5t-6 -100q-12 -137 -56.5 -222t-133 -123.5t-232.5 -38.5z" />
    <glyph glyph-name="six" unicode="6" horiz-adv-x="1002" 
d="M504 -19q-222 0 -319 89t-99 295q-1 163 -2 303.5t-1 253.5t1 192.5t2 122.5q8 195 116 288.5t300 93.5q201 0 306.5 -98.5t111.5 -270.5q1 -23 1.5 -43t0 -43.5t-1.5 -57.5h-282q3 34 3.5 58t-0.5 52t-3 72q-1 48 -33 76t-101 28q-66 0 -99 -26.5t-35 -77.5
q-3 -84 -5.5 -185t-2.5 -213h51q28 48 89 80t140 32q163 0 225 -76.5t65 -254.5q1 -67 1.5 -112t0 -89t-3.5 -105q-11 -207 -107.5 -295.5t-318.5 -88.5zM506 208q69 0 104 27t36 78q2 56 3 101t2 86t1 81t-2 83q-1 53 -38.5 80t-97.5 27q-67 0 -108.5 -27t-43.5 -77
q0 -85 1.5 -172.5t4.5 -177.5q2 -54 37 -81.5t101 -27.5z" />
    <glyph glyph-name="seven" unicode="7" horiz-adv-x="934" 
d="M145 0l467 1355h-583v245h865v-252l-454 -1348h-295z" />
    <glyph glyph-name="eight" unicode="8" horiz-adv-x="1002" 
d="M501 -19q-224 0 -318.5 92.5t-103.5 291.5q-1 31 -1 53.5t1 47t4 62.5q10 107 52 169t126 96v41q-59 21 -102.5 68t-57.5 119q-5 31 -8.5 69.5t-4.5 76.5t0 68q11 203 103.5 293.5t309.5 90.5q211 0 307 -89t105 -295q2 -30 0.5 -69t-5 -78t-7.5 -66
q-14 -73 -57.5 -120.5t-103.5 -67.5v-42q77 -35 121 -97.5t58 -164.5q6 -51 6 -88.5t-3 -76.5q-9 -205 -105.5 -294.5t-315.5 -89.5zM501 208q71 0 104.5 30.5t33.5 89.5v77v76v77q0 59 -33.5 90t-104.5 31t-104.5 -31t-33.5 -90q-1 -58 -1 -115v-114q1 -59 34.5 -90
t104.5 -31zM501 944q69 0 103.5 31t34.5 91v103v103q0 59 -33.5 89.5t-104.5 30.5q-69 0 -103.5 -30.5t-34.5 -89.5q-1 -27 -1 -52.5v-51v-51t1 -52.5q0 -59 34.5 -90t103.5 -31z" />
    <glyph glyph-name="nine" unicode="9" horiz-adv-x="1002" 
d="M508 -19q-218 0 -315 88.5t-97 293.5v40t0.5 45t1.5 45h282q-1 -47 -2 -88t2 -93q3 -48 30 -76t95 -28q60 0 92 25.5t35 81.5q5 80 7 179.5t3 213.5h-44q-24 -47 -78 -79.5t-135 -32.5q-83 0 -155 35t-117 112t-45 201v102.5v81t0.5 62.5t1.5 45q8 206 107.5 295
t317.5 89q223 0 319 -89t100 -295q4 -180 5 -322t-0.5 -273t-4.5 -277q-4 -205 -101 -293.5t-305 -88.5zM497 827q64 0 100.5 23t42.5 65q-1 92 -3 186.5t-7 188.5q-1 50 -36.5 76t-100.5 26q-67 0 -103 -26.5t-37 -79.5q0 -12 -0.5 -58t-1 -104.5t-1 -112t0.5 -80.5
q2 -51 42.5 -77.5t103.5 -26.5z" />
    <glyph glyph-name="colon" unicode=":" horiz-adv-x="520" 
d="M79 600v265h362v-265h-362zM79 0v265h362v-265h-362z" />
    <glyph glyph-name="semicolon" unicode=";" horiz-adv-x="539" 
d="M135 -274l131 274h-171v271h365v-246l-169 -299h-156zM79 601v265h362v-265h-362z" />
    <glyph glyph-name="less" unicode="&#x3c;" horiz-adv-x="1184" 
d="M1066 424l-948 137v332l948 141v-227l-447 -46l-293 -6v-54l293 -6l447 -44v-227z" />
    <glyph glyph-name="equal" unicode="=" horiz-adv-x="1046" 
d="M84 802v209h878v-209h-878zM84 436v210h878v-210h-878z" />
    <glyph glyph-name="greater" unicode="&#x3e;" horiz-adv-x="1117" 
d="M84 424v227l447 44l293 6v54l-293 6l-447 46v227l949 -141v-332z" />
    <glyph glyph-name="question" unicode="?" horiz-adv-x="991" 
d="M365 448l-4 79q-6 81 3.5 142.5t48.5 114t122 105.5l38 23q24 15 35.5 42t15 58.5t3.5 61.5v199q0 49 -35.5 75t-100.5 26q-61 0 -94.5 -26.5t-36.5 -74.5q-4 -60 -4.5 -124.5t2.5 -115.5h-302q-2 44 -3 71.5t-0.5 52t1.5 60.5q13 218 112 312t323 94q240 0 344.5 -95
t104.5 -311v-41.5v-49.5v-52q0 -114 -21.5 -182t-54 -105t-67.5 -55t-63 -33l-52 -26q-45 -23 -54 -63t-16 -83l-8 -79h-237zM302 0v265h363v-265h-363z" />
    <glyph glyph-name="at" unicode="@" horiz-adv-x="1426" 
d="M711 -311q-219 0 -355.5 45t-200.5 143t-67 256q-2 107 -3.5 208.5t-1.5 208t1 227.5t4 267q3 166 67 268t200.5 149.5t355.5 47.5q216 0 352 -47t202 -150t72 -270q2 -88 3.5 -169.5t1.5 -159t-1.5 -153t-4.5 -151.5q-3 -104 -77.5 -156.5t-202.5 -52.5
q-129 0 -188 29.5t-78 68.5h-44q-27 -45 -57 -72.5t-92 -27.5q-82 0 -124.5 52t-52.5 174q-5 59 -6 125t1 129.5t5 114.5q8 124 52 177.5t128 53.5q57 0 87 -25t58 -77h29v88h217l1 -596q0 -35 17 -54.5t47 -19.5q27 0 42.5 19.5t18.5 56.5q3 57 5.5 130.5t3 157.5t-1 173.5
t-5.5 177.5q-7 143 -98 207t-310 64q-213 0 -305 -62.5t-96 -208.5q-4 -129 -6 -247t-2 -231t2 -225t6 -232q4 -134 95.5 -191t305.5 -57q211 0 303.5 52t93.5 187v16v15h216v-14.5v-15.5q-1 -157 -63 -249.5t-196.5 -133t-353.5 -40.5zM689 351q19 0 46 15t39 36v413
q-10 25 -39.5 39.5t-45.5 14.5q-28 0 -38.5 -15t-12.5 -41q-5 -76 -6 -137.5t0.5 -124t5.5 -140.5q2 -33 15 -46.5t36 -13.5z" />
    <glyph glyph-name="A" unicode="A" horiz-adv-x="985" 
d="M38 0l214 1600h481l215 -1600h-286l-35 352h-269l-34 -352h-286zM384 598h217l-35 351l-27 405h-92l-27 -405z" />
    <glyph glyph-name="B" unicode="B" horiz-adv-x="975" 
d="M102 0v1600h391q214 0 312 -86t98 -285v-72t-2 -65q-6 -106 -46.5 -168t-127.5 -90v-46q90 -28 131.5 -91t45.5 -172q2 -42 2 -76.5t-2 -77.5q-9 -198 -103 -284.5t-308 -86.5h-391zM380 246h113q66 0 99 32.5t33 96.5q1 36 1 68.5t-1 68.5q0 97 -30.5 137.5t-100.5 40.5
h-114v-444zM380 936h115q64 0 96.5 42t33.5 121v72.5v71.5q-1 55 -34 83t-98 28h-113v-418z" />
    <glyph glyph-name="C" unicode="C" horiz-adv-x="999" 
d="M508 -19q-221 0 -318.5 88.5t-102.5 294.5q-2 115 -3 223t-1 213.5t1 214t3 225.5q3 196 104 287.5t317 91.5q211 0 310.5 -93t105.5 -288q1 -36 1 -76t-1 -80t-2 -75h-278q1 39 2 81.5t1 84.5t-2 82q-1 73 -33.5 104.5t-103.5 31.5q-73 0 -106.5 -31.5t-35.5 -104.5
q-3 -117 -5 -230.5t-2 -225t2 -223.5t5 -229q2 -75 35.5 -107t106.5 -32q76 0 109.5 32t35.5 107q2 43 2.5 81t0 79t-2.5 90h279q2 -56 2 -118.5t-2 -114.5q-6 -206 -104 -294.5t-320 -88.5z" />
    <glyph glyph-name="D" unicode="D" horiz-adv-x="1005" 
d="M102 0v1600h406q215 0 310.5 -90.5t99.5 -297.5q3 -147 4 -279.5t0 -264t-4 -278.5q-4 -208 -99.5 -299t-309.5 -91h-407zM380 246h129q65 0 97.5 28.5t33.5 83.5q3 114 4.5 224t1.5 219t-1.5 219.5t-4.5 223.5q-1 54 -34 82t-98 28h-128v-1108z" />
    <glyph glyph-name="E" unicode="E" horiz-adv-x="856" 
d="M102 0v1600h699v-246h-421v-419h401v-245h-401v-444h421v-246h-699z" />
    <glyph glyph-name="F" unicode="F" horiz-adv-x="842" 
d="M102 0v1600h700v-246h-422v-419h402v-245h-402v-690h-278z" />
    <glyph glyph-name="G" unicode="G" horiz-adv-x="1008" 
d="M510 -19q-146 0 -237 38.5t-135 123t-49 221.5q-3 92 -4.5 203.5t-1.5 228.5t1.5 227t4.5 199q6 142 50 229.5t135 127.5t236 40q212 0 308 -88t108 -293q3 -51 3 -115t-3 -116h-279q3 68 3 132.5t-3 132.5q-4 65 -35 92.5t-102 27.5q-74 0 -106 -27.5t-37 -92.5
q-5 -112 -8 -231t-3 -240t3 -240t8 -231q5 -66 37 -93.5t106 -27.5q77 0 111 27.5t40 93.5q2 27 2.5 62t0 69.5t-2.5 61.5h-117v243h388q4 -96 3.5 -203t-5.5 -199q-9 -206 -106.5 -294.5t-313.5 -88.5z" />
    <glyph glyph-name="H" unicode="H" horiz-adv-x="1015" 
d="M102 0v1600h278v-665h255v665h278v-1600h-278v690h-255v-690h-278z" />
    <glyph glyph-name="I" unicode="I" horiz-adv-x="482" 
d="M102 0v1600h278v-1600h-278z" />
    <glyph glyph-name="J" unicode="J" horiz-adv-x="933" 
d="M440 -19q-138 0 -224 38.5t-127.5 123t-45.5 221.5q-1 53 -1 116t1 117h262q-1 -39 -1.5 -86.5t0 -94.5t1.5 -86q2 -66 33.5 -93.5t101.5 -27.5t100.5 27.5t30.5 93.5v1270h278v-1236q0 -206 -94.5 -294.5t-314.5 -88.5z" />
    <glyph glyph-name="K" unicode="K" horiz-adv-x="1006" 
d="M102 0v1600h296l-3 -386l-32 -375h69l103 380l139 381h304l-261 -667l275 -933h-282l-185 646l-139 -284v-362h-284z" />
    <glyph glyph-name="L" unicode="L" horiz-adv-x="795" 
d="M102 0v1600h278v-1354h390v-246h-668z" />
    <glyph glyph-name="M" unicode="M" horiz-adv-x="1618" 
d="M102 0v1600h508l126 -613l32 -740h84l30 740l128 613h506v-1600h-287v493l52 861h-90l-87 -884l-125 -469h-349l-115 469l-88 884h-89l51 -861v-493h-287z" />
    <glyph glyph-name="N" unicode="N" horiz-adv-x="1193" 
d="M102 0v1600h464l116 -509l113 -845h89l-51 686l-22 668h280v-1600h-486l-117 531l-86 825h-93l47 -744l24 -612h-278z" />
    <glyph glyph-name="O" unicode="O" 
d="M508 -19q-221 0 -318.5 89t-102.5 295q-2 118 -3 225t-1 211t1 211.5t3 224.5q5 205 102.5 293.5t318.5 88.5q217 0 314.5 -88.5t103.5 -293.5q5 -118 7 -225t2 -211.5t-2 -211.5t-7 -224q-6 -206 -103.5 -295t-314.5 -89zM508 209q74 0 106.5 32t33.5 107q5 117 7.5 229
t2.5 223.5t-2.5 224.5t-7.5 228q-1 75 -33.5 107t-106.5 32t-107 -32t-35 -107q-5 -115 -7.5 -227.5t-2.5 -224t2.5 -224t7.5 -229.5q2 -75 35 -107t107 -32z" />
    <glyph glyph-name="P" unicode="P" horiz-adv-x="973" 
d="M102 0v1600h404q213 0 307.5 -86t100.5 -284q4 -92 4 -169t-4 -165q-6 -198 -101 -284t-307 -86h-126v-526h-278zM380 771h126q64 0 95.5 28.5t34.5 81.5q3 54 4 117t0 127t-4 119q-3 54 -34.5 82t-95.5 28h-126v-583z" />
    <glyph glyph-name="Q" unicode="Q" 
d="M863 -308q-183 -14 -275.5 54t-113.5 235q-202 7 -292 96.5t-95 287.5q-2 118 -3 225t-1 211t1 211.5t3 224.5q5 205 102.5 293.5t318.5 88.5q217 0 314.5 -88.5t103.5 -293.5q5 -118 7 -225t2 -211.5t-2 -211.5t-7 -224q-3 -139 -48 -223t-139 -123q-3 -60 28.5 -86
t95.5 -18v-223zM508 209q74 0 106.5 32t33.5 107q5 117 7.5 229t2.5 223.5t-2.5 224.5t-7.5 228q-1 75 -33.5 107t-106.5 32t-107 -32t-35 -107q-5 -115 -7.5 -227.5t-2.5 -224t2.5 -224t7.5 -229.5q2 -75 35 -107t107 -32z" />
    <glyph glyph-name="R" unicode="R" horiz-adv-x="979" 
d="M102 0v1600h388q213 0 307.5 -86t101.5 -284q2 -62 3 -109.5t0 -94t-3 -105.5q-4 -125 -42 -204t-119 -120l184 -597h-295l-151 551h-96v-551h-278zM380 796h110q65 0 96.5 28.5t34.5 82.5q3 55 4 111.5t0 113.5t-4 112q-3 54 -34.5 82t-96.5 28h-110v-558z" />
    <glyph glyph-name="S" unicode="S" horiz-adv-x="979" 
d="M491 -19q-215 0 -311 88.5t-105 294.5q-1 36 -1 76t2 80.5t6 76.5h263q-4 -76 -5 -148.5t5 -135.5q4 -51 41 -77.5t105 -26.5q64 0 99 26.5t41 77.5q4 36 5 72t-0.5 72t-4.5 71q-4 48 -35 84t-82 47l-172 40q-101 23 -160 72t-85 123.5t-29 174.5q-1 47 -1 87t1 82
q6 136 50.5 220t135.5 122.5t237 38.5q212 0 308 -88t104 -293q2 -46 0.5 -110t-4.5 -121h-267q3 72 4 142t-2 140q-2 50 -38.5 76.5t-105.5 26.5q-65 0 -101.5 -26.5t-41.5 -76.5q-6 -55 -6 -110t6 -110q4 -47 27 -81.5t74 -46.5l153 -32q110 -24 176.5 -74.5t98 -127
t35.5 -179.5q1 -26 1 -54t-1 -56t-2 -54q-9 -206 -105.5 -294.5t-312.5 -88.5z" />
    <glyph glyph-name="T" unicode="T" horiz-adv-x="841" 
d="M281 0v1354h-270v246h819v-246h-270v-1354h-279z" />
    <glyph glyph-name="U" unicode="U" horiz-adv-x="1014" 
d="M508 -19q-223 0 -320 88.5t-100 293.5q-4 308 -4 619t4 618h278q-3 -205 -3.5 -420t0.5 -430.5t3 -419.5q0 -59 36 -90t106 -31t105 31t35 90q2 204 3.5 419.5t1 430.5t-4.5 420h278q5 -307 5 -618t-5 -619q-2 -205 -99 -293.5t-319 -88.5z" />
    <glyph glyph-name="V" unicode="V" horiz-adv-x="1005" 
d="M257 0l-224 1600h288l115 -815l21 -539h91l21 539l115 815h288l-224 -1600h-491z" />
    <glyph glyph-name="W" unicode="W" horiz-adv-x="1657" 
d="M190 0l-146 1600h280l50 -712l32 -642h89l3 642l130 702h401l130 -702l3 -642h89l32 642l50 712h280l-146 -1600h-496l-71 458l-28 896h-87l-29 -896l-70 -458h-496z" />
    <glyph glyph-name="X" unicode="X" horiz-adv-x="928" 
d="M19 0l240 830l-234 770h273l100 -375l30 -284h76l30 284l96 375h273l-223 -780l230 -820h-273l-103 394l-30 302h-76l-30 -302l-107 -394h-272z" />
    <glyph glyph-name="Y" unicode="Y" horiz-adv-x="897" 
d="M309 0v508h-32l-259 1092h284l84 -398l34 -468h57l34 468l84 398h284l-260 -1092h-31v-508h-279z" />
    <glyph glyph-name="Z" unicode="Z" horiz-adv-x="830" 
d="M31 0v232l469 1122h-445v246h744v-238l-486 -1116h455v-246h-737z" />
    <glyph glyph-name="bracketleft" unicode="[" horiz-adv-x="722" 
d="M84 -400v2000h578v-132h-293v-1736h293v-132h-578z" />
    <glyph glyph-name="backslash" unicode="\" horiz-adv-x="795" 
d="M735 -400h-282l-434 2000h282z" />
    <glyph glyph-name="bracketright" unicode="]" horiz-adv-x="722" 
d="M640 -400h-579v132h293v1736h-293v132h579v-2000z" />
    <glyph glyph-name="asciicircum" unicode="^" horiz-adv-x="883" 
d="M84 870l265 508h185l266 -508h-185l-173 333l-174 -333h-184z" />
    <glyph glyph-name="underscore" unicode="_" horiz-adv-x="1349" 
d="M60 -120v40h1229v-40h-1229z" />
    <glyph glyph-name="grave" unicode="`" horiz-adv-x="563" 
d="M259 1280l-181 271h198l172 -271h-189z" />
    <glyph glyph-name="a" unicode="a" horiz-adv-x="966" 
d="M339 -15q-136 0 -202 63.5t-79 217.5q-1 18 -1 45t1 43q6 81 37.5 138.5t98 101t177.5 82.5q57 21 110 35.5t120 30.5v162q0 55 -29 81t-92 26q-55 0 -82.5 -22t-30.5 -72q-1 -14 -1.5 -52t0 -75t1.5 -45h-270q-1 16 -2 58t0 82q5 116 43 190t122 109t229 35
q147 0 231 -38.5t119 -122t35 -217.5l-2 -841h-277v127h-42q-35 -73 -81 -107.5t-133 -34.5zM453 184q46 0 84.5 23.5t59.5 63.5l2 289q-40 -9 -81 -21t-78 -28q-63 -26 -81 -67.5t-21 -89.5q-1 -25 -1 -36t1 -32q5 -49 34 -75.5t81 -26.5z" />
    <glyph glyph-name="b" unicode="b" horiz-adv-x="1011" 
d="M648 -19q-98 0 -146 37.5t-92 108.5h-30v-127h-284v1600h284v-527h49q43 71 92 108.5t146 37.5q127 0 193 -75t75 -250q2 -55 3 -133.5t1 -163t-1 -161.5t-3 -130q-9 -174 -84 -249.5t-203 -75.5zM546 184q56 0 79 24t26 74q4 64 6 144t2.5 166.5t-1.5 169t-5 153.5
q-3 49 -26.5 75t-80.5 26q-48 0 -97 -24.5t-69 -66.5v-650q20 -43 69.5 -67t96.5 -24z" />
    <glyph glyph-name="c" unicode="c" horiz-adv-x="936" 
d="M592 745q1 22 1.5 54t0 64.5t-1.5 52.5q-2 48 -25.5 71.5t-88.5 23.5q-64 0 -89.5 -22t-27.5 -73q-3 -90 -4.5 -168t-1.5 -151t1.5 -147t4.5 -159q2 -54 29.5 -78t90.5 -24q64 0 86.5 26t24.5 78q2 31 2 69.5t-2 96.5h276q3 -16 3.5 -59.5t-1.5 -77.5
q-8 -182 -98.5 -261.5t-290.5 -79.5q-211 0 -301.5 81t-101.5 260q-3 50 -4 126.5t-1 159.5t1 154.5t4 111.5q12 186 105.5 265.5t294.5 79.5q202 0 293 -77.5t99 -256.5q2 -34 1.5 -80.5t-3.5 -59.5h-276z" />
    <glyph glyph-name="d" unicode="d" horiz-adv-x="1012" 
d="M351 -19q-129 0 -197 75.5t-76 249.5q-3 55 -4 134t-1 164t1.5 162t3.5 128q8 175 78.5 250t198.5 75q97 0 146 -37.5t92 -108.5h39v527h284v-1600h-284v127h-41q-42 -70 -93.5 -108t-146.5 -38zM466 184q47 0 97 24t69 67v650q-19 43 -69 67t-97 24q-52 0 -77 -23
t-28 -68q-5 -104 -7 -216t-0.5 -221t7.5 -205q3 -52 26.5 -75.5t78.5 -23.5z" />
    <glyph glyph-name="e" unicode="e" horiz-adv-x="935" 
d="M482 -19q-212 0 -302.5 81t-101.5 260q-3 51 -4 127t-1 159t1 154.5t4 111.5q12 186 105.5 265.5t294.5 79.5q202 0 293 -78t100 -256q1 -24 1.5 -80.5t0 -124.5t-3.5 -127h-514q0 -62 1.5 -126.5t4.5 -135.5q2 -54 29.5 -77.5t90.5 -23.5q60 0 84 23.5t27 79.5
q2 30 2.5 69.5t-2.5 96.5h277q2 -15 3 -59.5t-1 -77.5q-9 -182 -99.5 -261.5t-289.5 -79.5zM357 746h237q1 38 1 73t-1 61t-2 36q-3 51 -28.5 73t-85.5 22q-64 0 -89.5 -22.5t-27.5 -72.5q-1 -44 -2.5 -86.5t-1.5 -83.5z" />
    <glyph glyph-name="f" unicode="f" horiz-adv-x="706" 
d="M163 0v990h-138v210h138v80q-1 183 98 262t307 79q36 0 76.5 -4t78.5 -10v-203q-37 1 -76 1h-78q-61 0 -92.5 -26t-30.5 -77v-102h227v-210h-227v-990h-283z" />
    <glyph glyph-name="g" unicode="g" 
d="M458 -394q-160 0 -256 47.5t-116 134.5q-3 14 -4.5 34.5t0.5 35.5q8 53 42 87t92 41v40q-55 9 -87 38.5t-39 76.5q-3 20 -2 33t2 28q5 44 45.5 70.5t103.5 35.5v40q-84 37 -125 112t-48 195q-2 32 -3 61t-1 56.5t1 52.5t3 49q9 123 53 199.5t130.5 111t223.5 34.5
q133 0 217.5 -32t127.5 -103h40q9 61 46 88.5t112 27.5v-211h-31q-50 0 -78.5 -22.5t-28.5 -83.5v-55v-37t0.5 -42t0 -45.5t-2.5 -48.5q-8 -124 -51 -200.5t-129 -111.5t-224 -35q-93 0 -135.5 -13.5t-42.5 -43.5v-7q0 -21 12 -33t49 -17.5t111 -6.5q207 -3 308 -64
t123 -180q3 -16 3.5 -40t-3.5 -50q-14 -89 -64 -143.5t-142.5 -79t-232.5 -24.5zM476 -203q55 0 97 8.5t67.5 25t34.5 42.5q5 16 4 30.5t-6 28.5q-8 24 -33 39.5t-66 23.5t-98 8q-75 0 -121 -17t-57 -54q-4 -16 -4 -31t4 -29q7 -25 30 -42t60.5 -25t87.5 -8zM472 516
q61 0 94.5 26.5t36.5 72.5q2 31 3.5 67.5t1.5 75.5t-1.5 78.5t-3.5 74.5q-3 48 -35.5 74t-94.5 26q-65 0 -98.5 -26.5t-36.5 -77.5q-1 -37 -2 -74.5t-1.5 -73.5t0.5 -71t3 -66q4 -51 37.5 -78.5t96.5 -27.5z" />
    <glyph glyph-name="h" unicode="h" horiz-adv-x="1030" 
d="M96 0v1600h284v-527h49q43 71 92 108.5t146 37.5q131 0 199 -75t69 -250l3 -894h-283l-4 918q0 50 -24.5 74t-78.5 24q-50 0 -99 -24.5t-69 -66.5v-925h-284z" />
    <glyph glyph-name="i" unicode="i" horiz-adv-x="470" 
d="M92 1384v216h286v-216h-286zM96 0v1200h278v-1200h-278z" />
    <glyph glyph-name="j" unicode="j" horiz-adv-x="471" 
d="M93 1384v216h287v-216h-287zM-30 -424q-36 0 -78.5 4t-79.5 10v206q29 -1 76.5 -2.5t80.5 -1.5q64 0 95.5 26t31.5 74v1308h279v-1282q0 -183 -98.5 -262.5t-306.5 -79.5z" />
    <glyph glyph-name="k" unicode="k" horiz-adv-x="922" 
d="M96 0v1600h264v-306l-33 -561h45l100 260l116 207h291l-256 -454l303 -746h-290l-191 472l-78 -118v-354h-271z" />
    <glyph glyph-name="l" unicode="l" horiz-adv-x="470" 
d="M96 0v1600h278v-1600h-278z" />
    <glyph glyph-name="m" unicode="m" horiz-adv-x="1545" 
d="M96 0v1200h280v-127h51q42 70 87.5 108t141.5 38q90 0 152 -38.5t90 -125.5h44q42 70 97 117t151 47q125 0 194 -75t69 -250v-894h-280v918q0 52 -28 75t-76 23q-41 0 -82.5 -26.5t-65.5 -64.5v-925h-282v918q0 50 -25.5 74t-76.5 24q-46 0 -93.5 -24.5t-67.5 -66.5v-925
h-280z" />
    <glyph glyph-name="n" unicode="n" horiz-adv-x="1030" 
d="M96 0v1200h279v-127h54q43 71 93 108.5t145 37.5q131 0 201 -75t70 -250v-894h-278v918q-1 50 -29.5 74t-82.5 24q-48 0 -101 -24.5t-72 -66.5v-925h-279z" />
    <glyph glyph-name="o" unicode="o" horiz-adv-x="974" 
d="M488 -19q-146 0 -233.5 38t-129 122.5t-48.5 222.5q-2 42 -3 104t-1 131.5t1 132.5t3 105q8 140 50 224t129 121t232 37q148 0 235 -39t127 -123t47 -220q2 -42 3.5 -105t1.5 -131.5t-1.5 -131t-3.5 -105.5q-8 -138 -48 -222.5t-127 -122.5t-234 -38zM488 189q70 0 99 27
t30 79q3 88 4.5 164.5t1.5 148t-1.5 144.5t-4.5 155q-1 51 -30.5 77.5t-98.5 26.5q-68 0 -99.5 -28.5t-33.5 -76.5q-2 -64 -3 -137.5t-1 -152.5t1.5 -159.5t4.5 -161.5q2 -52 32.5 -79t98.5 -27z" />
    <glyph glyph-name="p" unicode="p" horiz-adv-x="1011" 
d="M96 -400v1600h284v-127h39q44 71 92 108.5t147 37.5q128 0 198 -75t79 -250q2 -51 3 -130t1 -166t-1 -165t-3 -127q-9 -174 -86.5 -249.5t-205.5 -75.5q-72 0 -124 33.5t-100 112.5h-39v-527h-284zM530 184q54 0 86 24t35 74q5 76 7 158.5t2 167t-2 165t-7 152.5
q-3 45 -28 68t-77 23q-48 0 -97 -24.5t-69 -66.5v-650q23 -49 58.5 -70t91.5 -21z" />
    <glyph glyph-name="q" unicode="q" horiz-adv-x="1012" 
d="M632 -400v527h-36q-47 -79 -99 -112.5t-124 -33.5q-129 0 -208 75.5t-88 249.5q-2 55 -3 134.5t-1 164.5t1 162t3 127q9 175 79 250t198 75q98 0 146.5 -37.5t90.5 -108.5h41v127h284v-1600h-284zM482 184q56 0 92 21t58 70v650q-19 43 -69 67t-97 24q-49 0 -76.5 -22.5
t-30.5 -77.5q-4 -93 -5.5 -210t0.5 -230.5t7 -194.5q3 -49 36 -73t85 -24z" />
    <glyph glyph-name="r" unicode="r" horiz-adv-x="718" 
d="M96 0v1200h285v-145h51q13 86 60 119t122 33q25 0 50 -1.5t40 -3.5v-212h-87q-103 0 -161.5 -29.5t-74.5 -101.5v-859h-285z" />
    <glyph glyph-name="s" unicode="s" horiz-adv-x="892" 
d="M441 -19q-196 0 -279.5 79.5t-92.5 261.5q-1 38 0 72t2 49h249q-3 -58 -2 -92t2 -60q2 -56 32 -79t89 -23q69 0 100.5 24t32.5 80v32.5v12v30.5q-1 36 -17.5 59.5t-59.5 34.5l-143 37q-94 25 -159 64t-99 98t-34 147v33.5v30.5q1 186 89 266.5t303 80.5
q195 0 278.5 -77.5t91.5 -256.5q2 -22 1 -65.5t-3 -58.5h-258q1 22 1.5 52t0 58.5t-1.5 44.5q-3 51 -26.5 73t-83.5 22q-64 0 -89 -22t-27 -73q0 -6 -1 -23t-1 -60q1 -46 18 -73t68 -39l127 -29q143 -33 214.5 -103.5t71.5 -206.5v-33.5v-33.5q-1 -179 -91.5 -256.5
t-302.5 -77.5z" />
    <glyph glyph-name="t" unicode="t" horiz-adv-x="707" 
d="M572 -19q-228 0 -325.5 79t-98.5 266l-2 664h-116v210h122v340h283v-340h222v-210h-229l3 -697q0 -63 31.5 -84t110.5 -21q27 0 51.5 1t54.5 1v-199q-24 -4 -49.5 -7t-57.5 -3z" />
    <glyph glyph-name="u" unicode="u" horiz-adv-x="1022" 
d="M367 -19q-128 0 -203.5 75.5t-75.5 249.5v894h280l4 -918q0 -50 24.5 -74t77.5 -24q50 0 100 24.5t69 66.5v925h284v-1200h-284v127h-38q-47 -79 -104 -112.5t-134 -33.5z" />
    <glyph glyph-name="v" unicode="v" horiz-adv-x="896" 
d="M211 0l-187 1200h288l73 -603l23 -392h77l24 392l75 603h288l-190 -1200h-471z" />
    <glyph glyph-name="w" unicode="w" horiz-adv-x="1516" 
d="M182 0l-158 1200h284l50 -603l21 -392h79l10 392l57 602h467l54 -602l13 -392h74l21 392l54 603h283l-161 -1200h-476l-37 467l-17 527h-85l-18 -527l-34 -467h-481z" />
    <glyph glyph-name="x" unicode="x" horiz-adv-x="847" 
d="M17 0l214 633l-210 567h274l78 -250l23 -205h55l25 205l76 250h275l-209 -572l213 -628h-275l-81 301l-24 243h-53l-24 -243l-83 -301h-274z" />
    <glyph glyph-name="y" unicode="y" horiz-adv-x="910" 
d="M225 -420q-35 0 -75.5 4t-78.5 10v206q29 -1 76 -2.5t78 -1.5q85 0 118.5 23.5t42.5 79.5l16 101h-150l-219 1200h288l59 -547l49 -448h72l38 448l55 547h288l-213 -1279q-19 -111 -61.5 -187t-132.5 -115t-250 -39z" />
    <glyph glyph-name="z" unicode="z" horiz-adv-x="810" 
d="M42 0v177l429 818h-421v205h723v-182l-436 -813h431v-205h-726z" />
    <glyph glyph-name="braceleft" unicode="{" horiz-adv-x="791" 
d="M731 -404q-131 0 -239 34.5t-173 114.5t-65 216q0 22 1 64t3 92.5t4 100t3.5 88t1.5 57.5q0 81 -30.5 99t-86.5 18h-90v233h90q56 0 86.5 18t30.5 99q0 19 -1.5 58t-3 89t-3 100.5t-2.5 93t-1 64.5q0 137 64.5 217t172 114t238.5 34v-135q-51 0 -96.5 -32.5t-74 -84.5
t-28.5 -113q0 -17 1 -46.5t2.5 -66t3.5 -74t3 -72t1 -60.5q0 -117 -49 -199t-150 -99v-39q101 -18 150 -100t49 -199q0 -26 -1 -60.5t-3 -72t-3.5 -74t-2.5 -65.5t-1 -47q0 -61 28.5 -113t74 -84t96.5 -32v-136z" />
    <glyph glyph-name="bar" unicode="|" horiz-adv-x="447" 
d="M84 1837h279v-2077h-279v2077z" />
    <glyph glyph-name="braceright" unicode="}" horiz-adv-x="791" 
d="M60 -404v136q51 0 96.5 32t73.5 84t28 113q0 18 -1 47t-2.5 65.5t-3 74t-2.5 72t-1 60.5q0 117 49 199t150 100v39q-101 17 -150 99t-49 199q0 26 1 60.5t2.5 72t3 74t2.5 66t1 46.5q0 61 -28 113t-73.5 84.5t-96.5 32.5v135q131 0 239 -34t172 -114t64 -217
q0 -22 -1 -64.5t-3 -93t-3.5 -100.5t-2.5 -89t-1 -58q0 -81 30.5 -99t86.5 -18h90v-233h-90q-56 0 -86.5 -18t-30.5 -99q0 -19 1 -57.5t3 -88t4 -100t3.5 -92.5t1.5 -64q0 -136 -64.5 -216t-173 -114.5t-239.5 -34.5z" />
    <glyph glyph-name="asciitilde" unicode="~" horiz-adv-x="1084" 
d="M715 568q-65 0 -113 20.5t-87 47t-75.5 47.5t-79.5 21q-54 2 -85.5 -29.5t-36.5 -88.5h-154q11 177 90 249t195 70q71 -1 119 -21t84.5 -46t70.5 -46t78 -20q56 -1 89.5 25t36.5 73h153q-8 -162 -85 -233t-200 -69z" />
    <glyph glyph-name="uni00A0" unicode="&#xa0;" horiz-adv-x="436" 
 />
    <glyph glyph-name="exclamdown" unicode="&#xa1;" horiz-adv-x="526" 
d="M141 779h206l37 -541v-638h-280v638zM63 1200h362v-265h-362v265z" />
    <glyph glyph-name="cent" unicode="&#xa2;" horiz-adv-x="936" 
d="M349 0v190q-134 22 -197.5 102t-73.5 230q-3 45 -4 120.5t-1 160.5t1.5 158.5t3.5 112.5q10 153 74 233.5t197 102.5v190h246v-188q139 -20 204 -98t71 -229q2 -33 1 -80t-3 -60h-276q1 22 1.5 54.5t0 64.5t-1.5 52q-2 48 -25.5 71.5t-88.5 23.5q-64 0 -89.5 -22
t-27.5 -73q-3 -90 -4.5 -168t-1.5 -151t1.5 -147t4.5 -159q2 -54 29 -78t91 -24t86.5 26t24.5 78q2 30 2 69t-2 97h276q2 -16 3 -59.5t-1 -77.5q-6 -154 -71 -234t-204 -100v-188h-246z" />
    <glyph glyph-name="sterling" unicode="&#xa3;" horiz-adv-x="1055" 
d="M136 0v239q30 15 52.5 63t35 127.5t12.5 187.5q0 40 -3 74.5t-9 65.5h-140v136h104q-16 51 -31 102.5t-25 111t-9 132.5q2 176 100.5 278t317.5 102q216 0 311.5 -88.5t101.5 -293.5q1 -39 1.5 -68t-0.5 -65t-3 -98h-282q1 26 1.5 67t1 84.5t0.5 79t-1 51.5
q-1 51 -35.5 77.5t-95.5 26.5q-65 0 -100.5 -26.5t-35.5 -77.5q0 -63 13.5 -125t31.5 -128t33 -142h194v-136h-175q3 -24 4.5 -49.5t1.5 -52.5q0 -120 -30 -216.5t-82 -155.5v-38h575v-245h-835z" />
    <glyph glyph-name="currency" unicode="&#xa4;" horiz-adv-x="1215" 
d="M205 47l-114 97l156 180q-21 42 -32.5 97.5t-16.5 124.5q-2 42 -3 104t-1 131.5t1 132.5t3 105q5 70 17 125.5t34 98.5l-165 183l108 98l158 -174q90 51 259 51q165 0 254 -48l159 167l108 -101l-163 -172q23 -43 35.5 -99.5t16.5 -128.5q2 -42 3.5 -105t1.5 -131.5
t-1.5 -131t-3.5 -105.5q-4 -74 -17.5 -132t-36.5 -102l145 -166l-112 -99l-142 160q-85 -44 -247 -44q-169 0 -259 51zM609 371q70 0 99 27t31 79q3 88 4.5 164t1.5 148t-1.5 145t-4.5 155q-2 51 -31 77t-99 26q-68 0 -99 -28t-33 -76q-2 -64 -3.5 -137.5t-1.5 -152.5
t1.5 -159.5t4.5 -161.5q2 -52 32.5 -79t98.5 -27z" />
    <glyph glyph-name="yen" unicode="&#xa5;" horiz-adv-x="897" 
d="M310 0v137h-197v135h197v62h-197v135h197v39h-33l-259 1092h284l85 -398l33 -468h57l34 468l84 398h284l-260 -1092h-31v-39h198v-135h-198v-62h198v-135h-198v-137h-278z" />
    <glyph glyph-name="brokenbar" unicode="&#xa6;" horiz-adv-x="447" 
d="M84 1837h279v-821h-279v821zM84 536h279v-776h-279v776z" />
    <glyph glyph-name="section" unicode="&#xa7;" horiz-adv-x="946" 
d="M465 -419q-130 0 -209.5 27t-118 95t-44.5 190q-1 22 -1 57.5t1 67t2 41.5h249q-2 -43 -2 -71t0.5 -50t1.5 -46q3 -56 33 -79.5t88 -23.5q70 0 101 23.5t32 80.5v68v68q0 36 -13.5 58t-63.5 35l-137 37q-134 37 -213.5 104.5t-84.5 196.5q-1 50 -1 95.5t1 102.5
q3 97 45.5 157t105.5 86v38q-60 19 -102.5 61t-48.5 126q-3 39 -3 88t3 82q12 124 48.5 190t117 90.5t226.5 24.5q196 0 279 -78t91 -256q2 -25 2.5 -72.5t-4.5 -86.5h-258q1 31 1.5 68.5t0 70t-1.5 50.5q-3 52 -27.5 64.5t-82.5 12.5q-63 0 -86.5 -12.5t-28.5 -61.5
q-3 -27 -4 -79t1 -97q3 -41 16.5 -68t69.5 -39l127 -29q138 -31 208.5 -119t77.5 -220q4 -64 3.5 -100.5t-3.5 -84.5q-6 -82 -46.5 -136t-99.5 -78v-30q65 -22 105.5 -74t42.5 -126q2 -29 1 -65t-3 -60q-8 -119 -46.5 -187.5t-122 -97.5t-225.5 -29zM481 364q68 0 93 28
t31 75q4 29 5.5 62t0 67t-5.5 63q-6 47 -31 74.5t-93 27.5q-66 0 -94 -27t-34 -74q-5 -50 -4.5 -101.5t4.5 -91.5q8 -48 35 -75.5t93 -27.5z" />
    <glyph glyph-name="dieresis" unicode="&#xa8;" horiz-adv-x="717" 
d="M413 1310v188h188v-188h-188zM118 1310v188h188v-188h-188z" />
    <glyph glyph-name="copyright" unicode="&#xa9;" horiz-adv-x="1354" 
d="M678 -10q-193 0 -325 70t-200.5 206t-68.5 334t68.5 334t200.5 206t325 70q289 0 440.5 -156.5t151.5 -453.5q0 -198 -67.5 -334t-200 -206t-324.5 -70zM678 122q214 0 327 122.5t113 355.5t-113 355.5t-327 122.5q-215 0 -328.5 -122.5t-113.5 -355.5t113.5 -355.5
t328.5 -122.5zM680 230q-124 0 -181.5 50t-65.5 168q-1 23 -2 64t-1 88t1 87t2 58q7 120 64.5 170.5t180.5 50.5q127 0 180.5 -49.5t61.5 -162.5q2 -18 1 -36t-3 -26h-168q2 16 1 41.5t-1 39.5q0 34 -16.5 48.5t-55.5 14.5q-37 0 -53.5 -14.5t-18.5 -50.5
q-3 -53 -2.5 -110.5t1.5 -117.5t1 -117q1 -37 19.5 -51.5t54.5 -14.5q37 0 52.5 14.5t17.5 51.5q2 18 2 34.5t-2 47.5h168q3 -10 3.5 -25.5t-1.5 -36.5q-8 -116 -61.5 -166t-178.5 -50z" />
    <glyph glyph-name="ordfeminine" unicode="&#xaa;" horiz-adv-x="822" 
d="M310 754q-110 0 -159 46.5t-65 157.5q-1 10 -1 28.5t1 32.5q10 88 64 137.5t186 88.5q45 14 88.5 23t94.5 18q0 26 -1 51.5t-3 52.5q-1 31 -17.5 49.5t-76.5 18.5q-40 0 -62 -12.5t-28 -49.5q-1 -6 -1 -32.5t1 -53t2 -29.5h-215q-1 4 -2 20.5t-1.5 39t1.5 42.5
q7 119 75.5 177.5t237.5 58.5q119 0 184.5 -28.5t92.5 -90.5t30 -162q1 -40 1.5 -93.5t0.5 -114t-0.5 -124t-1 -125t-0.5 -115.5h-223q0 25 1 47.5t1 43.5h-32q-27 -50 -64.5 -76.5t-108.5 -26.5zM400 909q40 0 72 18t48 40v91.5v90.5q-35 -7 -71.5 -15t-59.5 -15
q-48 -14 -63.5 -40.5t-20.5 -57.5q-1 -12 -0.5 -25.5t0.5 -19.5q1 -35 28 -51t67 -16z" />
    <glyph glyph-name="guillemotleft" unicode="&#xab;" horiz-adv-x="815" 
d="M371 839l-347 -338v255l347 338v-255zM371 164l-347 337v255l347 -338v-254zM731 839l-347 -338v255l347 338v-255zM731 164l-347 337v255l347 -338v-254z" />
    <glyph glyph-name="logicalnot" unicode="&#xac;" horiz-adv-x="1046" 
d="M749 426v375h-665v210h878v-585h-213z" />
    <glyph glyph-name="uni00AD" unicode="&#xad;" horiz-adv-x="896" 
d="M60 593v245h776v-245h-776z" />
    <glyph glyph-name="registered" unicode="&#xae;" horiz-adv-x="963" 
d="M483 972q-193 0 -296 104t-103 297q0 195 103 298t296 103t294.5 -103t101.5 -298q0 -193 -101.5 -297t-294.5 -104zM483 1057q157 0 233.5 78.5t76.5 237.5q0 161 -76.5 238.5t-233.5 77.5q-156 0 -234.5 -77.5t-78.5 -238.5q0 -159 78.5 -237.5t234.5 -78.5zM364 1176
v424h126q70 0 101.5 -26t34.5 -89v-9.5v-15.5q0 -33 -16.5 -54t-52.5 -29v-14q36 -8 51 -27.5t16 -55.5q1 -15 2.5 -30.5t1.5 -33t-2 -40.5h-96q0 27 -1.5 58.5t-1.5 58.5q-1 40 -37 40h-29v-157h-97zM461 1416h31q18 0 28 9t10 25v19.5v21.5q0 26 -40 26h-29v-101z" />
    <glyph glyph-name="macron" unicode="&#xaf;" horiz-adv-x="944" 
d="M118 1415h677v-126h-677v126z" />
    <glyph glyph-name="degree" unicode="&#xb0;" horiz-adv-x="643" 
d="M323 1182q-65 0 -119.5 30t-87 79.5t-32.5 108.5q0 60 32.5 110t87 80t119.5 30q64 0 117.5 -30t86 -80t32.5 -110q0 -59 -32.5 -108.5t-86 -79.5t-117.5 -30zM322 1294q51 0 86.5 31t35.5 75q0 46 -35.5 77.5t-86.5 31.5t-87 -31t-36 -78q0 -44 36 -75t87 -31z" />
    <glyph glyph-name="plusminus" unicode="&#xb1;" horiz-adv-x="1086" 
d="M437 457v161h-353v208h353v216h212v-216h353v-208h-353v-161h-212zM84 203v168h918v-168h-918z" />
    <glyph glyph-name="uni00B2" unicode="&#xb2;" horiz-adv-x="666" 
d="M73 878q-1 76 -1 106t1 55q3 68 53.5 120t135.5 87l85 36q31 12 40 27t12 39q3 21 2.5 34t-2.5 31q-1 15 -15.5 25.5t-45.5 10.5q-56 0 -59 -36q-3 -26 -1 -58.5t3 -44.5h-204l-2 36t0 41q5 113 74 167.5t187 54.5q133 0 201.5 -57t69.5 -165v-12.5v-11.5v-14
q0 -75 -47 -126.5t-132 -83.5l-102 -39q-14 -6 -26.5 -16t-12.5 -21v-10h298v-175h-512z" />
    <glyph glyph-name="uni00B3" unicode="&#xb3;" horiz-adv-x="675" 
d="M340 869q-134 0 -207.5 53.5t-73.5 154.5q-1 4 -1 9t0.5 11t1.5 13h206q-2 -7 -2 -15.5t1 -16.5q0 -21 17.5 -35t51.5 -14q35 0 52.5 12t17.5 32v23.5v21.5q0 25 -18.5 38t-52.5 13h-127l-6 146l139 110h-261v175h518l-1 -171l-162 -110q86 -12 132.5 -61t46.5 -136
v-15.5v-17v-14.5q0 -98 -69.5 -152t-202.5 -54z" />
    <glyph glyph-name="acute" unicode="&#xb4;" horiz-adv-x="554" 
d="M84 1280l190 271h197l-199 -271h-188z" />
    <glyph glyph-name="uni00B5" unicode="&#xb5;" horiz-adv-x="1039" 
d="M87 -400l-3 1600h282l2 -918q0 -50 27 -74t79 -24q47 0 97 24.5t69 66.5v925h283v-959q0 -77 8.5 -140.5t23.5 -100.5h-282q-10 23 -17 55.5t-10 71.5h-46q-32 -54 -67.5 -86.5t-80.5 -46.5q-36 -11 -82 -11v-383h-283z" />
    <glyph glyph-name="paragraph" unicode="&#xb6;" horiz-adv-x="1152" 
d="M560 -200v879h-69q-133 0 -219 33t-131.5 116.5t-54.5 233.5q-2 23 -2 58t1 64.5t1 35.5q7 137 47.5 220.5t127 121.5t230.5 38h577v-150h-89v-1650h-174v1650h-71v-1650h-174z" />
    <glyph glyph-name="periodcentered" unicode="&#xb7;" horiz-adv-x="370" 
d="M82 733v206h206v-206h-206z" />
    <glyph glyph-name="cedilla" unicode="&#xb8;" horiz-adv-x="491" 
d="M76 -330v133h61q61 0 86 25t17 82l-15 90h145l14 -90q18 -127 -41.5 -183.5t-204.5 -56.5h-62z" />
    <glyph glyph-name="uni00B9" unicode="&#xb9;" horiz-adv-x="442" 
d="M147 882v556h-115l-4 68l165 96h167v-720h-213z" />
    <glyph glyph-name="ordmasculine" unicode="&#xba;" horiz-adv-x="828" 
d="M414 752q-169 0 -243 63t-83 224q-1 19 -2 48.5t-1.5 63t-0.5 68t1 65t3 51.5q10 102 41.5 164.5t98 91t182.5 28.5q181 0 252.5 -68t79.5 -216q1 -21 2 -52t1.5 -65.5t0.5 -68.5t-1 -63t-3 -47q-9 -100 -39 -163t-98 -93.5t-191 -30.5zM416 913q57 0 79.5 18.5
t23.5 51.5q3 60 4.5 111.5t1.5 99t-1.5 96t-4.5 102.5q-1 31 -24.5 48.5t-78.5 17.5t-79 -18t-26 -50q-5 -80 -6.5 -138t0 -118.5t6.5 -150.5q2 -33 26 -51.5t79 -18.5z" />
    <glyph glyph-name="guillemotright" unicode="&#xbb;" horiz-adv-x="765" 
d="M394 839v255l347 -338v-255zM394 164v254l347 338v-255zM33 839v255l347 -338v-255zM33 164v254l347 338v-255z" />
    <glyph glyph-name="onequarter" unicode="&#xbc;" horiz-adv-x="1171" 
d="M147 882v556h-115l-4 68l165 96h167v-720h-213zM-155 0l1052 1600h208l-1053 -1600h-207zM1032 720v-399h97v-173h-97v-148h-193v148h-298v167l229 405h262zM839 321l27 140l23 84h-35l-46 -84l-63 -140h94z" />
    <glyph glyph-name="onehalf" unicode="&#xbd;" horiz-adv-x="1199" 
d="M147 882v556h-115l-4 68l165 96h167v-720h-213zM-155 0l1052 1600h208l-1053 -1600h-207zM606 0q-1 76 -1 106t1 55q3 68 53.5 120t135.5 87l85 36q31 12 40 27t12 39q3 21 2.5 34t-2.5 31q-1 15 -15.5 25.5t-45.5 10.5q-56 0 -59 -36q-3 -26 -1 -58.5t3 -44.5h-204
l-2 36t0 41q5 113 74 167.5t187 54.5q133 0 201.5 -57t69.5 -165v-12.5v-11.5v-14q0 -75 -47 -126.5t-132 -83.5l-102 -39q-14 -6 -26.5 -16t-12.5 -21v-10h298v-175h-512z" />
    <glyph glyph-name="threequarters" unicode="&#xbe;" horiz-adv-x="1476" 
d="M340 869q-134 0 -207.5 53.5t-73.5 154.5q-1 4 -1 9t0.5 11t1.5 13h206q-2 -7 -2 -15.5t1 -16.5q0 -21 17.5 -35t51.5 -14q35 0 52.5 12t17.5 32v23.5v21.5q0 25 -18.5 38t-52.5 13h-127l-6 146l139 110h-261v175h518l-1 -171l-162 -110q86 -12 132.5 -61t46.5 -136
v-15.5v-17v-14.5q0 -98 -69.5 -152t-202.5 -54zM150 0l1052 1600h208l-1053 -1600h-207zM1337 720v-399h97v-173h-97v-148h-193v148h-298v167l229 405h262zM1144 321l27 140l23 84h-35l-46 -84l-63 -140h94z" />
    <glyph glyph-name="questiondown" unicode="&#xbf;" horiz-adv-x="991" 
d="M501 -423q-240 0 -344 95t-104 311v41.5v49.5v52q0 114 21.5 182t53.5 105t67.5 55.5t62.5 32.5l53 26q46 23 55 63t15 83l8 79h237l4 -79q6 -81 -3.5 -142.5t-49 -113.5t-122.5 -106l-37 -23q-24 -15 -35.5 -41.5t-15.5 -58.5t-4 -62v-199q0 -48 36 -74.5t100 -26.5
q63 0 96 27t36 74q5 61 5 125t-3 115h301q2 -44 3 -71.5t1 -52t-2 -60.5q-12 -217 -111 -311.5t-324 -94.5zM326 935v265h362v-265h-362z" />
    <glyph glyph-name="Agrave" unicode="&#xc0;" horiz-adv-x="985" 
d="M38 0l214 1600h481l215 -1600h-286l-35 352h-269l-34 -352h-286zM384 598h217l-35 351l-27 405h-92l-27 -405zM370 1680l-181 271h198l172 -271h-189z" />
    <glyph glyph-name="Aacute" unicode="&#xc1;" horiz-adv-x="985" 
d="M38 0l214 1600h481l215 -1600h-286l-35 352h-269l-34 -352h-286zM384 598h217l-35 351l-27 405h-92l-27 -405zM407 1680l190 271h197l-199 -271h-188z" />
    <glyph glyph-name="Acircumflex" unicode="&#xc2;" horiz-adv-x="985" 
d="M38 0l214 1600h481l215 -1600h-286l-35 352h-269l-34 -352h-286zM384 598h217l-35 351l-27 405h-92l-27 -405zM230 1682l175 271h168l175 -271h-186l-73 126l-74 -126h-185z" />
    <glyph glyph-name="Atilde" unicode="&#xc3;" horiz-adv-x="985" 
d="M38 0l214 1600h481l215 -1600h-286l-35 352h-269l-34 -352h-286zM384 598h217l-35 351l-27 405h-92l-27 -405zM651 1893h110q-6 -112 -47 -161.5t-116 -49.5q-47 0 -74.5 14t-46.5 32.5t-37.5 33t-46.5 14.5q-31 0 -42.5 -20.5t-16.5 -60.5h-110q9 116 49.5 169t119.5 53
q47 0 74 -14t44.5 -32.5t36 -32t48.5 -13.5t42 17.5t13 50.5z" />
    <glyph glyph-name="Adieresis" unicode="&#xc4;" horiz-adv-x="985" 
d="M38 0l214 1600h481l215 -1600h-286l-35 352h-269l-34 -352h-286zM384 598h217l-35 351l-27 405h-92l-27 -405zM546 1710v188h188v-188h-188zM251 1710v188h188v-188h-188z" />
    <glyph glyph-name="Aring" unicode="&#xc5;" horiz-adv-x="985" 
d="M38 0l214 1600h481l215 -1600h-286l-35 352h-269l-34 -352h-286zM384 598h217l-35 351l-27 405h-92l-27 -405zM493 1670q-85 0 -145.5 61t-60.5 146t60.5 145.5t145.5 60.5q86 0 146.5 -60.5t60.5 -145.5t-60.5 -146t-146.5 -61zM493 1815q27 0 44.5 18t17.5 44t-18 43.5
t-44 17.5q-25 0 -43 -17.5t-18 -43.5t18 -44t43 -18z" />
    <glyph glyph-name="AE" unicode="&#xc6;" horiz-adv-x="1417" 
d="M38 0l325 1600h999v-246h-420v-419h400v-245h-400v-444h420v-246h-699v351h-248l-73 -351h-304zM467 596h196v759h-88l-49 -479z" />
    <glyph glyph-name="Ccedilla" unicode="&#xc7;" horiz-adv-x="999" 
d="M508 -19q-221 0 -318.5 88.5t-102.5 294.5q-2 115 -3 223t-1 213.5t1 214t3 225.5q3 196 104 287.5t317 91.5q211 0 310.5 -93t105.5 -288q1 -36 1 -76t-1 -80t-2 -75h-278q1 39 2 81.5t1 84.5t-2 82q-1 73 -33.5 104.5t-103.5 31.5q-73 0 -106.5 -31.5t-35.5 -104.5
q-3 -117 -5 -230.5t-2 -225t2 -223.5t5 -229q2 -75 35.5 -107t106.5 -32q76 0 109.5 32t35.5 107q2 43 2.5 81t0 79t-2.5 90h279q2 -56 2 -118.5t-2 -114.5q-6 -206 -104 -294.5t-320 -88.5zM279 -312v133h61q61 0 86 25t17 82l-15 90h145l14 -90q18 -127 -41.5 -183.5
t-204.5 -56.5h-62z" />
    <glyph glyph-name="Egrave" unicode="&#xc8;" horiz-adv-x="856" 
d="M102 0v1600h699v-246h-421v-419h401v-245h-401v-444h421v-246h-699zM328 1680l-181 271h198l172 -271h-189z" />
    <glyph glyph-name="Eacute" unicode="&#xc9;" horiz-adv-x="856" 
d="M102 0v1600h699v-246h-421v-419h401v-245h-401v-444h421v-246h-699zM366 1680l190 271h197l-199 -271h-188z" />
    <glyph glyph-name="Ecircumflex" unicode="&#xca;" horiz-adv-x="856" 
d="M102 0v1600h699v-246h-421v-419h401v-245h-401v-444h421v-246h-699zM189 1682l175 271h168l175 -271h-186l-73 126l-74 -126h-185z" />
    <glyph glyph-name="Edieresis" unicode="&#xcb;" horiz-adv-x="856" 
d="M102 0v1600h699v-246h-421v-419h401v-245h-401v-444h421v-246h-699zM504 1710v188h188v-188h-188zM209 1710v188h188v-188h-188z" />
    <glyph glyph-name="Igrave" unicode="&#xcc;" horiz-adv-x="482" 
d="M102 0v1600h278v-1600h-278zM118 1680l-181 271h198l172 -271h-189z" />
    <glyph glyph-name="Iacute" unicode="&#xcd;" horiz-adv-x="482" 
d="M102 0v1600h278v-1600h-278zM156 1680l190 271h197l-199 -271h-188z" />
    <glyph glyph-name="Icircumflex" unicode="&#xce;" horiz-adv-x="482" 
d="M102 0v1600h278v-1600h-278zM-21 1682l175 271h168l175 -271h-186l-73 126l-74 -126h-185z" />
    <glyph glyph-name="Idieresis" unicode="&#xcf;" horiz-adv-x="482" 
d="M102 0v1600h278v-1600h-278zM294 1710v188h188v-188h-188zM-1 1710v188h188v-188h-188z" />
    <glyph glyph-name="Eth" unicode="&#xd0;" horiz-adv-x="1096" 
d="M85 946h504v-136h-504v136zM192 0v1600h406q215 0 311 -90.5t100 -297.5q3 -147 4 -279.5t0 -264t-4 -278.5q-4 -208 -99.5 -299t-309.5 -91h-408zM471 246h129q64 0 96.5 28.5t33.5 83.5q3 114 4.5 224t1.5 219t-1.5 219.5t-4.5 223.5q-1 54 -33.5 82t-98.5 28h-127
v-1108z" />
    <glyph glyph-name="Ntilde" unicode="&#xd1;" horiz-adv-x="1193" 
d="M102 0v1600h464l116 -509l113 -845h89l-51 686l-22 668h280v-1600h-486l-117 531l-86 825h-93l47 -744l24 -612h-278zM753 1893h110q-6 -112 -47 -161.5t-116 -49.5q-47 0 -74.5 14t-46.5 32.5t-37.5 33t-46.5 14.5q-31 0 -42.5 -20.5t-16.5 -60.5h-110q9 116 49.5 169
t119.5 53q47 0 74 -14t44.5 -32.5t36 -32t48.5 -13.5t42 17.5t13 50.5z" />
    <glyph glyph-name="Ograve" unicode="&#xd2;" 
d="M508 -19q-221 0 -318.5 89t-102.5 295q-2 118 -3 225t-1 211t1 211.5t3 224.5q5 205 102.5 293.5t318.5 88.5q217 0 314.5 -88.5t103.5 -293.5q5 -118 7 -225t2 -211.5t-2 -211.5t-7 -224q-6 -206 -103.5 -295t-314.5 -89zM508 209q74 0 106.5 32t33.5 107q5 117 7.5 229
t2.5 223.5t-2.5 224.5t-7.5 228q-1 75 -33.5 107t-106.5 32t-107 -32t-35 -107q-5 -115 -7.5 -227.5t-2.5 -224t2.5 -224t7.5 -229.5q2 -75 35 -107t107 -32zM387 1680l-181 271h198l172 -271h-189z" />
    <glyph glyph-name="Oacute" unicode="&#xd3;" 
d="M508 -19q-221 0 -318.5 89t-102.5 295q-2 118 -3 225t-1 211t1 211.5t3 224.5q5 205 102.5 293.5t318.5 88.5q217 0 314.5 -88.5t103.5 -293.5q5 -118 7 -225t2 -211.5t-2 -211.5t-7 -224q-6 -206 -103.5 -295t-314.5 -89zM508 209q74 0 106.5 32t33.5 107q5 117 7.5 229
t2.5 223.5t-2.5 224.5t-7.5 228q-1 75 -33.5 107t-106.5 32t-107 -32t-35 -107q-5 -115 -7.5 -227.5t-2.5 -224t2.5 -224t7.5 -229.5q2 -75 35 -107t107 -32zM424 1680l190 271h197l-199 -271h-188z" />
    <glyph glyph-name="Ocircumflex" unicode="&#xd4;" 
d="M508 -19q-221 0 -318.5 89t-102.5 295q-2 118 -3 225t-1 211t1 211.5t3 224.5q5 205 102.5 293.5t318.5 88.5q217 0 314.5 -88.5t103.5 -293.5q5 -118 7 -225t2 -211.5t-2 -211.5t-7 -224q-6 -206 -103.5 -295t-314.5 -89zM508 209q74 0 106.5 32t33.5 107q5 117 7.5 229
t2.5 223.5t-2.5 224.5t-7.5 228q-1 75 -33.5 107t-106.5 32t-107 -32t-35 -107q-5 -115 -7.5 -227.5t-2.5 -224t2.5 -224t7.5 -229.5q2 -75 35 -107t107 -32zM247 1682l175 271h168l175 -271h-186l-73 126l-74 -126h-185z" />
    <glyph glyph-name="Otilde" unicode="&#xd5;" 
d="M508 -19q-221 0 -318.5 89t-102.5 295q-2 118 -3 225t-1 211t1 211.5t3 224.5q5 205 102.5 293.5t318.5 88.5q217 0 314.5 -88.5t103.5 -293.5q5 -118 7 -225t2 -211.5t-2 -211.5t-7 -224q-6 -206 -103.5 -295t-314.5 -89zM508 209q74 0 106.5 32t33.5 107q5 117 7.5 229
t2.5 223.5t-2.5 224.5t-7.5 228q-1 75 -33.5 107t-106.5 32t-107 -32t-35 -107q-5 -115 -7.5 -227.5t-2.5 -224t2.5 -224t7.5 -229.5q2 -75 35 -107t107 -32zM668 1893h110q-6 -112 -47 -161.5t-116 -49.5q-47 0 -74.5 14t-46.5 32.5t-37.5 33t-46.5 14.5q-31 0 -42.5 -20.5
t-16.5 -60.5h-110q9 116 49.5 169t119.5 53q47 0 74 -14t44.5 -32.5t36 -32t48.5 -13.5t42 17.5t13 50.5z" />
    <glyph glyph-name="Odieresis" unicode="&#xd6;" 
d="M508 -19q-221 0 -318.5 89t-102.5 295q-2 118 -3 225t-1 211t1 211.5t3 224.5q5 205 102.5 293.5t318.5 88.5q217 0 314.5 -88.5t103.5 -293.5q5 -118 7 -225t2 -211.5t-2 -211.5t-7 -224q-6 -206 -103.5 -295t-314.5 -89zM508 209q74 0 106.5 32t33.5 107q5 117 7.5 229
t2.5 223.5t-2.5 224.5t-7.5 228q-1 75 -33.5 107t-106.5 32t-107 -32t-35 -107q-5 -115 -7.5 -227.5t-2.5 -224t2.5 -224t7.5 -229.5q2 -75 35 -107t107 -32zM563 1710v188h188v-188h-188zM268 1710v188h188v-188h-188z" />
    <glyph glyph-name="multiply" unicode="&#xd7;" horiz-adv-x="976" 
d="M235 337l-151 147l251 238l-251 238l151 147l253 -240l253 240l151 -147l-251 -238l251 -238l-151 -147l-253 240z" />
    <glyph glyph-name="Oslash" unicode="&#xd8;" 
d="M508 -19q-221 0 -318.5 89t-102.5 295q-2 118 -3 225t-1 211t1 211.5t3 224.5q5 205 102.5 293.5t318.5 88.5q217 0 314.5 -88.5t103.5 -293.5q5 -118 7 -225t2 -211.5t-2 -211.5t-7 -224q-6 -206 -103.5 -295t-314.5 -89zM508 209q74 0 106.5 32t33.5 107q3 82 5.5 160
t3.5 154.5t0 155.5l-295 -388q2 -21 2.5 -41t1.5 -41q2 -75 35 -107t107 -32zM356 745l296 391q0 29 -1 58.5t-3 58.5q-1 75 -33.5 107t-106.5 32t-107 -32t-35 -107q-4 -87 -6.5 -171t-3.5 -167.5t0 -169.5z" />
    <glyph glyph-name="Ugrave" unicode="&#xd9;" horiz-adv-x="1014" 
d="M508 -19q-223 0 -320 88.5t-100 293.5q-4 308 -4 619t4 618h278q-3 -205 -3.5 -420t0.5 -430.5t3 -419.5q0 -59 36 -90t106 -31t105 31t35 90q2 204 3.5 419.5t1 430.5t-4.5 420h278q5 -307 5 -618t-5 -619q-2 -205 -99 -293.5t-319 -88.5zM385 1680l-181 271h198
l172 -271h-189z" />
    <glyph glyph-name="Uacute" unicode="&#xda;" horiz-adv-x="1014" 
d="M508 -19q-223 0 -320 88.5t-100 293.5q-4 308 -4 619t4 618h278q-3 -205 -3.5 -420t0.5 -430.5t3 -419.5q0 -59 36 -90t106 -31t105 31t35 90q2 204 3.5 419.5t1 430.5t-4.5 420h278q5 -307 5 -618t-5 -619q-2 -205 -99 -293.5t-319 -88.5zM423 1680l190 271h197
l-199 -271h-188z" />
    <glyph glyph-name="Ucircumflex" unicode="&#xdb;" horiz-adv-x="1014" 
d="M508 -19q-223 0 -320 88.5t-100 293.5q-4 308 -4 619t4 618h278q-3 -205 -3.5 -420t0.5 -430.5t3 -419.5q0 -59 36 -90t106 -31t105 31t35 90q2 204 3.5 419.5t1 430.5t-4.5 420h278q5 -307 5 -618t-5 -619q-2 -205 -99 -293.5t-319 -88.5zM246 1682l175 271h168
l175 -271h-186l-73 126l-74 -126h-185z" />
    <glyph glyph-name="Udieresis" unicode="&#xdc;" horiz-adv-x="1014" 
d="M508 -19q-223 0 -320 88.5t-100 293.5q-4 308 -4 619t4 618h278q-3 -205 -3.5 -420t0.5 -430.5t3 -419.5q0 -59 36 -90t106 -31t105 31t35 90q2 204 3.5 419.5t1 430.5t-4.5 420h278q5 -307 5 -618t-5 -619q-2 -205 -99 -293.5t-319 -88.5zM561 1710v188h188v-188h-188z
M266 1710v188h188v-188h-188z" />
    <glyph glyph-name="Yacute" unicode="&#xdd;" horiz-adv-x="897" 
d="M309 0v508h-32l-259 1092h284l84 -398l34 -468h57l34 468l84 398h284l-260 -1092h-31v-508h-279zM364 1680l190 271h197l-199 -271h-188z" />
    <glyph glyph-name="Thorn" unicode="&#xde;" horiz-adv-x="940" 
d="M84 0v1600h278v-248h124q213 0 307.5 -86t100.5 -284q4 -91 4 -168.5t-4 -165.5q-6 -197 -101 -283.5t-307 -86.5h-124v-278h-278zM362 524h124q64 0 95.5 28t34.5 82t4 117.5t0 127t-4 117.5q-3 55 -34.5 83t-95.5 28h-124v-583z" />
    <glyph glyph-name="germandbls" unicode="&#xdf;" horiz-adv-x="992" 
d="M84 0v1218q0 120 36.5 205t128 131t256.5 46q221 0 316.5 -86.5t96.5 -286.5q0 -38 0.5 -64t-2.5 -70q-7 -108 -50 -169.5t-132 -89.5v-42q98 -27 145 -91t51 -178q1 -31 1.5 -50t0.5 -40.5t-2 -59.5q-7 -145 -57 -226t-143 -114t-228 -33h-41v245h41q69 0 106 33.5
t38 98.5q1 35 1 67t-1 66q-1 109 -40 144.5t-107 35.5h-27v246h18q71 0 108 42.5t38 121.5q0 37 -0.5 58.5l-1 43t-0.5 58.5q0 56 -33.5 84.5t-102.5 28.5q-68 0 -98 -31.5t-31 -81.5v-1260h-285z" />
    <glyph glyph-name="agrave" unicode="&#xe0;" horiz-adv-x="966" 
d="M339 -15q-136 0 -202 63.5t-79 217.5q-1 18 -1 45t1 43q6 81 37.5 138.5t98 101t177.5 82.5q57 21 110 35.5t120 30.5v162q0 55 -29 81t-92 26q-55 0 -82.5 -22t-30.5 -72q-1 -14 -1.5 -52t0 -75t1.5 -45h-270q-1 16 -2 58t0 82q5 116 43 190t122 109t229 35
q147 0 231 -38.5t119 -122t35 -217.5l-2 -841h-277v127h-42q-35 -73 -81 -107.5t-133 -34.5zM453 184q46 0 84.5 23.5t59.5 63.5l2 289q-40 -9 -81 -21t-78 -28q-63 -26 -81 -67.5t-21 -89.5q-1 -25 -1 -36t1 -32q5 -49 34 -75.5t81 -26.5zM364 1280l-181 271h198l172 -271
h-189z" />
    <glyph glyph-name="aacute" unicode="&#xe1;" horiz-adv-x="966" 
d="M339 -15q-136 0 -202 63.5t-79 217.5q-1 18 -1 45t1 43q6 81 37.5 138.5t98 101t177.5 82.5q57 21 110 35.5t120 30.5v162q0 55 -29 81t-92 26q-55 0 -82.5 -22t-30.5 -72q-1 -14 -1.5 -52t0 -75t1.5 -45h-270q-1 16 -2 58t0 82q5 116 43 190t122 109t229 35
q147 0 231 -38.5t119 -122t35 -217.5l-2 -841h-277v127h-42q-35 -73 -81 -107.5t-133 -34.5zM453 184q46 0 84.5 23.5t59.5 63.5l2 289q-40 -9 -81 -21t-78 -28q-63 -26 -81 -67.5t-21 -89.5q-1 -25 -1 -36t1 -32q5 -49 34 -75.5t81 -26.5zM402 1280l190 271h197l-199 -271
h-188z" />
    <glyph glyph-name="acircumflex" unicode="&#xe2;" horiz-adv-x="966" 
d="M339 -15q-136 0 -202 63.5t-79 217.5q-1 18 -1 45t1 43q6 81 37.5 138.5t98 101t177.5 82.5q57 21 110 35.5t120 30.5v162q0 55 -29 81t-92 26q-55 0 -82.5 -22t-30.5 -72q-1 -14 -1.5 -52t0 -75t1.5 -45h-270q-1 16 -2 58t0 82q5 116 43 190t122 109t229 35
q147 0 231 -38.5t119 -122t35 -217.5l-2 -841h-277v127h-42q-35 -73 -81 -107.5t-133 -34.5zM453 184q46 0 84.5 23.5t59.5 63.5l2 289q-40 -9 -81 -21t-78 -28q-63 -26 -81 -67.5t-21 -89.5q-1 -25 -1 -36t1 -32q5 -49 34 -75.5t81 -26.5zM225 1282l175 271h168l175 -271
h-186l-73 126l-74 -126h-185z" />
    <glyph glyph-name="atilde" unicode="&#xe3;" horiz-adv-x="966" 
d="M339 -15q-136 0 -202 63.5t-79 217.5q-1 18 -1 45t1 43q6 81 37.5 138.5t98 101t177.5 82.5q57 21 110 35.5t120 30.5v162q0 55 -29 81t-92 26q-55 0 -82.5 -22t-30.5 -72q-1 -14 -1.5 -52t0 -75t1.5 -45h-270q-1 16 -2 58t0 82q5 116 43 190t122 109t229 35
q147 0 231 -38.5t119 -122t35 -217.5l-2 -841h-277v127h-42q-35 -73 -81 -107.5t-133 -34.5zM453 184q46 0 84.5 23.5t59.5 63.5l2 289q-40 -9 -81 -21t-78 -28q-63 -26 -81 -67.5t-21 -89.5q-1 -25 -1 -36t1 -32q5 -49 34 -75.5t81 -26.5zM645 1493h110q-6 -112 -47 -161.5
t-116 -49.5q-47 0 -74.5 14t-46.5 32.5t-37.5 33t-46.5 14.5q-31 0 -42.5 -20.5t-16.5 -60.5h-110q9 116 49.5 169t119.5 53q47 0 74 -14t44.5 -32.5t36 -32t48.5 -13.5t42 17.5t13 50.5z" />
    <glyph glyph-name="adieresis" unicode="&#xe4;" horiz-adv-x="966" 
d="M339 -15q-136 0 -202 63.5t-79 217.5q-1 18 -1 45t1 43q6 81 37.5 138.5t98 101t177.5 82.5q57 21 110 35.5t120 30.5v162q0 55 -29 81t-92 26q-55 0 -82.5 -22t-30.5 -72q-1 -14 -1.5 -52t0 -75t1.5 -45h-270q-1 16 -2 58t0 82q5 116 43 190t122 109t229 35
q147 0 231 -38.5t119 -122t35 -217.5l-2 -841h-277v127h-42q-35 -73 -81 -107.5t-133 -34.5zM453 184q46 0 84.5 23.5t59.5 63.5l2 289q-40 -9 -81 -21t-78 -28q-63 -26 -81 -67.5t-21 -89.5q-1 -25 -1 -36t1 -32q5 -49 34 -75.5t81 -26.5zM540 1310v188h188v-188h-188z
M245 1310v188h188v-188h-188z" />
    <glyph glyph-name="aring" unicode="&#xe5;" horiz-adv-x="966" 
d="M339 -15q-136 0 -202 63.5t-79 217.5q-1 18 -1 45t1 43q6 81 37.5 138.5t98 101t177.5 82.5q57 21 110 35.5t120 30.5v162q0 55 -29 81t-92 26q-55 0 -82.5 -22t-30.5 -72q-1 -14 -1.5 -52t0 -75t1.5 -45h-270q-1 16 -2 58t0 82q5 116 43 190t122 109t229 35
q147 0 231 -38.5t119 -122t35 -217.5l-2 -841h-277v127h-42q-35 -73 -81 -107.5t-133 -34.5zM453 184q46 0 84.5 23.5t59.5 63.5l2 289q-40 -9 -81 -21t-78 -28q-63 -26 -81 -67.5t-21 -89.5q-1 -25 -1 -36t1 -32q5 -49 34 -75.5t81 -26.5zM487 1270q-85 0 -145.5 61
t-60.5 146t60.5 145.5t145.5 60.5q86 0 146.5 -60.5t60.5 -145.5t-60.5 -146t-146.5 -61zM487 1415q27 0 44.5 18t17.5 44t-18 43.5t-44 17.5q-25 0 -43 -17.5t-18 -43.5t18 -44t43 -18z" />
    <glyph glyph-name="ae" unicode="&#xe6;" horiz-adv-x="1418" 
d="M329 -15q-119 0 -189.5 63t-81.5 216q-1 24 -1 47t1 43q10 121 82.5 192t220.5 125q56 20 108 35t106 29v57.5v57v57.5q0 25 -6 49t-28 39.5t-70 15.5q-56 0 -77 -22t-24 -73q-1 -20 -1.5 -53.5t0 -66t1.5 -51.5h-275q-1 9 -1.5 35.5t-0.5 56.5t1 49q4 116 42.5 189.5
t121 108.5t220.5 35q82 0 142.5 -12t101.5 -37q48 25 109.5 37t138.5 12q196 0 285.5 -77.5t98.5 -256.5q0 -18 1 -56t1 -86t-1 -97.5t-3 -90.5h-498v-130.5v-131.5q0 -57 30.5 -80t89.5 -23q62 0 82 27t21 74q3 54 3.5 87.5t-1.5 80.5h273q2 -13 3 -58.5t-1 -78.5
q-9 -182 -97.5 -261.5t-282.5 -79.5q-134 0 -221 35t-131 111h-23q-35 -75 -109 -108.5t-161 -33.5zM445 184q28 0 58 13t51 56.5t23 133.5q0 33 -1 77t-1 89q-34 -7 -72.5 -19t-69.5 -27q-54 -25 -74 -64t-25 -89q-1 -19 -1 -35t3 -34q9 -48 33 -74.5t76 -26.5zM854 748
h225q0 40 -0.5 88.5t-1.5 81.5q0 49 -26 71t-81 22q-58 0 -87 -22t-29 -73v-83v-85z" />
    <glyph glyph-name="ccedilla" unicode="&#xe7;" horiz-adv-x="936" 
d="M592 745q1 22 1.5 54t0 64.5t-1.5 52.5q-2 48 -25.5 71.5t-88.5 23.5q-64 0 -89.5 -22t-27.5 -73q-3 -90 -4.5 -168t-1.5 -151t1.5 -147t4.5 -159q2 -54 29.5 -78t90.5 -24q64 0 86.5 26t24.5 78q2 31 2 69.5t-2 96.5h276q3 -16 3.5 -59.5t-1.5 -77.5
q-8 -182 -98.5 -261.5t-290.5 -79.5q-211 0 -301.5 81t-101.5 260q-3 50 -4 126.5t-1 159.5t1 154.5t4 111.5q12 186 105.5 265.5t294.5 79.5q202 0 293 -77.5t99 -256.5q2 -34 1.5 -80.5t-3.5 -59.5h-276zM241 -312v133h61q61 0 86 25t17 82l-15 90h145l14 -90
q18 -127 -41.5 -183.5t-204.5 -56.5h-62z" />
    <glyph glyph-name="egrave" unicode="&#xe8;" horiz-adv-x="935" 
d="M482 -19q-212 0 -302.5 81t-101.5 260q-3 51 -4 127t-1 159t1 154.5t4 111.5q12 186 105.5 265.5t294.5 79.5q202 0 293 -78t100 -256q1 -24 1.5 -80.5t0 -124.5t-3.5 -127h-514q0 -62 1.5 -126.5t4.5 -135.5q2 -54 29.5 -77.5t90.5 -23.5q60 0 84 23.5t27 79.5
q2 30 2.5 69.5t-2.5 96.5h277q2 -15 3 -59.5t-1 -77.5q-9 -182 -99.5 -261.5t-289.5 -79.5zM357 746h237q1 38 1 73t-1 61t-2 36q-3 51 -28.5 73t-85.5 22q-64 0 -89.5 -22.5t-27.5 -72.5q-1 -44 -2.5 -86.5t-1.5 -83.5zM351 1280l-181 271h198l172 -271h-189z" />
    <glyph glyph-name="eacute" unicode="&#xe9;" horiz-adv-x="935" 
d="M482 -19q-212 0 -302.5 81t-101.5 260q-3 51 -4 127t-1 159t1 154.5t4 111.5q12 186 105.5 265.5t294.5 79.5q202 0 293 -78t100 -256q1 -24 1.5 -80.5t0 -124.5t-3.5 -127h-514q0 -62 1.5 -126.5t4.5 -135.5q2 -54 29.5 -77.5t90.5 -23.5q60 0 84 23.5t27 79.5
q2 30 2.5 69.5t-2.5 96.5h277q2 -15 3 -59.5t-1 -77.5q-9 -182 -99.5 -261.5t-289.5 -79.5zM357 746h237q1 38 1 73t-1 61t-2 36q-3 51 -28.5 73t-85.5 22q-64 0 -89.5 -22.5t-27.5 -72.5q-1 -44 -2.5 -86.5t-1.5 -83.5zM389 1280l190 271h197l-199 -271h-188z" />
    <glyph glyph-name="ecircumflex" unicode="&#xea;" horiz-adv-x="935" 
d="M482 -19q-212 0 -302.5 81t-101.5 260q-3 51 -4 127t-1 159t1 154.5t4 111.5q12 186 105.5 265.5t294.5 79.5q202 0 293 -78t100 -256q1 -24 1.5 -80.5t0 -124.5t-3.5 -127h-514q0 -62 1.5 -126.5t4.5 -135.5q2 -54 29.5 -77.5t90.5 -23.5q60 0 84 23.5t27 79.5
q2 30 2.5 69.5t-2.5 96.5h277q2 -15 3 -59.5t-1 -77.5q-9 -182 -99.5 -261.5t-289.5 -79.5zM357 746h237q1 38 1 73t-1 61t-2 36q-3 51 -28.5 73t-85.5 22q-64 0 -89.5 -22.5t-27.5 -72.5q-1 -44 -2.5 -86.5t-1.5 -83.5zM212 1282l175 271h168l175 -271h-186l-73 126
l-74 -126h-185z" />
    <glyph glyph-name="edieresis" unicode="&#xeb;" horiz-adv-x="935" 
d="M482 -19q-212 0 -302.5 81t-101.5 260q-3 51 -4 127t-1 159t1 154.5t4 111.5q12 186 105.5 265.5t294.5 79.5q202 0 293 -78t100 -256q1 -24 1.5 -80.5t0 -124.5t-3.5 -127h-514q0 -62 1.5 -126.5t4.5 -135.5q2 -54 29.5 -77.5t90.5 -23.5q60 0 84 23.5t27 79.5
q2 30 2.5 69.5t-2.5 96.5h277q2 -15 3 -59.5t-1 -77.5q-9 -182 -99.5 -261.5t-289.5 -79.5zM357 746h237q1 38 1 73t-1 61t-2 36q-3 51 -28.5 73t-85.5 22q-64 0 -89.5 -22.5t-27.5 -72.5q-1 -44 -2.5 -86.5t-1.5 -83.5zM527 1310v188h188v-188h-188zM232 1310v188h188v-188
h-188z" />
    <glyph glyph-name="igrave" unicode="&#xec;" horiz-adv-x="470" 
d="M96 0v1200h278v-1200h-278zM112 1280l-181 271h198l172 -271h-189z" />
    <glyph glyph-name="iacute" unicode="&#xed;" horiz-adv-x="470" 
d="M96 0v1200h278v-1200h-278zM150 1280l190 271h197l-199 -271h-188z" />
    <glyph glyph-name="icircumflex" unicode="&#xee;" horiz-adv-x="470" 
d="M96 0v1200h278v-1200h-278zM-27 1282l175 271h168l175 -271h-186l-73 126l-74 -126h-185z" />
    <glyph glyph-name="idieresis" unicode="&#xef;" horiz-adv-x="470" 
d="M96 0v1200h278v-1200h-278zM288 1310v188h188v-188h-188zM-7 1310v188h188v-188h-188z" />
    <glyph glyph-name="eth" unicode="&#xf0;" horiz-adv-x="995" 
d="M510 -19q-218 0 -316 88.5t-108 295.5q-3 56 -3.5 119t0 128.5t1.5 128.5q3 148 84.5 236.5t204.5 88.5q80 0 136 -29t81 -77h25q-17 56 -43.5 109t-61.5 99l-131 -60l-60 117l98 45q-35 33 -75 61t-86 52l152 236q80 -46 145.5 -97t118.5 -109l152 68l60 -118l-127 -57
q83 -124 123 -273t48 -326q2 -42 2.5 -105.5t0 -127.5t-2.5 -108q-6 -138 -49 -223t-132 -123.5t-237 -38.5zM509 208q65 0 99 26.5t37 77.5q3 75 4.5 150t0 147t-4.5 139q-3 45 -40.5 69t-103.5 24q-67 0 -100 -29.5t-35 -79.5q-1 -52 -0.5 -126t1.5 -151.5t3 -141.5
q2 -52 36.5 -78.5t102.5 -26.5z" />
    <glyph glyph-name="ntilde" unicode="&#xf1;" horiz-adv-x="1030" 
d="M96 0v1200h279v-127h54q43 71 93 108.5t145 37.5q131 0 201 -75t70 -250v-894h-278v918q-1 50 -29.5 74t-82.5 24q-48 0 -101 -24.5t-72 -66.5v-925h-279zM677 1493h110q-6 -112 -47 -161.5t-116 -49.5q-47 0 -74.5 14t-46.5 32.5t-37.5 33t-46.5 14.5q-31 0 -42.5 -20.5
t-16.5 -60.5h-110q9 116 49.5 169t119.5 53q47 0 74 -14t44.5 -32.5t36 -32t48.5 -13.5t42 17.5t13 50.5z" />
    <glyph glyph-name="ograve" unicode="&#xf2;" horiz-adv-x="974" 
d="M488 -19q-146 0 -233.5 38t-129 122.5t-48.5 222.5q-2 42 -3 104t-1 131.5t1 132.5t3 105q8 140 50 224t129 121t232 37q148 0 235 -39t127 -123t47 -220q2 -42 3.5 -105t1.5 -131.5t-1.5 -131t-3.5 -105.5q-8 -138 -48 -222.5t-127 -122.5t-234 -38zM488 189q70 0 99 27
t30 79q3 88 4.5 164.5t1.5 148t-1.5 144.5t-4.5 155q-1 51 -30.5 77.5t-98.5 26.5q-68 0 -99.5 -28.5t-33.5 -76.5q-2 -64 -3 -137.5t-1 -152.5t1.5 -159.5t4.5 -161.5q2 -52 32.5 -79t98.5 -27zM365 1280l-181 271h198l172 -271h-189z" />
    <glyph glyph-name="oacute" unicode="&#xf3;" horiz-adv-x="974" 
d="M488 -19q-146 0 -233.5 38t-129 122.5t-48.5 222.5q-2 42 -3 104t-1 131.5t1 132.5t3 105q8 140 50 224t129 121t232 37q148 0 235 -39t127 -123t47 -220q2 -42 3.5 -105t1.5 -131.5t-1.5 -131t-3.5 -105.5q-8 -138 -48 -222.5t-127 -122.5t-234 -38zM488 189q70 0 99 27
t30 79q3 88 4.5 164.5t1.5 148t-1.5 144.5t-4.5 155q-1 51 -30.5 77.5t-98.5 26.5q-68 0 -99.5 -28.5t-33.5 -76.5q-2 -64 -3 -137.5t-1 -152.5t1.5 -159.5t4.5 -161.5q2 -52 32.5 -79t98.5 -27zM403 1280l190 271h197l-199 -271h-188z" />
    <glyph glyph-name="ocircumflex" unicode="&#xf4;" horiz-adv-x="974" 
d="M488 -19q-146 0 -233.5 38t-129 122.5t-48.5 222.5q-2 42 -3 104t-1 131.5t1 132.5t3 105q8 140 50 224t129 121t232 37q148 0 235 -39t127 -123t47 -220q2 -42 3.5 -105t1.5 -131.5t-1.5 -131t-3.5 -105.5q-8 -138 -48 -222.5t-127 -122.5t-234 -38zM488 189q70 0 99 27
t30 79q3 88 4.5 164.5t1.5 148t-1.5 144.5t-4.5 155q-1 51 -30.5 77.5t-98.5 26.5q-68 0 -99.5 -28.5t-33.5 -76.5q-2 -64 -3 -137.5t-1 -152.5t1.5 -159.5t4.5 -161.5q2 -52 32.5 -79t98.5 -27zM226 1282l175 271h168l175 -271h-186l-73 126l-74 -126h-185z" />
    <glyph glyph-name="otilde" unicode="&#xf5;" horiz-adv-x="974" 
d="M488 -19q-146 0 -233.5 38t-129 122.5t-48.5 222.5q-2 42 -3 104t-1 131.5t1 132.5t3 105q8 140 50 224t129 121t232 37q148 0 235 -39t127 -123t47 -220q2 -42 3.5 -105t1.5 -131.5t-1.5 -131t-3.5 -105.5q-8 -138 -48 -222.5t-127 -122.5t-234 -38zM488 189q70 0 99 27
t30 79q3 88 4.5 164.5t1.5 148t-1.5 144.5t-4.5 155q-1 51 -30.5 77.5t-98.5 26.5q-68 0 -99.5 -28.5t-33.5 -76.5q-2 -64 -3 -137.5t-1 -152.5t1.5 -159.5t4.5 -161.5q2 -52 32.5 -79t98.5 -27zM646 1493h110q-6 -112 -47 -161.5t-116 -49.5q-47 0 -74.5 14t-46.5 32.5
t-37.5 33t-46.5 14.5q-31 0 -42.5 -20.5t-16.5 -60.5h-110q9 116 49.5 169t119.5 53q47 0 74 -14t44.5 -32.5t36 -32t48.5 -13.5t42 17.5t13 50.5z" />
    <glyph glyph-name="odieresis" unicode="&#xf6;" horiz-adv-x="974" 
d="M488 -19q-146 0 -233.5 38t-129 122.5t-48.5 222.5q-2 42 -3 104t-1 131.5t1 132.5t3 105q8 140 50 224t129 121t232 37q148 0 235 -39t127 -123t47 -220q2 -42 3.5 -105t1.5 -131.5t-1.5 -131t-3.5 -105.5q-8 -138 -48 -222.5t-127 -122.5t-234 -38zM488 189q70 0 99 27
t30 79q3 88 4.5 164.5t1.5 148t-1.5 144.5t-4.5 155q-1 51 -30.5 77.5t-98.5 26.5q-68 0 -99.5 -28.5t-33.5 -76.5q-2 -64 -3 -137.5t-1 -152.5t1.5 -159.5t4.5 -161.5q2 -52 32.5 -79t98.5 -27zM541 1310v188h188v-188h-188zM246 1310v188h188v-188h-188z" />
    <glyph glyph-name="divide" unicode="&#xf7;" horiz-adv-x="1089" 
d="M84 617v210h921v-210h-921zM438 945v208h215v-208h-215zM438 291v208h215v-208h-215z" />
    <glyph glyph-name="oslash" unicode="&#xf8;" horiz-adv-x="974" 
d="M154 338l628 657l95 -101l-712 -742zM488 -19q-146 0 -233.5 38t-129 122.5t-48.5 222.5q-2 42 -3 104t-1 131.5t1 132.5t3 105q8 140 50 224t129 121t232 37q148 0 235 -39t127 -123t47 -220q2 -42 3.5 -105t1.5 -131.5t-1.5 -131t-3.5 -105.5q-8 -138 -48 -222.5
t-127 -122.5t-234 -38zM488 189q70 0 99 27t30 79q3 88 4.5 164.5t1.5 148t-1.5 144.5t-4.5 155q-1 51 -30.5 77.5t-98.5 26.5q-68 0 -99.5 -28.5t-33.5 -76.5q-2 -64 -3 -137.5t-1 -152.5t1.5 -159.5t4.5 -161.5q2 -52 32.5 -79t98.5 -27z" />
    <glyph glyph-name="ugrave" unicode="&#xf9;" horiz-adv-x="1022" 
d="M367 -19q-128 0 -203.5 75.5t-75.5 249.5v894h280l4 -918q0 -50 24.5 -74t77.5 -24q50 0 100 24.5t69 66.5v925h284v-1200h-284v127h-38q-47 -79 -104 -112.5t-134 -33.5zM381 1280l-181 271h198l172 -271h-189z" />
    <glyph glyph-name="uacute" unicode="&#xfa;" horiz-adv-x="1022" 
d="M367 -19q-128 0 -203.5 75.5t-75.5 249.5v894h280l4 -918q0 -50 24.5 -74t77.5 -24q50 0 100 24.5t69 66.5v925h284v-1200h-284v127h-38q-47 -79 -104 -112.5t-134 -33.5zM419 1280l190 271h197l-199 -271h-188z" />
    <glyph glyph-name="ucircumflex" unicode="&#xfb;" horiz-adv-x="1022" 
d="M367 -19q-128 0 -203.5 75.5t-75.5 249.5v894h280l4 -918q0 -50 24.5 -74t77.5 -24q50 0 100 24.5t69 66.5v925h284v-1200h-284v127h-38q-47 -79 -104 -112.5t-134 -33.5zM242 1282l175 271h168l175 -271h-186l-73 126l-74 -126h-185z" />
    <glyph glyph-name="udieresis" unicode="&#xfc;" horiz-adv-x="1022" 
d="M367 -19q-128 0 -203.5 75.5t-75.5 249.5v894h280l4 -918q0 -50 24.5 -74t77.5 -24q50 0 100 24.5t69 66.5v925h284v-1200h-284v127h-38q-47 -79 -104 -112.5t-134 -33.5zM558 1310v188h188v-188h-188zM263 1310v188h188v-188h-188z" />
    <glyph glyph-name="yacute" unicode="&#xfd;" horiz-adv-x="910" 
d="M225 -420q-35 0 -75.5 4t-78.5 10v206q29 -1 76 -2.5t78 -1.5q85 0 118.5 23.5t42.5 79.5l16 101h-150l-219 1200h288l59 -547l49 -448h72l38 448l55 547h288l-213 -1279q-19 -111 -61.5 -187t-132.5 -115t-250 -39zM371 1280l190 271h197l-199 -271h-188z" />
    <glyph glyph-name="thorn" unicode="&#xfe;" horiz-adv-x="1010" 
d="M84 -400v2000h284v-527h39q44 71 92 108.5t147 37.5q127 0 197.5 -75t79.5 -250q2 -51 3 -130t1 -166t-1 -165t-3 -127q-9 -174 -86.5 -249.5t-205.5 -75.5q-72 0 -124 33.5t-100 112.5h-39v-527h-284zM517 184q55 0 87 24t35 74q5 70 7 152.5t2 169.5t-2 169.5t-7 151.5
q-3 45 -28 68t-77 23q-48 0 -97 -24.5t-69 -66.5v-650q23 -49 58.5 -70t90.5 -21z" />
    <glyph glyph-name="ydieresis" unicode="&#xff;" horiz-adv-x="910" 
d="M225 -420q-35 0 -75.5 4t-78.5 10v206q29 -1 76 -2.5t78 -1.5q85 0 118.5 23.5t42.5 79.5l16 101h-150l-219 1200h288l59 -547l49 -448h72l38 448l55 547h288l-213 -1279q-19 -111 -61.5 -187t-132.5 -115t-250 -39zM509 1310v188h188v-188h-188zM214 1310v188h188v-188
h-188z" />
    <glyph glyph-name="Amacron" unicode="&#x100;" horiz-adv-x="985" 
d="M38 0l214 1600h481l215 -1600h-286l-35 352h-269l-34 -352h-286zM384 598h217l-35 351l-27 405h-92l-27 -405zM154 1815h677v-126h-677v126z" />
    <glyph glyph-name="amacron" unicode="&#x101;" horiz-adv-x="966" 
d="M339 -15q-136 0 -202 63.5t-79 217.5q-1 18 -1 45t1 43q6 81 37.5 138.5t98 101t177.5 82.5q57 21 110 35.5t120 30.5v162q0 55 -29 81t-92 26q-55 0 -82.5 -22t-30.5 -72q-1 -14 -1.5 -52t0 -75t1.5 -45h-270q-1 16 -2 58t0 82q5 116 43 190t122 109t229 35
q147 0 231 -38.5t119 -122t35 -217.5l-2 -841h-277v127h-42q-35 -73 -81 -107.5t-133 -34.5zM453 184q46 0 84.5 23.5t59.5 63.5l2 289q-40 -9 -81 -21t-78 -28q-63 -26 -81 -67.5t-21 -89.5q-1 -25 -1 -36t1 -32q5 -49 34 -75.5t81 -26.5zM148 1415h677v-126h-677v126z" />
    <glyph glyph-name="Abreve" unicode="&#x102;" horiz-adv-x="985" 
d="M38 0l214 1600h481l215 -1600h-286l-35 352h-269l-34 -352h-286zM384 598h217l-35 351l-27 405h-92l-27 -405zM493 1670q-156 0 -229 67t-81 221h172q0 -77 32.5 -112t105.5 -35t105.5 34.5t32.5 112.5h172q-10 -154 -82.5 -221t-227.5 -67z" />
    <glyph glyph-name="abreve" unicode="&#x103;" horiz-adv-x="966" 
d="M339 -15q-136 0 -202 63.5t-79 217.5q-1 18 -1 45t1 43q6 81 37.5 138.5t98 101t177.5 82.5q57 21 110 35.5t120 30.5v162q0 55 -29 81t-92 26q-55 0 -82.5 -22t-30.5 -72q-1 -14 -1.5 -52t0 -75t1.5 -45h-270q-1 16 -2 58t0 82q5 116 43 190t122 109t229 35
q147 0 231 -38.5t119 -122t35 -217.5l-2 -841h-277v127h-42q-35 -73 -81 -107.5t-133 -34.5zM453 184q46 0 84.5 23.5t59.5 63.5l2 289q-40 -9 -81 -21t-78 -28q-63 -26 -81 -67.5t-21 -89.5q-1 -25 -1 -36t1 -32q5 -49 34 -75.5t81 -26.5zM488 1290q-156 0 -229 67t-81 221
h172q0 -77 32.5 -112t105.5 -35t105.5 34.5t32.5 112.5h172q-10 -154 -82.5 -221t-227.5 -67z" />
    <glyph glyph-name="Aogonek" unicode="&#x104;" horiz-adv-x="985" 
d="M38 0l214 1600h481l215 -1600h-286l-35 352h-269l-34 -352h-286zM384 598h217l-35 351l-27 405h-92l-27 -405zM959 -330h-62q-144 0 -204.5 56.5t-42.5 183.5l14 90h145l-14 -90q-8 -57 16.5 -82t85.5 -25h62v-133z" />
    <glyph glyph-name="aogonek" unicode="&#x105;" horiz-adv-x="966" 
d="M339 -15q-136 0 -202 63.5t-79 217.5q-1 18 -1 45t1 43q6 81 37.5 138.5t98 101t177.5 82.5q57 21 110 35.5t120 30.5v162q0 55 -29 81t-92 26q-55 0 -82.5 -22t-30.5 -72q-1 -14 -1.5 -52t0 -75t1.5 -45h-270q-1 16 -2 58t0 82q5 116 43 190t122 109t229 35
q147 0 231 -38.5t119 -122t35 -217.5l-2 -841h-277v127h-42q-35 -73 -81 -107.5t-133 -34.5zM453 184q46 0 84.5 23.5t59.5 63.5l2 289q-40 -9 -81 -21t-78 -28q-63 -26 -81 -67.5t-21 -89.5q-1 -25 -1 -36t1 -32q5 -49 34 -75.5t81 -26.5zM891 -327h-62q-144 0 -204.5 56.5
t-42.5 183.5l14 90h145l-14 -90q-8 -57 16.5 -82t85.5 -25h62v-133z" />
    <glyph glyph-name="Cacute" unicode="&#x106;" horiz-adv-x="999" 
d="M508 -19q-221 0 -318.5 88.5t-102.5 294.5q-2 115 -3 223t-1 213.5t1 214t3 225.5q3 196 104 287.5t317 91.5q211 0 310.5 -93t105.5 -288q1 -36 1 -76t-1 -80t-2 -75h-278q1 39 2 81.5t1 84.5t-2 82q-1 73 -33.5 104.5t-103.5 31.5q-73 0 -106.5 -31.5t-35.5 -104.5
q-3 -117 -5 -230.5t-2 -225t2 -223.5t5 -229q2 -75 35.5 -107t106.5 -32q76 0 109.5 32t35.5 107q2 43 2.5 81t0 79t-2.5 90h279q2 -56 2 -118.5t-2 -114.5q-6 -206 -104 -294.5t-320 -88.5zM415 1680l190 271h197l-199 -271h-188z" />
    <glyph glyph-name="cacute" unicode="&#x107;" horiz-adv-x="936" 
d="M592 745q1 22 1.5 54t0 64.5t-1.5 52.5q-2 48 -25.5 71.5t-88.5 23.5q-64 0 -89.5 -22t-27.5 -73q-3 -90 -4.5 -168t-1.5 -151t1.5 -147t4.5 -159q2 -54 29.5 -78t90.5 -24q64 0 86.5 26t24.5 78q2 31 2 69.5t-2 96.5h276q3 -16 3.5 -59.5t-1.5 -77.5
q-8 -182 -98.5 -261.5t-290.5 -79.5q-211 0 -301.5 81t-101.5 260q-3 50 -4 126.5t-1 159.5t1 154.5t4 111.5q12 186 105.5 265.5t294.5 79.5q202 0 293 -77.5t99 -256.5q2 -34 1.5 -80.5t-3.5 -59.5h-276zM392 1280l190 271h197l-199 -271h-188z" />
    <glyph glyph-name="Ccircumflex" unicode="&#x108;" horiz-adv-x="999" 
d="M508 -19q-221 0 -318.5 88.5t-102.5 294.5q-2 115 -3 223t-1 213.5t1 214t3 225.5q3 196 104 287.5t317 91.5q211 0 310.5 -93t105.5 -288q1 -36 1 -76t-1 -80t-2 -75h-278q1 39 2 81.5t1 84.5t-2 82q-1 73 -33.5 104.5t-103.5 31.5q-73 0 -106.5 -31.5t-35.5 -104.5
q-3 -117 -5 -230.5t-2 -225t2 -223.5t5 -229q2 -75 35.5 -107t106.5 -32q76 0 109.5 32t35.5 107q2 43 2.5 81t0 79t-2.5 90h279q2 -56 2 -118.5t-2 -114.5q-6 -206 -104 -294.5t-320 -88.5zM238 1682l175 271h168l175 -271h-186l-73 126l-74 -126h-185z" />
    <glyph glyph-name="ccircumflex" unicode="&#x109;" horiz-adv-x="936" 
d="M592 745q1 22 1.5 54t0 64.5t-1.5 52.5q-2 48 -25.5 71.5t-88.5 23.5q-64 0 -89.5 -22t-27.5 -73q-3 -90 -4.5 -168t-1.5 -151t1.5 -147t4.5 -159q2 -54 29.5 -78t90.5 -24q64 0 86.5 26t24.5 78q2 31 2 69.5t-2 96.5h276q3 -16 3.5 -59.5t-1.5 -77.5
q-8 -182 -98.5 -261.5t-290.5 -79.5q-211 0 -301.5 81t-101.5 260q-3 50 -4 126.5t-1 159.5t1 154.5t4 111.5q12 186 105.5 265.5t294.5 79.5q202 0 293 -77.5t99 -256.5q2 -34 1.5 -80.5t-3.5 -59.5h-276zM215 1282l175 271h168l175 -271h-186l-73 126l-74 -126h-185z" />
    <glyph glyph-name="Cdotaccent" unicode="&#x10a;" horiz-adv-x="999" 
d="M508 -19q-221 0 -318.5 88.5t-102.5 294.5q-2 115 -3 223t-1 213.5t1 214t3 225.5q3 196 104 287.5t317 91.5q211 0 310.5 -93t105.5 -288q1 -36 1 -76t-1 -80t-2 -75h-278q1 39 2 81.5t1 84.5t-2 82q-1 73 -33.5 104.5t-103.5 31.5q-73 0 -106.5 -31.5t-35.5 -104.5
q-3 -117 -5 -230.5t-2 -225t2 -223.5t5 -229q2 -75 35.5 -107t106.5 -32q76 0 109.5 32t35.5 107q2 43 2.5 81t0 79t-2.5 90h279q2 -56 2 -118.5t-2 -114.5q-6 -206 -104 -294.5t-320 -88.5zM405 1680v188h188v-188h-188z" />
    <glyph glyph-name="cdotaccent" unicode="&#x10b;" horiz-adv-x="936" 
d="M592 745q1 22 1.5 54t0 64.5t-1.5 52.5q-2 48 -25.5 71.5t-88.5 23.5q-64 0 -89.5 -22t-27.5 -73q-3 -90 -4.5 -168t-1.5 -151t1.5 -147t4.5 -159q2 -54 29.5 -78t90.5 -24q64 0 86.5 26t24.5 78q2 31 2 69.5t-2 96.5h276q3 -16 3.5 -59.5t-1.5 -77.5
q-8 -182 -98.5 -261.5t-290.5 -79.5q-211 0 -301.5 81t-101.5 260q-3 50 -4 126.5t-1 159.5t1 154.5t4 111.5q12 186 105.5 265.5t294.5 79.5q202 0 293 -77.5t99 -256.5q2 -34 1.5 -80.5t-3.5 -59.5h-276zM382 1280v188h188v-188h-188z" />
    <glyph glyph-name="Ccaron" unicode="&#x10c;" horiz-adv-x="999" 
d="M508 -19q-221 0 -318.5 88.5t-102.5 294.5q-2 115 -3 223t-1 213.5t1 214t3 225.5q3 196 104 287.5t317 91.5q211 0 310.5 -93t105.5 -288q1 -36 1 -76t-1 -80t-2 -75h-278q1 39 2 81.5t1 84.5t-2 82q-1 73 -33.5 104.5t-103.5 31.5q-73 0 -106.5 -31.5t-35.5 -104.5
q-3 -117 -5 -230.5t-2 -225t2 -223.5t5 -229q2 -75 35.5 -107t106.5 -32q76 0 109.5 32t35.5 107q2 43 2.5 81t0 79t-2.5 90h279q2 -56 2 -118.5t-2 -114.5q-6 -206 -104 -294.5t-320 -88.5zM424 1680l-175 271h168l82 -140l82 140h167l-174 -271h-150z" />
    <glyph glyph-name="ccaron" unicode="&#x10d;" horiz-adv-x="936" 
d="M592 745q1 22 1.5 54t0 64.5t-1.5 52.5q-2 48 -25.5 71.5t-88.5 23.5q-64 0 -89.5 -22t-27.5 -73q-3 -90 -4.5 -168t-1.5 -151t1.5 -147t4.5 -159q2 -54 29.5 -78t90.5 -24q64 0 86.5 26t24.5 78q2 31 2 69.5t-2 96.5h276q3 -16 3.5 -59.5t-1.5 -77.5
q-8 -182 -98.5 -261.5t-290.5 -79.5q-211 0 -301.5 81t-101.5 260q-3 50 -4 126.5t-1 159.5t1 154.5t4 111.5q12 186 105.5 265.5t294.5 79.5q202 0 293 -77.5t99 -256.5q2 -34 1.5 -80.5t-3.5 -59.5h-276zM401 1280l-175 271h168l82 -140l82 140h167l-174 -271h-150z" />
    <glyph glyph-name="Dcaron" unicode="&#x10e;" horiz-adv-x="1005" 
d="M102 0v1600h406q215 0 310.5 -90.5t99.5 -297.5q3 -147 4 -279.5t0 -264t-4 -278.5q-4 -208 -99.5 -299t-309.5 -91h-407zM380 246h129q65 0 97.5 28.5t33.5 83.5q3 114 4.5 224t1.5 219t-1.5 219.5t-4.5 223.5q-1 54 -34 82t-98 28h-128v-1108zM425 1680l-175 271h168
l82 -140l82 140h167l-174 -271h-150z" />
    <glyph glyph-name="dcaron" unicode="&#x10f;" horiz-adv-x="1228" 
d="M351 -19q-129 0 -197 75.5t-76 249.5q-3 55 -4 134t-1 164t1.5 162t3.5 128q8 175 78.5 250t198.5 75q97 0 146 -37.5t92 -108.5h39v527h284v-1600h-284v127h-41q-42 -70 -93.5 -108t-146.5 -38zM466 184q47 0 97 24t69 67v650q-19 43 -69 67t-97 24q-52 0 -77 -23
t-28 -68q-5 -104 -7 -216t-0.5 -221t7.5 -205q3 -52 26.5 -75.5t78.5 -23.5zM968 1264l63 338h197l-91 -338h-169z" />
    <glyph glyph-name="Dcroat" unicode="&#x110;" horiz-adv-x="1096" 
d="M85 946h504v-136h-504v136zM192 0v1600h406q215 0 311 -90.5t100 -297.5q3 -147 4 -279.5t0 -264t-4 -278.5q-4 -208 -99.5 -299t-309.5 -91h-408zM471 246h129q64 0 96.5 28.5t33.5 83.5q3 114 4.5 224t1.5 219t-1.5 219.5t-4.5 223.5q-1 54 -33.5 82t-98.5 28h-127
v-1108z" />
    <glyph glyph-name="dcroat" unicode="&#x111;" horiz-adv-x="1014" 
d="M435 1473h565v-139h-565v139zM351 -19q-129 0 -197 75.5t-76 249.5q-3 55 -4 134t-1 164t1.5 162t3.5 128q8 175 78.5 250t198.5 75q97 0 146 -37.5t92 -108.5h39v527h284v-1600h-284v127h-41q-42 -70 -93.5 -108t-146.5 -38zM466 184q47 0 97 24t69 67v650
q-19 43 -69 67t-97 24q-52 0 -77 -23t-28 -68q-5 -104 -7 -216t-0.5 -221t7.5 -205q3 -52 26.5 -75.5t78.5 -23.5z" />
    <glyph glyph-name="Emacron" unicode="&#x112;" horiz-adv-x="856" 
d="M102 0v1600h699v-246h-421v-419h401v-245h-401v-444h421v-246h-699zM113 1815h677v-126h-677v126z" />
    <glyph glyph-name="emacron" unicode="&#x113;" horiz-adv-x="935" 
d="M482 -19q-212 0 -302.5 81t-101.5 260q-3 51 -4 127t-1 159t1 154.5t4 111.5q12 186 105.5 265.5t294.5 79.5q202 0 293 -78t100 -256q1 -24 1.5 -80.5t0 -124.5t-3.5 -127h-514q0 -62 1.5 -126.5t4.5 -135.5q2 -54 29.5 -77.5t90.5 -23.5q60 0 84 23.5t27 79.5
q2 30 2.5 69.5t-2.5 96.5h277q2 -15 3 -59.5t-1 -77.5q-9 -182 -99.5 -261.5t-289.5 -79.5zM357 746h237q1 38 1 73t-1 61t-2 36q-3 51 -28.5 73t-85.5 22q-64 0 -89.5 -22.5t-27.5 -72.5q-1 -44 -2.5 -86.5t-1.5 -83.5zM135 1415h677v-126h-677v126z" />
    <glyph glyph-name="Ebreve" unicode="&#x114;" horiz-adv-x="856" 
d="M102 0v1600h699v-246h-421v-419h401v-245h-401v-444h421v-246h-699zM451 1670q-156 0 -229 67t-81 221h172q0 -77 32.5 -112t105.5 -35t105.5 34.5t32.5 112.5h172q-10 -154 -82.5 -221t-227.5 -67z" />
    <glyph glyph-name="ebreve" unicode="&#x115;" horiz-adv-x="935" 
d="M482 -19q-212 0 -302.5 81t-101.5 260q-3 51 -4 127t-1 159t1 154.5t4 111.5q12 186 105.5 265.5t294.5 79.5q202 0 293 -78t100 -256q1 -24 1.5 -80.5t0 -124.5t-3.5 -127h-514q0 -62 1.5 -126.5t4.5 -135.5q2 -54 29.5 -77.5t90.5 -23.5q60 0 84 23.5t27 79.5
q2 30 2.5 69.5t-2.5 96.5h277q2 -15 3 -59.5t-1 -77.5q-9 -182 -99.5 -261.5t-289.5 -79.5zM357 746h237q1 38 1 73t-1 61t-2 36q-3 51 -28.5 73t-85.5 22q-64 0 -89.5 -22.5t-27.5 -72.5q-1 -44 -2.5 -86.5t-1.5 -83.5zM474 1270q-156 0 -229 67t-81 221h172
q0 -77 32.5 -112t105.5 -35t105.5 34.5t32.5 112.5h172q-10 -154 -82.5 -221t-227.5 -67z" />
    <glyph glyph-name="Edotaccent" unicode="&#x116;" horiz-adv-x="856" 
d="M102 0v1600h699v-246h-421v-419h401v-245h-401v-444h421v-246h-699zM356 1680v188h188v-188h-188z" />
    <glyph glyph-name="edotaccent" unicode="&#x117;" horiz-adv-x="935" 
d="M482 -19q-212 0 -302.5 81t-101.5 260q-3 51 -4 127t-1 159t1 154.5t4 111.5q12 186 105.5 265.5t294.5 79.5q202 0 293 -78t100 -256q1 -24 1.5 -80.5t0 -124.5t-3.5 -127h-514q0 -62 1.5 -126.5t4.5 -135.5q2 -54 29.5 -77.5t90.5 -23.5q60 0 84 23.5t27 79.5
q2 30 2.5 69.5t-2.5 96.5h277q2 -15 3 -59.5t-1 -77.5q-9 -182 -99.5 -261.5t-289.5 -79.5zM357 746h237q1 38 1 73t-1 61t-2 36q-3 51 -28.5 73t-85.5 22q-64 0 -89.5 -22.5t-27.5 -72.5q-1 -44 -2.5 -86.5t-1.5 -83.5zM379 1280v188h188v-188h-188z" />
    <glyph glyph-name="Eogonek" unicode="&#x118;" horiz-adv-x="856" 
d="M102 0v1600h699v-246h-421v-419h401v-245h-401v-444h421v-246h-699zM801 -329h-62q-144 0 -204.5 56.5t-42.5 183.5l14 90h145l-14 -90q-8 -57 16.5 -82t85.5 -25h62v-133z" />
    <glyph glyph-name="eogonek" unicode="&#x119;" horiz-adv-x="935" 
d="M482 -19q-212 0 -302.5 81t-101.5 260q-3 51 -4 127t-1 159t1 154.5t4 111.5q12 186 105.5 265.5t294.5 79.5q202 0 293 -78t100 -256q1 -24 1.5 -80.5t0 -124.5t-3.5 -127h-514q0 -62 1.5 -126.5t4.5 -135.5q2 -54 29.5 -77.5t90.5 -23.5q60 0 84 23.5t27 79.5
q2 30 2.5 69.5t-2.5 96.5h277q2 -15 3 -59.5t-1 -77.5q-9 -182 -99.5 -261.5t-289.5 -79.5zM357 746h237q1 38 1 73t-1 61t-2 36q-3 51 -28.5 73t-85.5 22q-64 0 -89.5 -22.5t-27.5 -72.5q-1 -44 -2.5 -86.5t-1.5 -83.5zM899 -273h-62q-144 0 -204.5 56.5t-42.5 183.5l14 90
h145l-14 -90q-8 -57 16.5 -82t85.5 -25h62v-133z" />
    <glyph glyph-name="Ecaron" unicode="&#x11a;" horiz-adv-x="856" 
d="M102 0v1600h699v-246h-421v-419h401v-245h-401v-444h421v-246h-699zM375 1680l-175 271h168l82 -140l82 140h167l-174 -271h-150z" />
    <glyph glyph-name="ecaron" unicode="&#x11b;" horiz-adv-x="935" 
d="M482 -19q-212 0 -302.5 81t-101.5 260q-3 51 -4 127t-1 159t1 154.5t4 111.5q12 186 105.5 265.5t294.5 79.5q202 0 293 -78t100 -256q1 -24 1.5 -80.5t0 -124.5t-3.5 -127h-514q0 -62 1.5 -126.5t4.5 -135.5q2 -54 29.5 -77.5t90.5 -23.5q60 0 84 23.5t27 79.5
q2 30 2.5 69.5t-2.5 96.5h277q2 -15 3 -59.5t-1 -77.5q-9 -182 -99.5 -261.5t-289.5 -79.5zM357 746h237q1 38 1 73t-1 61t-2 36q-3 51 -28.5 73t-85.5 22q-64 0 -89.5 -22.5t-27.5 -72.5q-1 -44 -2.5 -86.5t-1.5 -83.5zM398 1280l-175 271h168l82 -140l82 140h167
l-174 -271h-150z" />
    <glyph glyph-name="Gcircumflex" unicode="&#x11c;" horiz-adv-x="1008" 
d="M510 -19q-146 0 -237 38.5t-135 123t-49 221.5q-3 92 -4.5 203.5t-1.5 228.5t1.5 227t4.5 199q6 142 50 229.5t135 127.5t236 40q212 0 308 -88t108 -293q3 -51 3 -115t-3 -116h-279q3 68 3 132.5t-3 132.5q-4 65 -35 92.5t-102 27.5q-74 0 -106 -27.5t-37 -92.5
q-5 -112 -8 -231t-3 -240t3 -240t8 -231q5 -66 37 -93.5t106 -27.5q77 0 111 27.5t40 93.5q2 27 2.5 62t0 69.5t-2.5 61.5h-117v243h388q4 -96 3.5 -203t-5.5 -199q-9 -206 -106.5 -294.5t-313.5 -88.5zM241 1682l175 271h168l175 -271h-186l-73 126l-74 -126h-185z" />
    <glyph glyph-name="gcircumflex" unicode="&#x11d;" 
d="M458 -394q-160 0 -256 47.5t-116 134.5q-3 14 -4.5 34.5t0.5 35.5q8 53 42 87t92 41v40q-55 9 -87 38.5t-39 76.5q-3 20 -2 33t2 28q5 44 45.5 70.5t103.5 35.5v40q-84 37 -125 112t-48 195q-2 32 -3 61t-1 56.5t1 52.5t3 49q9 123 53 199.5t130.5 111t223.5 34.5
q133 0 217.5 -32t127.5 -103h40q9 61 46 88.5t112 27.5v-211h-31q-50 0 -78.5 -22.5t-28.5 -83.5v-55v-37t0.5 -42t0 -45.5t-2.5 -48.5q-8 -124 -51 -200.5t-129 -111.5t-224 -35q-93 0 -135.5 -13.5t-42.5 -43.5v-7q0 -21 12 -33t49 -17.5t111 -6.5q207 -3 308 -64
t123 -180q3 -16 3.5 -40t-3.5 -50q-14 -89 -64 -143.5t-142.5 -79t-232.5 -24.5zM476 -203q55 0 97 8.5t67.5 25t34.5 42.5q5 16 4 30.5t-6 28.5q-8 24 -33 39.5t-66 23.5t-98 8q-75 0 -121 -17t-57 -54q-4 -16 -4 -31t4 -29q7 -25 30 -42t60.5 -25t87.5 -8zM472 516
q61 0 94.5 26.5t36.5 72.5q2 31 3.5 67.5t1.5 75.5t-1.5 78.5t-3.5 74.5q-3 48 -35.5 74t-94.5 26q-65 0 -98.5 -26.5t-36.5 -77.5q-1 -37 -2 -74.5t-1.5 -73.5t0.5 -71t3 -66q4 -51 37.5 -78.5t96.5 -27.5zM210 1282l175 271h168l175 -271h-186l-73 126l-74 -126h-185z" />
    <glyph glyph-name="Gbreve" unicode="&#x11e;" horiz-adv-x="1008" 
d="M510 -19q-146 0 -237 38.5t-135 123t-49 221.5q-3 92 -4.5 203.5t-1.5 228.5t1.5 227t4.5 199q6 142 50 229.5t135 127.5t236 40q212 0 308 -88t108 -293q3 -51 3 -115t-3 -116h-279q3 68 3 132.5t-3 132.5q-4 65 -35 92.5t-102 27.5q-74 0 -106 -27.5t-37 -92.5
q-5 -112 -8 -231t-3 -240t3 -240t8 -231q5 -66 37 -93.5t106 -27.5q77 0 111 27.5t40 93.5q2 27 2.5 62t0 69.5t-2.5 61.5h-117v243h388q4 -96 3.5 -203t-5.5 -199q-9 -206 -106.5 -294.5t-313.5 -88.5zM503 1670q-156 0 -229 67t-81 221h172q0 -77 32.5 -112t105.5 -35
t105.5 34.5t32.5 112.5h172q-10 -154 -82.5 -221t-227.5 -67z" />
    <glyph glyph-name="gbreve" unicode="&#x11f;" 
d="M458 -394q-160 0 -256 47.5t-116 134.5q-3 14 -4.5 34.5t0.5 35.5q8 53 42 87t92 41v40q-55 9 -87 38.5t-39 76.5q-3 20 -2 33t2 28q5 44 45.5 70.5t103.5 35.5v40q-84 37 -125 112t-48 195q-2 32 -3 61t-1 56.5t1 52.5t3 49q9 123 53 199.5t130.5 111t223.5 34.5
q133 0 217.5 -32t127.5 -103h40q9 61 46 88.5t112 27.5v-211h-31q-50 0 -78.5 -22.5t-28.5 -83.5v-55v-37t0.5 -42t0 -45.5t-2.5 -48.5q-8 -124 -51 -200.5t-129 -111.5t-224 -35q-93 0 -135.5 -13.5t-42.5 -43.5v-7q0 -21 12 -33t49 -17.5t111 -6.5q207 -3 308 -64
t123 -180q3 -16 3.5 -40t-3.5 -50q-14 -89 -64 -143.5t-142.5 -79t-232.5 -24.5zM476 -203q55 0 97 8.5t67.5 25t34.5 42.5q5 16 4 30.5t-6 28.5q-8 24 -33 39.5t-66 23.5t-98 8q-75 0 -121 -17t-57 -54q-4 -16 -4 -31t4 -29q7 -25 30 -42t60.5 -25t87.5 -8zM472 516
q61 0 94.5 26.5t36.5 72.5q2 31 3.5 67.5t1.5 75.5t-1.5 78.5t-3.5 74.5q-3 48 -35.5 74t-94.5 26q-65 0 -98.5 -26.5t-36.5 -77.5q-1 -37 -2 -74.5t-1.5 -73.5t0.5 -71t3 -66q4 -51 37.5 -78.5t96.5 -27.5zM473 1270q-156 0 -229 67t-81 221h172q0 -77 32.5 -112t105.5 -35
t105.5 34.5t32.5 112.5h172q-10 -154 -82.5 -221t-227.5 -67z" />
    <glyph glyph-name="Gdotaccent" unicode="&#x120;" horiz-adv-x="1008" 
d="M510 -19q-146 0 -237 38.5t-135 123t-49 221.5q-3 92 -4.5 203.5t-1.5 228.5t1.5 227t4.5 199q6 142 50 229.5t135 127.5t236 40q212 0 308 -88t108 -293q3 -51 3 -115t-3 -116h-279q3 68 3 132.5t-3 132.5q-4 65 -35 92.5t-102 27.5q-74 0 -106 -27.5t-37 -92.5
q-5 -112 -8 -231t-3 -240t3 -240t8 -231q5 -66 37 -93.5t106 -27.5q77 0 111 27.5t40 93.5q2 27 2.5 62t0 69.5t-2.5 61.5h-117v243h388q4 -96 3.5 -203t-5.5 -199q-9 -206 -106.5 -294.5t-313.5 -88.5zM407 1680v188h188v-188h-188z" />
    <glyph glyph-name="gdotaccent" unicode="&#x121;" 
d="M458 -394q-160 0 -256 47.5t-116 134.5q-3 14 -4.5 34.5t0.5 35.5q8 53 42 87t92 41v40q-55 9 -87 38.5t-39 76.5q-3 20 -2 33t2 28q5 44 45.5 70.5t103.5 35.5v40q-84 37 -125 112t-48 195q-2 32 -3 61t-1 56.5t1 52.5t3 49q9 123 53 199.5t130.5 111t223.5 34.5
q133 0 217.5 -32t127.5 -103h40q9 61 46 88.5t112 27.5v-211h-31q-50 0 -78.5 -22.5t-28.5 -83.5v-55v-37t0.5 -42t0 -45.5t-2.5 -48.5q-8 -124 -51 -200.5t-129 -111.5t-224 -35q-93 0 -135.5 -13.5t-42.5 -43.5v-7q0 -21 12 -33t49 -17.5t111 -6.5q207 -3 308 -64
t123 -180q3 -16 3.5 -40t-3.5 -50q-14 -89 -64 -143.5t-142.5 -79t-232.5 -24.5zM476 -203q55 0 97 8.5t67.5 25t34.5 42.5q5 16 4 30.5t-6 28.5q-8 24 -33 39.5t-66 23.5t-98 8q-75 0 -121 -17t-57 -54q-4 -16 -4 -31t4 -29q7 -25 30 -42t60.5 -25t87.5 -8zM472 516
q61 0 94.5 26.5t36.5 72.5q2 31 3.5 67.5t1.5 75.5t-1.5 78.5t-3.5 74.5q-3 48 -35.5 74t-94.5 26q-65 0 -98.5 -26.5t-36.5 -77.5q-1 -37 -2 -74.5t-1.5 -73.5t0.5 -71t3 -66q4 -51 37.5 -78.5t96.5 -27.5zM377 1280v188h188v-188h-188z" />
    <glyph glyph-name="uni0122" unicode="&#x122;" horiz-adv-x="1008" 
d="M510 -19q-146 0 -237 38.5t-135 123t-49 221.5q-3 92 -4.5 203.5t-1.5 228.5t1.5 227t4.5 199q6 142 50 229.5t135 127.5t236 40q212 0 308 -88t108 -293q3 -51 3 -115t-3 -116h-279q3 68 3 132.5t-3 132.5q-4 65 -35 92.5t-102 27.5q-74 0 -106 -27.5t-37 -92.5
q-5 -112 -8 -231t-3 -240t3 -240t8 -231q5 -66 37 -93.5t106 -27.5q77 0 111 27.5t40 93.5q2 27 2.5 62t0 69.5t-2.5 61.5h-117v243h388q4 -96 3.5 -203t-5.5 -199q-9 -206 -106.5 -294.5t-313.5 -88.5zM403 -444l80 150h-118v214h296v-189l-108 -175h-150z" />
    <glyph glyph-name="uni0123" unicode="&#x123;" 
d="M458 -394q-160 0 -256 47.5t-116 134.5q-3 14 -4.5 34.5t0.5 35.5q8 53 42 87t92 41v40q-55 9 -87 38.5t-39 76.5q-3 20 -2 33t2 28q5 44 45.5 70.5t103.5 35.5v40q-84 37 -125 112t-48 195q-2 32 -3 61t-1 56.5t1 52.5t3 49q9 123 53 199.5t130.5 111t223.5 34.5
q133 0 217.5 -32t127.5 -103h40q9 61 46 88.5t112 27.5v-211h-31q-50 0 -78.5 -22.5t-28.5 -83.5v-55v-37t0.5 -42t0 -45.5t-2.5 -48.5q-8 -124 -51 -200.5t-129 -111.5t-224 -35q-93 0 -135.5 -13.5t-42.5 -43.5v-7q0 -21 12 -33t49 -17.5t111 -6.5q207 -3 308 -64
t123 -180q3 -16 3.5 -40t-3.5 -50q-14 -89 -64 -143.5t-142.5 -79t-232.5 -24.5zM476 -203q55 0 97 8.5t67.5 25t34.5 42.5q5 16 4 30.5t-6 28.5q-8 24 -33 39.5t-66 23.5t-98 8q-75 0 -121 -17t-57 -54q-4 -16 -4 -31t4 -29q7 -25 30 -42t60.5 -25t87.5 -8zM472 516
q61 0 94.5 26.5t36.5 72.5q2 31 3.5 67.5t1.5 75.5t-1.5 78.5t-3.5 74.5q-3 48 -35.5 74t-94.5 26q-65 0 -98.5 -26.5t-36.5 -77.5q-1 -37 -2 -74.5t-1.5 -73.5t0.5 -71t3 -66q4 -51 37.5 -78.5t96.5 -27.5zM591 1644l-80 -150h118v-214h-296v189l108 175h150z" />
    <glyph glyph-name="Hcircumflex" unicode="&#x124;" horiz-adv-x="1015" 
d="M102 0v1600h278v-665h255v665h278v-1600h-278v690h-255v-690h-278zM246 1682l175 271h168l175 -271h-186l-73 126l-74 -126h-185z" />
    <glyph glyph-name="hcircumflex" unicode="&#x125;" horiz-adv-x="1030" 
d="M96 0v1600h284v-527h49q43 71 92 108.5t146 37.5q131 0 199 -75t69 -250l3 -894h-283l-4 918q0 50 -24.5 74t-78.5 24q-50 0 -99 -24.5t-69 -66.5v-925h-284zM267 1682l175 271h168l175 -271h-186l-73 126l-74 -126h-185z" />
    <glyph glyph-name="Hbar" unicode="&#x126;" horiz-adv-x="1084" 
d="M42 1273h1000v-136h-1000v136zM137 0v1600h279v-665h254v665h278v-1600h-278v690h-254v-690h-279z" />
    <glyph glyph-name="hbar" unicode="&#x127;" horiz-adv-x="1030" 
d="M96 0v1600h284v-527h49q43 71 92 108.5t146 37.5q131 0 199 -75t69 -250l3 -894h-283l-4 918q0 50 -24.5 74t-78.5 24q-50 0 -99 -24.5t-69 -66.5v-925h-284zM18 1433h567v-139h-567v139z" />
    <glyph glyph-name="Itilde" unicode="&#x128;" horiz-adv-x="482" 
d="M102 0v1600h278v-1600h-278zM400 1893h110q-6 -112 -47 -161.5t-116 -49.5q-47 0 -74.5 14t-46.5 32.5t-37.5 33t-46.5 14.5q-31 0 -42.5 -20.5t-16.5 -60.5h-110q9 116 49.5 169t119.5 53q47 0 74 -14t44.5 -32.5t36 -32t48.5 -13.5t42 17.5t13 50.5z" />
    <glyph glyph-name="itilde" unicode="&#x129;" horiz-adv-x="470" 
d="M96 0v1200h278v-1200h-278zM394 1493h110q-6 -112 -47 -161.5t-116 -49.5q-47 0 -74.5 14t-46.5 32.5t-37.5 33t-46.5 14.5q-31 0 -42.5 -20.5t-16.5 -60.5h-110q9 116 49.5 169t119.5 53q47 0 74 -14t44.5 -32.5t36 -32t48.5 -13.5t42 17.5t13 50.5z" />
    <glyph glyph-name="Imacron" unicode="&#x12a;" horiz-adv-x="482" 
d="M102 0v1600h278v-1600h-278zM-97 1815h677v-126h-677v126z" />
    <glyph glyph-name="imacron" unicode="&#x12b;" horiz-adv-x="470" 
d="M96 0v1200h278v-1200h-278zM-103 1415h677v-126h-677v126z" />
    <glyph glyph-name="Ibreve" unicode="&#x12c;" horiz-adv-x="482" 
d="M102 0v1600h278v-1600h-278zM241 1670q-156 0 -229 67t-81 221h172q0 -77 32.5 -112t105.5 -35t105.5 34.5t32.5 112.5h172q-10 -154 -82.5 -221t-227.5 -67z" />
    <glyph glyph-name="ibreve" unicode="&#x12d;" horiz-adv-x="470" 
d="M96 0v1200h278v-1200h-278zM235 1270q-156 0 -229 67t-81 221h172q0 -77 32.5 -112t105.5 -35t105.5 34.5t32.5 112.5h172q-10 -154 -82.5 -221t-227.5 -67z" />
    <glyph glyph-name="Iogonek" unicode="&#x12e;" horiz-adv-x="482" 
d="M102 0v1600h278v-1600h-278zM397 -330h-62q-144 0 -204.5 56.5t-42.5 183.5l14 90h145l-14 -90q-8 -57 16.5 -82t85.5 -25h62v-133z" />
    <glyph glyph-name="iogonek" unicode="&#x12f;" horiz-adv-x="446" 
d="M80 1384v216h286v-216h-286zM96 0v1200h278v-1200h-278zM379 -329h-62q-144 0 -204.5 56t-42.5 183l14 90h145l-15 -90q-7 -57 17.5 -81.5t85.5 -24.5h62v-133z" />
    <glyph glyph-name="Idotaccent" unicode="&#x130;" horiz-adv-x="482" 
d="M102 0v1600h278v-1600h-278zM146 1680v188h188v-188h-188z" />
    <glyph glyph-name="dotlessi" unicode="&#x131;" horiz-adv-x="470" 
d="M96 0v1200h278v-1200h-278z" />
    <glyph glyph-name="Jcircumflex" unicode="&#x134;" horiz-adv-x="933" 
d="M440 -19q-138 0 -224 38.5t-127.5 123t-45.5 221.5q-1 53 -1 116t1 117h262q-1 -39 -1.5 -86.5t0 -94.5t1.5 -86q2 -66 33.5 -93.5t101.5 -27.5t100.5 27.5t30.5 93.5v1270h278v-1236q0 -206 -94.5 -294.5t-314.5 -88.5zM233 1682l175 271h168l175 -271h-186l-73 126
l-74 -126h-185z" />
    <glyph glyph-name="jcircumflex" unicode="&#x135;" horiz-adv-x="477" 
d="M-30 -424q-36 0 -78.5 4t-79.5 10v206q29 -1 76.5 -2.5t80.5 -1.5q64 0 95.5 26t31.5 74v1308h285v-1282q0 -183 -101.5 -262.5t-309.5 -79.5zM-22 1282l175 271h168l175 -271h-186l-73 126l-74 -126h-185z" />
    <glyph glyph-name="uni0136" unicode="&#x136;" horiz-adv-x="1006" 
d="M102 0v1600h296l-3 -386l-32 -375h69l103 380l139 381h304l-261 -667l275 -933h-282l-185 646l-139 -284v-362h-284zM431 -444l80 150h-118v214h296v-189l-108 -175h-150z" />
    <glyph glyph-name="uni0137" unicode="&#x137;" horiz-adv-x="922" 
d="M96 0v1600h264v-306l-33 -561h45l100 260l116 207h291l-256 -454l303 -746h-290l-191 472l-78 -118v-354h-271zM390 -444l80 150h-118v214h296v-189l-108 -175h-150z" />
    <glyph glyph-name="kgreenlandic" unicode="&#x138;" horiz-adv-x="986" 
d="M96 0v1200h264v-122l-33 -382h45l99 251l148 253h293l-289 -491l303 -709h-290l-187 434l-82 -132v-302h-271z" />
    <glyph glyph-name="Lacute" unicode="&#x139;" horiz-adv-x="795" 
d="M102 0v1600h278v-1354h390v-246h-668zM358 1680l190 271h197l-199 -271h-188z" />
    <glyph glyph-name="lacute" unicode="&#x13a;" horiz-adv-x="470" 
d="M96 0v1600h278v-1600h-278zM150 1680l190 271h197l-199 -271h-188z" />
    <glyph glyph-name="uni013B" unicode="&#x13b;" horiz-adv-x="795" 
d="M102 0v1600h278v-1354h390v-246h-668zM336 -444l80 150h-118v214h296v-189l-108 -175h-150z" />
    <glyph glyph-name="uni013C" unicode="&#x13c;" horiz-adv-x="470" 
d="M96 0v1600h278v-1600h-278zM136 -444l80 150h-118v214h296v-189l-108 -175h-150z" />
    <glyph glyph-name="Lcaron" unicode="&#x13d;" horiz-adv-x="795" 
d="M102 0v1600h278v-1354h390v-246h-668zM508 1262l63 338h197l-91 -338h-169z" />
    <glyph glyph-name="lcaron" unicode="&#x13e;" horiz-adv-x="689" 
d="M96 0v1600h278v-1600h-278zM430 1262l63 338h197l-91 -338h-169z" />
    <glyph glyph-name="Ldot" unicode="&#x13f;" horiz-adv-x="795" 
d="M102 0v1600h278v-1354h390v-246h-668zM561 736v206h206v-206h-206z" />
    <glyph glyph-name="ldot" unicode="&#x140;" horiz-adv-x="684" 
d="M96 0v1600h278v-1600h-278zM451 734v206h206v-206h-206z" />
    <glyph glyph-name="Lslash" unicode="&#x141;" horiz-adv-x="923" 
d="M230 0v441l-34 -78h-194l228 385v852h278v-477l36 77h211l-247 -414v-540h390v-246h-668z" />
    <glyph glyph-name="lslash" unicode="&#x142;" horiz-adv-x="754" 
d="M223 0v431l-29 -68h-194l223 378v859h279v-487l40 87h212l-252 -423v-777h-279z" />
    <glyph glyph-name="Nacute" unicode="&#x143;" horiz-adv-x="1193" 
d="M102 0v1600h464l116 -509l113 -845h89l-51 686l-22 668h280v-1600h-486l-117 531l-86 825h-93l47 -744l24 -612h-278zM510 1680l190 271h197l-199 -271h-188z" />
    <glyph glyph-name="nacute" unicode="&#x144;" horiz-adv-x="1030" 
d="M96 0v1200h279v-127h54q43 71 93 108.5t145 37.5q131 0 201 -75t70 -250v-894h-278v918q-1 50 -29.5 74t-82.5 24q-48 0 -101 -24.5t-72 -66.5v-925h-279zM433 1280l190 271h197l-199 -271h-188z" />
    <glyph glyph-name="uni0145" unicode="&#x145;" horiz-adv-x="1193" 
d="M102 0v1600h464l116 -509l113 -845h89l-51 686l-22 668h280v-1600h-486l-117 531l-86 825h-93l47 -744l24 -612h-278zM494 -444l80 150h-118v214h296v-189l-108 -175h-150z" />
    <glyph glyph-name="uni0146" unicode="&#x146;" horiz-adv-x="1030" 
d="M96 0v1200h279v-127h54q43 71 93 108.5t145 37.5q131 0 201 -75t70 -250v-894h-278v918q-1 50 -29.5 74t-82.5 24q-48 0 -101 -24.5t-72 -66.5v-925h-279zM419 -444l80 150h-118v214h296v-189l-108 -175h-150z" />
    <glyph glyph-name="Ncaron" unicode="&#x147;" horiz-adv-x="1193" 
d="M102 0v1600h464l116 -509l113 -845h89l-51 686l-22 668h280v-1600h-486l-117 531l-86 825h-93l47 -744l24 -612h-278zM519 1680l-175 271h168l82 -140l82 140h167l-174 -271h-150z" />
    <glyph glyph-name="ncaron" unicode="&#x148;" horiz-adv-x="1030" 
d="M96 0v1200h279v-127h54q43 71 93 108.5t145 37.5q131 0 201 -75t70 -250v-894h-278v918q-1 50 -29.5 74t-82.5 24q-48 0 -101 -24.5t-72 -66.5v-925h-279zM442 1280l-175 271h168l82 -140l82 140h167l-174 -271h-150z" />
    <glyph glyph-name="Eng" unicode="&#x14a;" horiz-adv-x="1193" 
d="M671 -420q-33 0 -71 4t-73 10v202q27 -1 70.5 -2.5t72.5 -1.5q78 0 128.5 23t50.5 77v274h242v-249q0 -178 -101.5 -257.5t-318.5 -79.5zM102 0v1600h464l116 -509l113 -845h89l-51 686l-22 668h280v-1600h-486l-117 531l-86 825h-93l47 -744l24 -612h-278z" />
    <glyph glyph-name="eng" unicode="&#x14b;" horiz-adv-x="1028" 
d="M493 -420q-34 0 -75.5 4t-78.5 10v202q28 -1 74.5 -2.5t77.5 -1.5q89 0 125 23.5t36 79.5v1023q0 50 -25 74t-79 24q-48 0 -98 -24.5t-70 -66.5v-925h-284v1200h284v-127h50q43 71 92.5 108.5t144.5 37.5q130 0 199.5 -74t69.5 -251v-973q0 -182 -108 -261.5t-335 -79.5z
" />
    <glyph glyph-name="Omacron" unicode="&#x14c;" 
d="M508 -19q-221 0 -318.5 89t-102.5 295q-2 118 -3 225t-1 211t1 211.5t3 224.5q5 205 102.5 293.5t318.5 88.5q217 0 314.5 -88.5t103.5 -293.5q5 -118 7 -225t2 -211.5t-2 -211.5t-7 -224q-6 -206 -103.5 -295t-314.5 -89zM508 209q74 0 106.5 32t33.5 107q5 117 7.5 229
t2.5 223.5t-2.5 224.5t-7.5 228q-1 75 -33.5 107t-106.5 32t-107 -32t-35 -107q-5 -115 -7.5 -227.5t-2.5 -224t2.5 -224t7.5 -229.5q2 -75 35 -107t107 -32zM171 1815h677v-126h-677v126z" />
    <glyph glyph-name="omacron" unicode="&#x14d;" horiz-adv-x="974" 
d="M488 -19q-146 0 -233.5 38t-129 122.5t-48.5 222.5q-2 42 -3 104t-1 131.5t1 132.5t3 105q8 140 50 224t129 121t232 37q148 0 235 -39t127 -123t47 -220q2 -42 3.5 -105t1.5 -131.5t-1.5 -131t-3.5 -105.5q-8 -138 -48 -222.5t-127 -122.5t-234 -38zM488 189q70 0 99 27
t30 79q3 88 4.5 164.5t1.5 148t-1.5 144.5t-4.5 155q-1 51 -30.5 77.5t-98.5 26.5q-68 0 -99.5 -28.5t-33.5 -76.5q-2 -64 -3 -137.5t-1 -152.5t1.5 -159.5t4.5 -161.5q2 -52 32.5 -79t98.5 -27zM149 1415h677v-126h-677v126z" />
    <glyph glyph-name="Obreve" unicode="&#x14e;" 
d="M508 -19q-221 0 -318.5 89t-102.5 295q-2 118 -3 225t-1 211t1 211.5t3 224.5q5 205 102.5 293.5t318.5 88.5q217 0 314.5 -88.5t103.5 -293.5q5 -118 7 -225t2 -211.5t-2 -211.5t-7 -224q-6 -206 -103.5 -295t-314.5 -89zM508 209q74 0 106.5 32t33.5 107q5 117 7.5 229
t2.5 223.5t-2.5 224.5t-7.5 228q-1 75 -33.5 107t-106.5 32t-107 -32t-35 -107q-5 -115 -7.5 -227.5t-2.5 -224t2.5 -224t7.5 -229.5q2 -75 35 -107t107 -32zM510 1670q-156 0 -229 67t-81 221h172q0 -77 32.5 -112t105.5 -35t105.5 34.5t32.5 112.5h172
q-10 -154 -82.5 -221t-227.5 -67z" />
    <glyph glyph-name="obreve" unicode="&#x14f;" horiz-adv-x="974" 
d="M488 -19q-146 0 -233.5 38t-129 122.5t-48.5 222.5q-2 42 -3 104t-1 131.5t1 132.5t3 105q8 140 50 224t129 121t232 37q148 0 235 -39t127 -123t47 -220q2 -42 3.5 -105t1.5 -131.5t-1.5 -131t-3.5 -105.5q-8 -138 -48 -222.5t-127 -122.5t-234 -38zM488 189q70 0 99 27
t30 79q3 88 4.5 164.5t1.5 148t-1.5 144.5t-4.5 155q-1 51 -30.5 77.5t-98.5 26.5q-68 0 -99.5 -28.5t-33.5 -76.5q-2 -64 -3 -137.5t-1 -152.5t1.5 -159.5t4.5 -161.5q2 -52 32.5 -79t98.5 -27zM488 1270q-156 0 -229 67t-81 221h172q0 -77 32.5 -112t105.5 -35t105.5 34.5
t32.5 112.5h172q-10 -154 -82.5 -221t-227.5 -67z" />
    <glyph glyph-name="Ohungarumlaut" unicode="&#x150;" 
d="M508 -19q-221 0 -318.5 89t-102.5 295q-2 118 -3 225t-1 211t1 211.5t3 224.5q5 205 102.5 293.5t318.5 88.5q217 0 314.5 -88.5t103.5 -293.5q5 -118 7 -225t2 -211.5t-2 -211.5t-7 -224q-6 -206 -103.5 -295t-314.5 -89zM508 209q74 0 106.5 32t33.5 107q5 117 7.5 229
t2.5 223.5t-2.5 224.5t-7.5 228q-1 75 -33.5 107t-106.5 32t-107 -32t-35 -107q-5 -115 -7.5 -227.5t-2.5 -224t2.5 -224t7.5 -229.5q2 -75 35 -107t107 -32zM271 1682l224 272h192l-225 -272h-191zM561 1682l225 272h191l-224 -272h-192z" />
    <glyph glyph-name="ohungarumlaut" unicode="&#x151;" horiz-adv-x="974" 
d="M488 -19q-146 0 -233.5 38t-129 122.5t-48.5 222.5q-2 42 -3 104t-1 131.5t1 132.5t3 105q8 140 50 224t129 121t232 37q148 0 235 -39t127 -123t47 -220q2 -42 3.5 -105t1.5 -131.5t-1.5 -131t-3.5 -105.5q-8 -138 -48 -222.5t-127 -122.5t-234 -38zM488 189q70 0 99 27
t30 79q3 88 4.5 164.5t1.5 148t-1.5 144.5t-4.5 155q-1 51 -30.5 77.5t-98.5 26.5q-68 0 -99.5 -28.5t-33.5 -76.5q-2 -64 -3 -137.5t-1 -152.5t1.5 -159.5t4.5 -161.5q2 -52 32.5 -79t98.5 -27zM249 1282l224 272h192l-225 -272h-191zM539 1282l225 272h191l-224 -272h-192
z" />
    <glyph glyph-name="OE" unicode="&#x152;" horiz-adv-x="1411" 
d="M508 -19q-221 0 -318.5 89t-102.5 295q-2 118 -3 225t-1 211.5t1 211.5t3 224q5 205 102.5 293.5t318.5 88.5q109 0 184 -22l2 3h662v-246h-420v-419h400v-245h-400v-444h420v-246h-664l-1 3q-73 -22 -183 -22zM508 209q74 0 106.5 32t33.5 107q1 26 2 81.5t1.5 130
t1 158t0 166.5t-1 157.5t-1.5 130t-2 81.5q-1 75 -33.5 107t-106.5 32t-107 -32t-35 -107q-5 -115 -7.5 -227.5t-2.5 -224t2.5 -224t7.5 -229.5q2 -75 35 -107t107 -32z" />
    <glyph glyph-name="oe" unicode="&#x153;" horiz-adv-x="1488" 
d="M488 -19q-146 0 -233.5 38t-129 122.5t-48.5 222.5q-2 42 -3 104t-1 131.5t1 132.5t3 105q8 140 50 224t129 121t232 37q148 0 235 -39t127 -123t47 -220q2 -42 3.5 -105t1.5 -131.5t-1.5 -131t-3.5 -105.5q-8 -138 -48 -222.5t-127 -122.5t-234 -38zM488 189q70 0 99 27
t30 79q3 88 4.5 164.5t1.5 148t-1.5 144.5t-4.5 155q-1 51 -30.5 77.5t-98.5 26.5q-68 0 -99.5 -28.5t-33.5 -76.5q-2 -64 -3 -137.5t-1 -152.5t1.5 -159.5t4.5 -161.5q2 -52 32.5 -79t98.5 -27zM1034 -19q-212 0 -302.5 81t-101.5 260q-3 51 -4 127t-1 159t1 154.5t4 111.5
q12 186 105.5 265.5t294.5 79.5q202 0 293 -78t100 -256q1 -24 1.5 -80.5t0 -124.5t-3.5 -127h-514q0 -62 1.5 -126.5t4.5 -135.5q2 -54 29.5 -77.5t90.5 -23.5q60 0 84 23.5t27 79.5q2 30 2.5 69.5t-2.5 96.5h277q2 -15 3 -59.5t-1 -77.5q-9 -182 -99.5 -261.5
t-289.5 -79.5zM909 746h237q1 38 1 73t-1 61t-2 36q-3 51 -28.5 73t-85.5 22q-64 0 -89.5 -22.5t-27.5 -72.5q-1 -44 -2.5 -86.5t-1.5 -83.5z" />
    <glyph glyph-name="Racute" unicode="&#x154;" horiz-adv-x="979" 
d="M102 0v1600h388q213 0 307.5 -86t101.5 -284q2 -62 3 -109.5t0 -94t-3 -105.5q-4 -125 -42 -204t-119 -120l184 -597h-295l-151 551h-96v-551h-278zM380 796h110q65 0 96.5 28.5t34.5 82.5q3 55 4 111.5t0 113.5t-4 112q-3 54 -34.5 82t-96.5 28h-110v-558zM392 1680
l190 271h197l-199 -271h-188z" />
    <glyph glyph-name="racute" unicode="&#x155;" horiz-adv-x="718" 
d="M96 0v1200h285v-145h51q13 86 60 119t122 33q25 0 50 -1.5t40 -3.5v-212h-87q-103 0 -161.5 -29.5t-74.5 -101.5v-859h-285zM309 1280l190 271h197l-199 -271h-188z" />
    <glyph glyph-name="uni0156" unicode="&#x156;" horiz-adv-x="979" 
d="M102 0v1600h388q213 0 307.5 -86t101.5 -284q2 -62 3 -109.5t0 -94t-3 -105.5q-4 -125 -42 -204t-119 -120l184 -597h-295l-151 551h-96v-551h-278zM380 796h110q65 0 96.5 28.5t34.5 82.5q3 55 4 111.5t0 113.5t-4 112q-3 54 -34.5 82t-96.5 28h-110v-558zM404 -444
l80 150h-118v214h296v-189l-108 -175h-150z" />
    <glyph glyph-name="uni0157" unicode="&#x157;" horiz-adv-x="718" 
d="M96 0v1200h285v-145h51q13 86 60 119t122 33q25 0 50 -1.5t40 -3.5v-212h-87q-103 0 -161.5 -29.5t-74.5 -101.5v-859h-285zM139 -444l80 150h-118v214h296v-189l-108 -175h-150z" />
    <glyph glyph-name="Rcaron" unicode="&#x158;" horiz-adv-x="979" 
d="M102 0v1600h388q213 0 307.5 -86t101.5 -284q2 -62 3 -109.5t0 -94t-3 -105.5q-4 -125 -42 -204t-119 -120l184 -597h-295l-151 551h-96v-551h-278zM380 796h110q65 0 96.5 28.5t34.5 82.5q3 55 4 111.5t0 113.5t-4 112q-3 54 -34.5 82t-96.5 28h-110v-558zM401 1680
l-175 271h168l82 -140l82 140h167l-174 -271h-150z" />
    <glyph glyph-name="rcaron" unicode="&#x159;" horiz-adv-x="718" 
d="M96 0v1200h285v-145h51q13 86 60 119t122 33q25 0 50 -1.5t40 -3.5v-212h-87q-103 0 -161.5 -29.5t-74.5 -101.5v-859h-285zM318 1280l-175 271h168l82 -140l82 140h167l-174 -271h-150z" />
    <glyph glyph-name="Sacute" unicode="&#x15a;" horiz-adv-x="979" 
d="M491 -19q-215 0 -311 88.5t-105 294.5q-1 36 -1 76t2 80.5t6 76.5h263q-4 -76 -5 -148.5t5 -135.5q4 -51 41 -77.5t105 -26.5q64 0 99 26.5t41 77.5q4 36 5 72t-0.5 72t-4.5 71q-4 48 -35 84t-82 47l-172 40q-101 23 -160 72t-85 123.5t-29 174.5q-1 47 -1 87t1 82
q6 136 50.5 220t135.5 122.5t237 38.5q212 0 308 -88t104 -293q2 -46 0.5 -110t-4.5 -121h-267q3 72 4 142t-2 140q-2 50 -38.5 76.5t-105.5 26.5q-65 0 -101.5 -26.5t-41.5 -76.5q-6 -55 -6 -110t6 -110q4 -47 27 -81.5t74 -46.5l153 -32q110 -24 176.5 -74.5t98 -127
t35.5 -179.5q1 -26 1 -54t-1 -56t-2 -54q-9 -206 -105.5 -294.5t-312.5 -88.5zM403 1680l190 271h197l-199 -271h-188z" />
    <glyph glyph-name="sacute" unicode="&#x15b;" horiz-adv-x="892" 
d="M441 -19q-196 0 -279.5 79.5t-92.5 261.5q-1 38 0 72t2 49h249q-3 -58 -2 -92t2 -60q2 -56 32 -79t89 -23q69 0 100.5 24t32.5 80v32.5v12v30.5q-1 36 -17.5 59.5t-59.5 34.5l-143 37q-94 25 -159 64t-99 98t-34 147v33.5v30.5q1 186 89 266.5t303 80.5
q195 0 278.5 -77.5t91.5 -256.5q2 -22 1 -65.5t-3 -58.5h-258q1 22 1.5 52t0 58.5t-1.5 44.5q-3 51 -26.5 73t-83.5 22q-64 0 -89 -22t-27 -73q0 -6 -1 -23t-1 -60q1 -46 18 -73t68 -39l127 -29q143 -33 214.5 -103.5t71.5 -206.5v-33.5v-33.5q-1 -179 -91.5 -256.5
t-302.5 -77.5zM360 1280l190 271h197l-199 -271h-188z" />
    <glyph glyph-name="Scircumflex" unicode="&#x15c;" horiz-adv-x="979" 
d="M491 -19q-215 0 -311 88.5t-105 294.5q-1 36 -1 76t2 80.5t6 76.5h263q-4 -76 -5 -148.5t5 -135.5q4 -51 41 -77.5t105 -26.5q64 0 99 26.5t41 77.5q4 36 5 72t-0.5 72t-4.5 71q-4 48 -35 84t-82 47l-172 40q-101 23 -160 72t-85 123.5t-29 174.5q-1 47 -1 87t1 82
q6 136 50.5 220t135.5 122.5t237 38.5q212 0 308 -88t104 -293q2 -46 0.5 -110t-4.5 -121h-267q3 72 4 142t-2 140q-2 50 -38.5 76.5t-105.5 26.5q-65 0 -101.5 -26.5t-41.5 -76.5q-6 -55 -6 -110t6 -110q4 -47 27 -81.5t74 -46.5l153 -32q110 -24 176.5 -74.5t98 -127
t35.5 -179.5q1 -26 1 -54t-1 -56t-2 -54q-9 -206 -105.5 -294.5t-312.5 -88.5zM226 1682l175 271h168l175 -271h-186l-73 126l-74 -126h-185z" />
    <glyph glyph-name="scircumflex" unicode="&#x15d;" horiz-adv-x="892" 
d="M441 -19q-196 0 -279.5 79.5t-92.5 261.5q-1 38 0 72t2 49h249q-3 -58 -2 -92t2 -60q2 -56 32 -79t89 -23q69 0 100.5 24t32.5 80v32.5v12v30.5q-1 36 -17.5 59.5t-59.5 34.5l-143 37q-94 25 -159 64t-99 98t-34 147v33.5v30.5q1 186 89 266.5t303 80.5
q195 0 278.5 -77.5t91.5 -256.5q2 -22 1 -65.5t-3 -58.5h-258q1 22 1.5 52t0 58.5t-1.5 44.5q-3 51 -26.5 73t-83.5 22q-64 0 -89 -22t-27 -73q0 -6 -1 -23t-1 -60q1 -46 18 -73t68 -39l127 -29q143 -33 214.5 -103.5t71.5 -206.5v-33.5v-33.5q-1 -179 -91.5 -256.5
t-302.5 -77.5zM183 1282l175 271h168l175 -271h-186l-73 126l-74 -126h-185z" />
    <glyph glyph-name="Scedilla" unicode="&#x15e;" horiz-adv-x="979" 
d="M491 -19q-215 0 -311 88.5t-105 294.5q-1 36 -1 76t2 80.5t6 76.5h263q-4 -76 -5 -148.5t5 -135.5q4 -51 41 -77.5t105 -26.5q64 0 99 26.5t41 77.5q4 36 5 72t-0.5 72t-4.5 71q-4 48 -35 84t-82 47l-172 40q-101 23 -160 72t-85 123.5t-29 174.5q-1 47 -1 87t1 82
q6 136 50.5 220t135.5 122.5t237 38.5q212 0 308 -88t104 -293q2 -46 0.5 -110t-4.5 -121h-267q3 72 4 142t-2 140q-2 50 -38.5 76.5t-105.5 26.5q-65 0 -101.5 -26.5t-41.5 -76.5q-6 -55 -6 -110t6 -110q4 -47 27 -81.5t74 -46.5l153 -32q110 -24 176.5 -74.5t98 -127
t35.5 -179.5q1 -26 1 -54t-1 -56t-2 -54q-9 -206 -105.5 -294.5t-312.5 -88.5zM267 -312v133h61q61 0 86 25t17 82l-15 90h145l14 -90q18 -127 -41.5 -183.5t-204.5 -56.5h-62z" />
    <glyph glyph-name="scedilla" unicode="&#x15f;" horiz-adv-x="892" 
d="M441 -19q-196 0 -279.5 79.5t-92.5 261.5q-1 38 0 72t2 49h249q-3 -58 -2 -92t2 -60q2 -56 32 -79t89 -23q69 0 100.5 24t32.5 80v32.5v12v30.5q-1 36 -17.5 59.5t-59.5 34.5l-143 37q-94 25 -159 64t-99 98t-34 147v33.5v30.5q1 186 89 266.5t303 80.5
q195 0 278.5 -77.5t91.5 -256.5q2 -22 1 -65.5t-3 -58.5h-258q1 22 1.5 52t0 58.5t-1.5 44.5q-3 51 -26.5 73t-83.5 22q-64 0 -89 -22t-27 -73q0 -6 -1 -23t-1 -60q1 -46 18 -73t68 -39l127 -29q143 -33 214.5 -103.5t71.5 -206.5v-33.5v-33.5q-1 -179 -91.5 -256.5
t-302.5 -77.5zM223 -312v133h61q61 0 86 25t17 82l-15 90h145l14 -90q18 -127 -41.5 -183.5t-204.5 -56.5h-62z" />
    <glyph glyph-name="Scaron" unicode="&#x160;" horiz-adv-x="979" 
d="M491 -19q-215 0 -311 88.5t-105 294.5q-1 36 -1 76t2 80.5t6 76.5h263q-4 -76 -5 -148.5t5 -135.5q4 -51 41 -77.5t105 -26.5q64 0 99 26.5t41 77.5q4 36 5 72t-0.5 72t-4.5 71q-4 48 -35 84t-82 47l-172 40q-101 23 -160 72t-85 123.5t-29 174.5q-1 47 -1 87t1 82
q6 136 50.5 220t135.5 122.5t237 38.5q212 0 308 -88t104 -293q2 -46 0.5 -110t-4.5 -121h-267q3 72 4 142t-2 140q-2 50 -38.5 76.5t-105.5 26.5q-65 0 -101.5 -26.5t-41.5 -76.5q-6 -55 -6 -110t6 -110q4 -47 27 -81.5t74 -46.5l153 -32q110 -24 176.5 -74.5t98 -127
t35.5 -179.5q1 -26 1 -54t-1 -56t-2 -54q-9 -206 -105.5 -294.5t-312.5 -88.5zM412 1680l-175 271h168l82 -140l82 140h167l-174 -271h-150z" />
    <glyph glyph-name="scaron" unicode="&#x161;" horiz-adv-x="892" 
d="M441 -19q-196 0 -279.5 79.5t-92.5 261.5q-1 38 0 72t2 49h249q-3 -58 -2 -92t2 -60q2 -56 32 -79t89 -23q69 0 100.5 24t32.5 80v32.5v12v30.5q-1 36 -17.5 59.5t-59.5 34.5l-143 37q-94 25 -159 64t-99 98t-34 147v33.5v30.5q1 186 89 266.5t303 80.5
q195 0 278.5 -77.5t91.5 -256.5q2 -22 1 -65.5t-3 -58.5h-258q1 22 1.5 52t0 58.5t-1.5 44.5q-3 51 -26.5 73t-83.5 22q-64 0 -89 -22t-27 -73q0 -6 -1 -23t-1 -60q1 -46 18 -73t68 -39l127 -29q143 -33 214.5 -103.5t71.5 -206.5v-33.5v-33.5q-1 -179 -91.5 -256.5
t-302.5 -77.5zM369 1280l-175 271h168l82 -140l82 140h167l-174 -271h-150z" />
    <glyph glyph-name="uni0162" unicode="&#x162;" horiz-adv-x="841" 
d="M281 0v1354h-270v246h819v-246h-270v-1354h-279zM199 -312v133h61q61 0 86 25t17 82l-15 90h145l14 -90q18 -127 -41.5 -183.5t-204.5 -56.5h-62z" />
    <glyph glyph-name="uni0163" unicode="&#x163;" horiz-adv-x="707" 
d="M572 -19q-228 0 -325.5 79t-98.5 266l-2 664h-116v210h122v340h283v-340h222v-210h-229l3 -697q0 -63 31.5 -84t110.5 -21q27 0 51.5 1t54.5 1v-199q-24 -4 -49.5 -7t-57.5 -3zM207 -312v133h61q61 0 86 25t17 82l-15 90h145l14 -90q18 -127 -41.5 -183.5t-204.5 -56.5
h-62z" />
    <glyph glyph-name="Tcaron" unicode="&#x164;" horiz-adv-x="841" 
d="M281 0v1354h-270v246h819v-246h-270v-1354h-279zM345 1680l-175 271h168l82 -140l82 140h167l-174 -271h-150z" />
    <glyph glyph-name="tcaron" unicode="&#x165;" horiz-adv-x="782" 
d="M572 -19q-228 0 -325.5 79t-98.5 266l-2 664h-116v210h122v340h283v-340h222v-210h-229l3 -697q0 -63 31.5 -84t110.5 -21q27 0 51.5 1t54.5 1v-199q-24 -4 -49.5 -7t-57.5 -3zM494 1262l63 338h197l-91 -338h-169z" />
    <glyph glyph-name="Tbar" unicode="&#x166;" horiz-adv-x="841" 
d="M281 0v1354h-270v246h819v-246h-270v-1354h-279zM138 804h567v-139h-567v139z" />
    <glyph glyph-name="tbar" unicode="&#x167;" horiz-adv-x="707" 
d="M572 -19q-228 0 -325.5 79t-98.5 266l-2 664h-116v210h122v340h283v-340h222v-210h-229l3 -697q0 -63 31.5 -84t110.5 -21q27 0 51.5 1t54.5 1v-199q-24 -4 -49.5 -7t-57.5 -3zM54 751h567v-139h-567v139z" />
    <glyph glyph-name="Utilde" unicode="&#x168;" horiz-adv-x="1014" 
d="M508 -19q-223 0 -320 88.5t-100 293.5q-4 308 -4 619t4 618h278q-3 -205 -3.5 -420t0.5 -430.5t3 -419.5q0 -59 36 -90t106 -31t105 31t35 90q2 204 3.5 419.5t1 430.5t-4.5 420h278q5 -307 5 -618t-5 -619q-2 -205 -99 -293.5t-319 -88.5zM666 1893h110
q-6 -112 -47 -161.5t-116 -49.5q-47 0 -74.5 14t-46.5 32.5t-37.5 33t-46.5 14.5q-31 0 -42.5 -20.5t-16.5 -60.5h-110q9 116 49.5 169t119.5 53q47 0 74 -14t44.5 -32.5t36 -32t48.5 -13.5t42 17.5t13 50.5z" />
    <glyph glyph-name="utilde" unicode="&#x169;" horiz-adv-x="1022" 
d="M367 -19q-128 0 -203.5 75.5t-75.5 249.5v894h280l4 -918q0 -50 24.5 -74t77.5 -24q50 0 100 24.5t69 66.5v925h284v-1200h-284v127h-38q-47 -79 -104 -112.5t-134 -33.5zM663 1493h110q-6 -112 -47 -161.5t-116 -49.5q-47 0 -74.5 14t-46.5 32.5t-37.5 33t-46.5 14.5
q-31 0 -42.5 -20.5t-16.5 -60.5h-110q9 116 49.5 169t119.5 53q47 0 74 -14t44.5 -32.5t36 -32t48.5 -13.5t42 17.5t13 50.5z" />
    <glyph glyph-name="Umacron" unicode="&#x16a;" horiz-adv-x="1014" 
d="M508 -19q-223 0 -320 88.5t-100 293.5q-4 308 -4 619t4 618h278q-3 -205 -3.5 -420t0.5 -430.5t3 -419.5q0 -59 36 -90t106 -31t105 31t35 90q2 204 3.5 419.5t1 430.5t-4.5 420h278q5 -307 5 -618t-5 -619q-2 -205 -99 -293.5t-319 -88.5zM169 1815h677v-126h-677v126z
" />
    <glyph glyph-name="umacron" unicode="&#x16b;" horiz-adv-x="1022" 
d="M367 -19q-128 0 -203.5 75.5t-75.5 249.5v894h280l4 -918q0 -50 24.5 -74t77.5 -24q50 0 100 24.5t69 66.5v925h284v-1200h-284v127h-38q-47 -79 -104 -112.5t-134 -33.5zM166 1415h677v-126h-677v126z" />
    <glyph glyph-name="Ubreve" unicode="&#x16c;" horiz-adv-x="1014" 
d="M508 -19q-223 0 -320 88.5t-100 293.5q-4 308 -4 619t4 618h278q-3 -205 -3.5 -420t0.5 -430.5t3 -419.5q0 -59 36 -90t106 -31t105 31t35 90q2 204 3.5 419.5t1 430.5t-4.5 420h278q5 -307 5 -618t-5 -619q-2 -205 -99 -293.5t-319 -88.5zM508 1670q-156 0 -229 67
t-81 221h172q0 -77 32.5 -112t105.5 -35t105.5 34.5t32.5 112.5h172q-10 -154 -82.5 -221t-227.5 -67z" />
    <glyph glyph-name="ubreve" unicode="&#x16d;" horiz-adv-x="1022" 
d="M367 -19q-128 0 -203.5 75.5t-75.5 249.5v894h280l4 -918q0 -50 24.5 -74t77.5 -24q50 0 100 24.5t69 66.5v925h284v-1200h-284v127h-38q-47 -79 -104 -112.5t-134 -33.5zM504 1270q-156 0 -229 67t-81 221h172q0 -77 32.5 -112t105.5 -35t105.5 34.5t32.5 112.5h172
q-10 -154 -82.5 -221t-227.5 -67z" />
    <glyph glyph-name="Uring" unicode="&#x16e;" horiz-adv-x="1014" 
d="M508 -19q-223 0 -320 88.5t-100 293.5q-4 308 -4 619t4 618h278q-3 -205 -3.5 -420t0.5 -430.5t3 -419.5q0 -59 36 -90t106 -31t105 31t35 90q2 204 3.5 419.5t1 430.5t-4.5 420h278q5 -307 5 -618t-5 -619q-2 -205 -99 -293.5t-319 -88.5zM508 1670q-85 0 -145.5 61
t-60.5 146t60.5 145.5t145.5 60.5q86 0 146.5 -60.5t60.5 -145.5t-60.5 -146t-146.5 -61zM508 1815q27 0 44.5 18t17.5 44t-18 43.5t-44 17.5q-25 0 -43 -17.5t-18 -43.5t18 -44t43 -18z" />
    <glyph glyph-name="uring" unicode="&#x16f;" horiz-adv-x="1022" 
d="M367 -19q-128 0 -203.5 75.5t-75.5 249.5v894h280l4 -918q0 -50 24.5 -74t77.5 -24q50 0 100 24.5t69 66.5v925h284v-1200h-284v127h-38q-47 -79 -104 -112.5t-134 -33.5zM504 1270q-85 0 -145.5 61t-60.5 146t60.5 145.5t145.5 60.5q86 0 146.5 -60.5t60.5 -145.5
t-60.5 -146t-146.5 -61zM504 1415q27 0 44.5 18t17.5 44t-18 43.5t-44 17.5q-25 0 -43 -17.5t-18 -43.5t18 -44t43 -18z" />
    <glyph glyph-name="Uhungarumlaut" unicode="&#x170;" horiz-adv-x="1014" 
d="M508 -19q-223 0 -320 88.5t-100 293.5q-4 308 -4 619t4 618h278q-3 -205 -3.5 -420t0.5 -430.5t3 -419.5q0 -59 36 -90t106 -31t105 31t35 90q2 204 3.5 419.5t1 430.5t-4.5 420h278q5 -307 5 -618t-5 -619q-2 -205 -99 -293.5t-319 -88.5zM270 1682l224 272h192
l-225 -272h-191zM560 1682l225 272h191l-224 -272h-192z" />
    <glyph glyph-name="uhungarumlaut" unicode="&#x171;" horiz-adv-x="1022" 
d="M367 -19q-128 0 -203.5 75.5t-75.5 249.5v894h280l4 -918q0 -50 24.5 -74t77.5 -24q50 0 100 24.5t69 66.5v925h284v-1200h-284v127h-38q-47 -79 -104 -112.5t-134 -33.5zM266 1282l224 272h192l-225 -272h-191zM556 1282l225 272h191l-224 -272h-192z" />
    <glyph glyph-name="Uogonek" unicode="&#x172;" horiz-adv-x="1014" 
d="M508 -19q-223 0 -320 88.5t-100 293.5q-4 308 -4 619t4 618h278q-3 -205 -3.5 -420t0.5 -430.5t3 -419.5q0 -59 36 -90t106 -31t105 31t35 90q2 204 3.5 419.5t1 430.5t-4.5 420h278q5 -307 5 -618t-5 -619q-2 -205 -99 -293.5t-319 -88.5zM916 -293h-62
q-144 0 -204.5 56.5t-42.5 183.5l14 90h145l-14 -90q-8 -57 16.5 -82t85.5 -25h62v-133z" />
    <glyph glyph-name="uogonek" unicode="&#x173;" horiz-adv-x="1022" 
d="M367 -19q-128 0 -203.5 75.5t-75.5 249.5v894h280l4 -918q0 -50 24.5 -74t77.5 -24q50 0 100 24.5t69 66.5v925h284v-1200h-284v127h-38q-47 -79 -104 -112.5t-134 -33.5zM940 -313h-62q-144 0 -204.5 56.5t-42.5 183.5l14 90h145l-14 -90q-8 -57 16.5 -82t85.5 -25h62
v-133z" />
    <glyph glyph-name="Wcircumflex" unicode="&#x174;" horiz-adv-x="1657" 
d="M190 0l-146 1600h280l50 -712l32 -642h89l3 642l130 702h401l130 -702l3 -642h89l32 642l50 712h280l-146 -1600h-496l-71 458l-28 896h-87l-29 -896l-70 -458h-496zM515 1682l175 271h168l175 -271h-186l-73 126l-74 -126h-185z" />
    <glyph glyph-name="wcircumflex" unicode="&#x175;" horiz-adv-x="1516" 
d="M182 0l-158 1200h284l50 -603l21 -392h79l10 392l57 602h467l54 -602l13 -392h74l21 392l54 603h283l-161 -1200h-476l-37 467l-17 527h-85l-18 -527l-34 -467h-481zM499 1282l175 271h168l175 -271h-186l-73 126l-74 -126h-185z" />
    <glyph glyph-name="Ycircumflex" unicode="&#x176;" horiz-adv-x="897" 
d="M309 0v508h-32l-259 1092h284l84 -398l34 -468h57l34 468l84 398h284l-260 -1092h-31v-508h-279zM187 1682l175 271h168l175 -271h-186l-73 126l-74 -126h-185z" />
    <glyph glyph-name="ycircumflex" unicode="&#x177;" horiz-adv-x="910" 
d="M225 -420q-35 0 -75.5 4t-78.5 10v206q29 -1 76 -2.5t78 -1.5q85 0 118.5 23.5t42.5 79.5l16 101h-150l-219 1200h288l59 -547l49 -448h72l38 448l55 547h288l-213 -1279q-19 -111 -61.5 -187t-132.5 -115t-250 -39zM194 1282l175 271h168l175 -271h-186l-73 126
l-74 -126h-185z" />
    <glyph glyph-name="Ydieresis" unicode="&#x178;" horiz-adv-x="897" 
d="M309 0v508h-32l-259 1092h284l84 -398l34 -468h57l34 468l84 398h284l-260 -1092h-31v-508h-279zM503 1710v188h188v-188h-188zM208 1710v188h188v-188h-188z" />
    <glyph glyph-name="Zacute" unicode="&#x179;" horiz-adv-x="830" 
d="M31 0v232l469 1122h-445v246h744v-238l-486 -1116h455v-246h-737zM336 1680l190 271h197l-199 -271h-188z" />
    <glyph glyph-name="zacute" unicode="&#x17a;" horiz-adv-x="810" 
d="M42 0v177l429 818h-421v205h723v-182l-436 -813h431v-205h-726zM323 1280l190 271h197l-199 -271h-188z" />
    <glyph glyph-name="Zdotaccent" unicode="&#x17b;" horiz-adv-x="830" 
d="M31 0v232l469 1122h-445v246h744v-238l-486 -1116h455v-246h-737zM326 1680v188h188v-188h-188z" />
    <glyph glyph-name="zdotaccent" unicode="&#x17c;" horiz-adv-x="810" 
d="M42 0v177l429 818h-421v205h723v-182l-436 -813h431v-205h-726zM312 1280v188h188v-188h-188z" />
    <glyph glyph-name="Zcaron" unicode="&#x17d;" horiz-adv-x="830" 
d="M31 0v232l469 1122h-445v246h744v-238l-486 -1116h455v-246h-737zM345 1680l-175 271h168l82 -140l82 140h167l-174 -271h-150z" />
    <glyph glyph-name="zcaron" unicode="&#x17e;" horiz-adv-x="810" 
d="M42 0v177l429 818h-421v205h723v-182l-436 -813h431v-205h-726zM332 1280l-175 271h168l82 -140l82 140h167l-174 -271h-150z" />
    <glyph glyph-name="uni018E" unicode="&#x18e;" horiz-adv-x="856" 
d="M754 0h-699v246h420v444h-400v245h400v419h-420v246h699v-1600z" />
    <glyph glyph-name="uni018F" unicode="&#x18f;" horiz-adv-x="1013" 
d="M507 -19q-220 0 -316 88.5t-99 292.5q-1 129 -1 247t1 272h563q-1 103 -3 204t-5 202q-1 52 -36.5 78t-104.5 26q-68 0 -104.5 -26t-38.5 -78q-1 -39 -1.5 -90.5t0 -103t1.5 -90.5h-279q-1 63 -1 117t1 116q6 206 104 294.5t318 88.5q222 0 319 -88.5t100 -294.5
q2 -116 3.5 -223.5t1.5 -213t-1.5 -214t-3.5 -225.5q-2 -201 -99.5 -290t-318.5 -89zM507 209q68 0 103.5 26t36.5 76q3 94 5 188.5t3 188.5h-290q0 -67 0.5 -129.5t2 -123.5t3.5 -124q2 -50 36 -76t100 -26z" />
    <glyph glyph-name="florin" unicode="&#x192;" horiz-adv-x="1400" 
d="M236 -19q-41 0 -80 4.5t-72 10.5l35 205q27 -1 70 -2.5t65 -1.5q63 0 109.5 34t60.5 84l123 441h-243v137h281l113 402q51 180 161 253t306 73q41 0 80 -5t71 -10l-33 -201h-66.5h-68.5q-64 0 -110.5 -34t-61.5 -84l-111 -394h290v-137h-328l-127 -449
q-31 -108 -84 -180.5t-144.5 -109t-235.5 -36.5z" />
    <glyph glyph-name="Ohorn" unicode="&#x1a0;" 
d="M508 -19q-221 0 -318.5 89t-102.5 295q-2 118 -3 225t-1 211t1 211.5t3 224.5q5 205 102.5 293.5t318.5 88.5q217 0 314.5 -88.5t103.5 -293.5q5 -118 7 -225t2 -211.5t-2 -211.5t-7 -224q-6 -206 -103.5 -295t-314.5 -89zM508 209q74 0 106.5 32t33.5 107q5 117 7.5 229
t2.5 223.5t-2.5 224.5t-7.5 228q-1 75 -33.5 107t-106.5 32t-107 -32t-35 -107q-5 -115 -7.5 -227.5t-2.5 -224t2.5 -224t7.5 -229.5q2 -75 35 -107t107 -32zM728 1460q-7 0 -18.5 0.5t-27.5 3.5v134h30h16q57 0 82.5 36t30.5 119q1 19 1.5 57.5t0 77t-1.5 57.5h151
q1 -19 1.5 -57.5t0 -77t-1.5 -57.5q-9 -151 -73 -222t-191 -71z" />
    <glyph glyph-name="ohorn" unicode="&#x1a1;" horiz-adv-x="974" 
d="M488 -19q-146 0 -233.5 38t-129 122.5t-48.5 222.5q-2 42 -3 104t-1 131.5t1 132.5t3 105q8 140 50 224t129 121t232 37q148 0 235 -39t127 -123t47 -220q2 -42 3.5 -105t1.5 -131.5t-1.5 -131t-3.5 -105.5q-8 -138 -48 -222.5t-127 -122.5t-234 -38zM488 189q70 0 99 27
t30 79q3 88 4.5 164.5t1.5 148t-1.5 144.5t-4.5 155q-1 51 -30.5 77.5t-98.5 26.5q-68 0 -99.5 -28.5t-33.5 -76.5q-2 -64 -3 -137.5t-1 -152.5t1.5 -159.5t4.5 -161.5q2 -52 32.5 -79t98.5 -27zM681 1066q-7 0 -18.5 0.5t-27.5 3.5v134h30h16q57 0 82.5 36t30.5 119
q1 19 1.5 57.5t0 77t-1.5 57.5h151q1 -19 1.5 -57.5t0 -77t-1.5 -57.5q-9 -151 -73 -222t-191 -71z" />
    <glyph glyph-name="Uhorn" unicode="&#x1af;" horiz-adv-x="1014" 
d="M508 -19q-223 0 -320 88.5t-100 293.5q-4 308 -4 619t4 618h278q-3 -205 -3.5 -420t0.5 -430.5t3 -419.5q0 -59 36 -90t106 -31t105 31t35 90q2 204 3.5 419.5t1 430.5t-4.5 420h278q5 -307 5 -618t-5 -619q-2 -205 -99 -293.5t-319 -88.5zM767 1462q-7 0 -18.5 0.5
t-27.5 3.5v134h30h16q57 0 82.5 36t30.5 119q1 19 1.5 57.5t0 77t-1.5 57.5h151q1 -19 1.5 -57.5t0 -77t-1.5 -57.5q-9 -151 -73 -222t-191 -71z" />
    <glyph glyph-name="uhorn" unicode="&#x1b0;" horiz-adv-x="1022" 
d="M367 -19q-128 0 -203.5 75.5t-75.5 249.5v894h280l4 -918q0 -50 24.5 -74t77.5 -24q50 0 100 24.5t69 66.5v925h284v-1200h-284v127h-38q-47 -79 -104 -112.5t-134 -33.5zM795 1060q-7 0 -18.5 0.5t-27.5 3.5v134h30h16q57 0 82.5 36t30.5 119q1 19 1.5 57.5t0 77
t-1.5 57.5h151q1 -19 1.5 -57.5t0 -77t-1.5 -57.5q-9 -151 -73 -222t-191 -71z" />
    <glyph glyph-name="uni01C4" unicode="&#x1c4;" horiz-adv-x="1825" 
d="M102 0v1600h406q215 0 310.5 -90.5t99.5 -297.5q3 -147 4 -279.5t0 -264t-4 -278.5q-4 -208 -99.5 -299t-309.5 -91h-407zM380 246h129q65 0 97.5 28.5t33.5 83.5q3 114 4.5 224t1.5 219t-1.5 219.5t-4.5 223.5q-1 54 -34 82t-98 28h-128v-1108zM1026 0v232l469 1122
h-445v246h744v-238l-486 -1116h455v-246h-737zM1340 1680l-175 271h168l82 -140l82 140h167l-174 -271h-150z" />
    <glyph glyph-name="uni01C5" unicode="&#x1c5;" horiz-adv-x="1816" 
d="M102 0v1600h406q215 0 310.5 -90.5t99.5 -297.5q3 -147 4 -279.5t0 -264t-4 -278.5q-4 -208 -99.5 -299t-309.5 -91h-407zM380 246h129q65 0 97.5 28.5t33.5 83.5q3 114 4.5 224t1.5 219t-1.5 219.5t-4.5 223.5q-1 54 -34 82t-98 28h-128v-1108zM1047 0v177l429 818h-421
v205h723v-182l-436 -813h431v-205h-726zM1337 1280l-175 271h168l82 -140l82 140h167l-174 -271h-150z" />
    <glyph glyph-name="uni01C6" unicode="&#x1c6;" horiz-adv-x="1822" 
d="M351 -19q-129 0 -197 75.5t-76 249.5q-3 55 -4 134t-1 164t1.5 162t3.5 128q8 175 78.5 250t198.5 75q97 0 146 -37.5t92 -108.5h39v527h284v-1600h-284v127h-41q-42 -70 -93.5 -108t-146.5 -38zM466 184q47 0 97 24t69 67v650q-19 43 -69 67t-97 24q-52 0 -77 -23
t-28 -68q-5 -104 -7 -216t-0.5 -221t7.5 -205q3 -52 26.5 -75.5t78.5 -23.5zM1054 0v177l429 818h-421v205h723v-182l-436 -813h431v-205h-726zM1344 1280l-175 271h168l82 -140l82 140h167l-174 -271h-150z" />
    <glyph glyph-name="uni01C7" unicode="&#x1c7;" horiz-adv-x="1728" 
d="M102 0v1600h278v-1354h390v-246h-668zM1235 -19q-138 0 -224 38.5t-127.5 123t-45.5 221.5q-1 53 -1 116t1 117h262q-1 -39 -1.5 -86.5t0 -94.5t1.5 -86q2 -66 33.5 -93.5t101.5 -27.5t100.5 27.5t30.5 93.5v1270h278v-1236q0 -206 -94.5 -294.5t-314.5 -88.5z" />
    <glyph glyph-name="uni01C8" unicode="&#x1c8;" horiz-adv-x="1265" 
d="M102 0v1600h278v-1354h390v-246h-668zM888 1384v216h287v-216h-287zM765 -424q-36 0 -78.5 4t-79.5 10v206q29 -1 76.5 -2.5t80.5 -1.5q64 0 95.5 26t31.5 74v1308h279v-1282q0 -183 -98.5 -262.5t-306.5 -79.5z" />
    <glyph glyph-name="uni01C9" unicode="&#x1c9;" horiz-adv-x="941" 
d="M96 0v1600h278v-1600h-278zM563 1384v216h287v-216h-287zM440 -424q-36 0 -78.5 4t-79.5 10v206q29 -1 76.5 -2.5t80.5 -1.5q64 0 95.5 26t31.5 74v1308h279v-1282q0 -183 -98.5 -262.5t-306.5 -79.5z" />
    <glyph glyph-name="uni01CA" unicode="&#x1ca;" horiz-adv-x="2126" 
d="M102 0v1600h464l116 -509l113 -845h89l-51 686l-22 668h280v-1600h-486l-117 531l-86 825h-93l47 -744l24 -612h-278zM1633 -19q-138 0 -224 38.5t-127.5 123t-45.5 221.5q-1 53 -1 116t1 117h262q-1 -39 -1.5 -86.5t0 -94.5t1.5 -86q2 -66 33.5 -93.5t101.5 -27.5
t100.5 27.5t30.5 93.5v1270h278v-1236q0 -206 -94.5 -294.5t-314.5 -88.5z" />
    <glyph glyph-name="uni01CB" unicode="&#x1cb;" horiz-adv-x="1664" 
d="M102 0v1600h464l116 -509l113 -845h89l-51 686l-22 668h280v-1600h-486l-117 531l-86 825h-93l47 -744l24 -612h-278zM1286 1384v216h287v-216h-287zM1163 -424q-36 0 -78.5 4t-79.5 10v206q29 -1 76.5 -2.5t80.5 -1.5q64 0 95.5 26t31.5 74v1308h279v-1282
q0 -183 -98.5 -262.5t-306.5 -79.5z" />
    <glyph glyph-name="uni01CC" unicode="&#x1cc;" horiz-adv-x="1501" 
d="M96 0v1200h279v-127h54q43 71 93 108.5t145 37.5q131 0 201 -75t70 -250v-894h-278v918q-1 50 -29.5 74t-82.5 24q-48 0 -101 -24.5t-72 -66.5v-925h-279zM1123 1384v216h287v-216h-287zM1000 -424q-36 0 -78.5 4t-79.5 10v206q29 -1 76.5 -2.5t80.5 -1.5q64 0 95.5 26
t31.5 74v1308h279v-1282q0 -183 -98.5 -262.5t-306.5 -79.5z" />
    <glyph glyph-name="uni01CD" unicode="&#x1cd;" horiz-adv-x="985" 
d="M38 0l214 1600h481l215 -1600h-286l-35 352h-269l-34 -352h-286zM384 598h217l-35 351l-27 405h-92l-27 -405zM417 1680l-175 271h168l82 -140l82 140h167l-174 -271h-150z" />
    <glyph glyph-name="uni01CE" unicode="&#x1ce;" horiz-adv-x="966" 
d="M339 -15q-136 0 -202 63.5t-79 217.5q-1 18 -1 45t1 43q6 81 37.5 138.5t98 101t177.5 82.5q57 21 110 35.5t120 30.5v162q0 55 -29 81t-92 26q-55 0 -82.5 -22t-30.5 -72q-1 -14 -1.5 -52t0 -75t1.5 -45h-270q-1 16 -2 58t0 82q5 116 43 190t122 109t229 35
q147 0 231 -38.5t119 -122t35 -217.5l-2 -841h-277v127h-42q-35 -73 -81 -107.5t-133 -34.5zM453 184q46 0 84.5 23.5t59.5 63.5l2 289q-40 -9 -81 -21t-78 -28q-63 -26 -81 -67.5t-21 -89.5q-1 -25 -1 -36t1 -32q5 -49 34 -75.5t81 -26.5zM411 1280l-175 271h168l82 -140
l82 140h167l-174 -271h-150z" />
    <glyph glyph-name="uni01CF" unicode="&#x1cf;" horiz-adv-x="482" 
d="M102 0v1600h278v-1600h-278zM165 1680l-175 271h168l82 -140l82 140h167l-174 -271h-150z" />
    <glyph glyph-name="uni01D0" unicode="&#x1d0;" horiz-adv-x="470" 
d="M96 0v1200h278v-1200h-278zM159 1280l-175 271h168l82 -140l82 140h167l-174 -271h-150z" />
    <glyph glyph-name="uni01D1" unicode="&#x1d1;" 
d="M508 -19q-221 0 -318.5 89t-102.5 295q-2 118 -3 225t-1 211t1 211.5t3 224.5q5 205 102.5 293.5t318.5 88.5q217 0 314.5 -88.5t103.5 -293.5q5 -118 7 -225t2 -211.5t-2 -211.5t-7 -224q-6 -206 -103.5 -295t-314.5 -89zM508 209q74 0 106.5 32t33.5 107q5 117 7.5 229
t2.5 223.5t-2.5 224.5t-7.5 228q-1 75 -33.5 107t-106.5 32t-107 -32t-35 -107q-5 -115 -7.5 -227.5t-2.5 -224t2.5 -224t7.5 -229.5q2 -75 35 -107t107 -32zM433 1680l-175 271h168l82 -140l82 140h167l-174 -271h-150z" />
    <glyph glyph-name="uni01D2" unicode="&#x1d2;" horiz-adv-x="974" 
d="M488 -19q-146 0 -233.5 38t-129 122.5t-48.5 222.5q-2 42 -3 104t-1 131.5t1 132.5t3 105q8 140 50 224t129 121t232 37q148 0 235 -39t127 -123t47 -220q2 -42 3.5 -105t1.5 -131.5t-1.5 -131t-3.5 -105.5q-8 -138 -48 -222.5t-127 -122.5t-234 -38zM488 189q70 0 99 27
t30 79q3 88 4.5 164.5t1.5 148t-1.5 144.5t-4.5 155q-1 51 -30.5 77.5t-98.5 26.5q-68 0 -99.5 -28.5t-33.5 -76.5q-2 -64 -3 -137.5t-1 -152.5t1.5 -159.5t4.5 -161.5q2 -52 32.5 -79t98.5 -27zM412 1280l-175 271h168l82 -140l82 140h167l-174 -271h-150z" />
    <glyph glyph-name="uni01D3" unicode="&#x1d3;" horiz-adv-x="1014" 
d="M508 -19q-223 0 -320 88.5t-100 293.5q-4 308 -4 619t4 618h278q-3 -205 -3.5 -420t0.5 -430.5t3 -419.5q0 -59 36 -90t106 -31t105 31t35 90q2 204 3.5 419.5t1 430.5t-4.5 420h278q5 -307 5 -618t-5 -619q-2 -205 -99 -293.5t-319 -88.5zM432 1680l-175 271h168
l82 -140l82 140h167l-174 -271h-150z" />
    <glyph glyph-name="uni01D4" unicode="&#x1d4;" horiz-adv-x="1022" 
d="M367 -19q-128 0 -203.5 75.5t-75.5 249.5v894h280l4 -918q0 -50 24.5 -74t77.5 -24q50 0 100 24.5t69 66.5v925h284v-1200h-284v127h-38q-47 -79 -104 -112.5t-134 -33.5zM428 1280l-175 271h168l82 -140l82 140h167l-174 -271h-150z" />
    <glyph glyph-name="uni01D5" unicode="&#x1d5;" horiz-adv-x="1014" 
d="M508 -19q-223 0 -320 88.5t-100 293.5q-4 308 -4 619t4 618h278q-3 -205 -3.5 -420t0.5 -430.5t3 -419.5q0 -59 36 -90t106 -31t105 31t35 90q2 204 3.5 419.5t1 430.5t-4.5 420h278q5 -307 5 -618t-5 -619q-2 -205 -99 -293.5t-319 -88.5zM561 1710v188h188v-188h-188z
M266 1710v188h188v-188h-188zM169 2085h677v-126h-677v126z" />
    <glyph glyph-name="uni01D6" unicode="&#x1d6;" horiz-adv-x="1022" 
d="M367 -19q-128 0 -203.5 75.5t-75.5 249.5v894h280l4 -918q0 -50 24.5 -74t77.5 -24q50 0 100 24.5t69 66.5v925h284v-1200h-284v127h-38q-47 -79 -104 -112.5t-134 -33.5zM558 1310v188h188v-188h-188zM263 1310v188h188v-188h-188zM166 1685h677v-126h-677v126z" />
    <glyph glyph-name="uni01D7" unicode="&#x1d7;" horiz-adv-x="1014" 
d="M508 -19q-223 0 -320 88.5t-100 293.5q-4 308 -4 619t4 618h278q-3 -205 -3.5 -420t0.5 -430.5t3 -419.5q0 -59 36 -90t106 -31t105 31t35 90q2 204 3.5 419.5t1 430.5t-4.5 420h278q5 -307 5 -618t-5 -619q-2 -205 -99 -293.5t-319 -88.5zM561 1710v188h188v-188h-188z
M266 1710v188h188v-188h-188zM423 1950l190 271h197l-199 -271h-188z" />
    <glyph glyph-name="uni01D8" unicode="&#x1d8;" horiz-adv-x="1022" 
d="M367 -19q-128 0 -203.5 75.5t-75.5 249.5v894h280l4 -918q0 -50 24.5 -74t77.5 -24q50 0 100 24.5t69 66.5v925h284v-1200h-284v127h-38q-47 -79 -104 -112.5t-134 -33.5zM558 1310v188h188v-188h-188zM263 1310v188h188v-188h-188zM419 1550l190 271h197l-199 -271h-188
z" />
    <glyph glyph-name="uni01D9" unicode="&#x1d9;" horiz-adv-x="1014" 
d="M508 -19q-223 0 -320 88.5t-100 293.5q-4 308 -4 619t4 618h278q-3 -205 -3.5 -420t0.5 -430.5t3 -419.5q0 -59 36 -90t106 -31t105 31t35 90q2 204 3.5 419.5t1 430.5t-4.5 420h278q5 -307 5 -618t-5 -619q-2 -205 -99 -293.5t-319 -88.5zM561 1710v188h188v-188h-188z
M266 1710v188h188v-188h-188zM432 1950l-175 271h168l82 -140l82 140h167l-174 -271h-150z" />
    <glyph glyph-name="uni01DA" unicode="&#x1da;" horiz-adv-x="1022" 
d="M367 -19q-128 0 -203.5 75.5t-75.5 249.5v894h280l4 -918q0 -50 24.5 -74t77.5 -24q50 0 100 24.5t69 66.5v925h284v-1200h-284v127h-38q-47 -79 -104 -112.5t-134 -33.5zM558 1310v188h188v-188h-188zM263 1310v188h188v-188h-188zM428 1550l-175 271h168l82 -140
l82 140h167l-174 -271h-150z" />
    <glyph glyph-name="uni01DB" unicode="&#x1db;" horiz-adv-x="1014" 
d="M508 -19q-223 0 -320 88.5t-100 293.5q-4 308 -4 619t4 618h278q-3 -205 -3.5 -420t0.5 -430.5t3 -419.5q0 -59 36 -90t106 -31t105 31t35 90q2 204 3.5 419.5t1 430.5t-4.5 420h278q5 -307 5 -618t-5 -619q-2 -205 -99 -293.5t-319 -88.5zM561 1710v188h188v-188h-188z
M266 1710v188h188v-188h-188zM385 1950l-181 271h198l172 -271h-189z" />
    <glyph glyph-name="uni01DC" unicode="&#x1dc;" horiz-adv-x="1022" 
d="M367 -19q-128 0 -203.5 75.5t-75.5 249.5v894h280l4 -918q0 -50 24.5 -74t77.5 -24q50 0 100 24.5t69 66.5v925h284v-1200h-284v127h-38q-47 -79 -104 -112.5t-134 -33.5zM558 1310v188h188v-188h-188zM263 1310v188h188v-188h-188zM381 1550l-181 271h198l172 -271h-189
z" />
    <glyph glyph-name="uni01DD" unicode="&#x1dd;" horiz-adv-x="935" 
d="M454 1219q211 0 302 -80.5t102 -260.5q2 -50 3.5 -126.5t1.5 -159.5t-1.5 -154.5t-3.5 -111.5q-12 -185 -106 -265t-295 -80t-292.5 78t-99.5 256q-1 24 -1.5 80.5t0 124.5t3.5 127h513q0 63 -1.5 127t-4.5 135q-1 55 -28.5 78t-91.5 23q-59 0 -83.5 -23.5t-27.5 -79.5
q-1 -30 -2 -69t2 -97h-276q-1 15 -2 59.5t0 77.5q8 183 99 262t290 79zM578 454h-237v-73t0.5 -61t1.5 -36q3 -51 29.5 -73t84.5 -22q65 0 90.5 22.5t26.5 72.5q2 45 3 87.5t1 82.5z" />
    <glyph glyph-name="Gcaron" unicode="&#x1e6;" horiz-adv-x="1008" 
d="M510 -19q-146 0 -237 38.5t-135 123t-49 221.5q-3 92 -4.5 203.5t-1.5 228.5t1.5 227t4.5 199q6 142 50 229.5t135 127.5t236 40q212 0 308 -88t108 -293q3 -51 3 -115t-3 -116h-279q3 68 3 132.5t-3 132.5q-4 65 -35 92.5t-102 27.5q-74 0 -106 -27.5t-37 -92.5
q-5 -112 -8 -231t-3 -240t3 -240t8 -231q5 -66 37 -93.5t106 -27.5q77 0 111 27.5t40 93.5q2 27 2.5 62t0 69.5t-2.5 61.5h-117v243h388q4 -96 3.5 -203t-5.5 -199q-9 -206 -106.5 -294.5t-313.5 -88.5zM427 1680l-175 271h168l82 -140l82 140h167l-174 -271h-150z" />
    <glyph glyph-name="gcaron" unicode="&#x1e7;" 
d="M458 -394q-160 0 -256 47.5t-116 134.5q-3 14 -4.5 34.5t0.5 35.5q8 53 42 87t92 41v40q-55 9 -87 38.5t-39 76.5q-3 20 -2 33t2 28q5 44 45.5 70.5t103.5 35.5v40q-84 37 -125 112t-48 195q-2 32 -3 61t-1 56.5t1 52.5t3 49q9 123 53 199.5t130.5 111t223.5 34.5
q133 0 217.5 -32t127.5 -103h40q9 61 46 88.5t112 27.5v-211h-31q-50 0 -78.5 -22.5t-28.5 -83.5v-55v-37t0.5 -42t0 -45.5t-2.5 -48.5q-8 -124 -51 -200.5t-129 -111.5t-224 -35q-93 0 -135.5 -13.5t-42.5 -43.5v-7q0 -21 12 -33t49 -17.5t111 -6.5q207 -3 308 -64
t123 -180q3 -16 3.5 -40t-3.5 -50q-14 -89 -64 -143.5t-142.5 -79t-232.5 -24.5zM476 -203q55 0 97 8.5t67.5 25t34.5 42.5q5 16 4 30.5t-6 28.5q-8 24 -33 39.5t-66 23.5t-98 8q-75 0 -121 -17t-57 -54q-4 -16 -4 -31t4 -29q7 -25 30 -42t60.5 -25t87.5 -8zM472 516
q61 0 94.5 26.5t36.5 72.5q2 31 3.5 67.5t1.5 75.5t-1.5 78.5t-3.5 74.5q-3 48 -35.5 74t-94.5 26q-65 0 -98.5 -26.5t-36.5 -77.5q-1 -37 -2 -74.5t-1.5 -73.5t0.5 -71t3 -66q4 -51 37.5 -78.5t96.5 -27.5zM397 1280l-175 271h168l82 -140l82 140h167l-174 -271h-150z" />
    <glyph glyph-name="uni01EA" unicode="&#x1ea;" 
d="M508 -19q-221 0 -318.5 89t-102.5 295q-2 118 -3 225t-1 211t1 211.5t3 224.5q5 205 102.5 293.5t318.5 88.5q217 0 314.5 -88.5t103.5 -293.5q5 -118 7 -225t2 -211.5t-2 -211.5t-7 -224q-6 -206 -103.5 -295t-314.5 -89zM508 209q74 0 106.5 32t33.5 107q5 117 7.5 229
t2.5 223.5t-2.5 224.5t-7.5 228q-1 75 -33.5 107t-106.5 32t-107 -32t-35 -107q-5 -115 -7.5 -227.5t-2.5 -224t2.5 -224t7.5 -229.5q2 -75 35 -107t107 -32zM916 -293h-62q-144 0 -204.5 56.5t-42.5 183.5l14 90h145l-14 -90q-8 -57 16.5 -82t85.5 -25h62v-133z" />
    <glyph glyph-name="uni01EB" unicode="&#x1eb;" horiz-adv-x="974" 
d="M488 -19q-146 0 -233.5 38t-129 122.5t-48.5 222.5q-2 42 -3 104t-1 131.5t1 132.5t3 105q8 140 50 224t129 121t232 37q148 0 235 -39t127 -123t47 -220q2 -42 3.5 -105t1.5 -131.5t-1.5 -131t-3.5 -105.5q-8 -138 -48 -222.5t-127 -122.5t-234 -38zM488 189q70 0 99 27
t30 79q3 88 4.5 164.5t1.5 148t-1.5 144.5t-4.5 155q-1 51 -30.5 77.5t-98.5 26.5q-68 0 -99.5 -28.5t-33.5 -76.5q-2 -64 -3 -137.5t-1 -152.5t1.5 -159.5t4.5 -161.5q2 -52 32.5 -79t98.5 -27zM909 -288h-62q-144 0 -204.5 56.5t-42.5 183.5l14 90h145l-14 -90
q-8 -57 16.5 -82t85.5 -25h62v-133z" />
    <glyph glyph-name="Aringacute" unicode="&#x1fa;" horiz-adv-x="985" 
d="M38 0l214 1600h481l215 -1600h-286l-35 352h-269l-34 -352h-286zM384 598h217l-35 351l-27 405h-92l-27 -405zM493 1670q-85 0 -145.5 61t-60.5 146t60.5 145.5t145.5 60.5q86 0 146.5 -60.5t60.5 -145.5t-60.5 -146t-146.5 -61zM493 1815q27 0 44.5 18t17.5 44t-18 43.5
t-44 17.5q-25 0 -43 -17.5t-18 -43.5t18 -44t43 -18zM407 2157l190 271h197l-199 -271h-188z" />
    <glyph glyph-name="aringacute" unicode="&#x1fb;" horiz-adv-x="966" 
d="M339 -15q-136 0 -202 63.5t-79 217.5q-1 18 -1 45t1 43q6 81 37.5 138.5t98 101t177.5 82.5q57 21 110 35.5t120 30.5v162q0 55 -29 81t-92 26q-55 0 -82.5 -22t-30.5 -72q-1 -14 -1.5 -52t0 -75t1.5 -45h-270q-1 16 -2 58t0 82q5 116 43 190t122 109t229 35
q147 0 231 -38.5t119 -122t35 -217.5l-2 -841h-277v127h-42q-35 -73 -81 -107.5t-133 -34.5zM453 184q46 0 84.5 23.5t59.5 63.5l2 289q-40 -9 -81 -21t-78 -28q-63 -26 -81 -67.5t-21 -89.5q-1 -25 -1 -36t1 -32q5 -49 34 -75.5t81 -26.5zM487 1270q-85 0 -145.5 61
t-60.5 146t60.5 145.5t145.5 60.5q86 0 146.5 -60.5t60.5 -145.5t-60.5 -146t-146.5 -61zM487 1415q27 0 44.5 18t17.5 44t-18 43.5t-44 17.5q-25 0 -43 -17.5t-18 -43.5t18 -44t43 -18zM402 1757l190 271h197l-199 -271h-188z" />
    <glyph glyph-name="AEacute" unicode="&#x1fc;" horiz-adv-x="1417" 
d="M38 0l325 1600h999v-246h-420v-419h400v-245h-400v-444h420v-246h-699v351h-248l-73 -351h-304zM467 596h196v759h-88l-49 -479zM738 1680l190 271h197l-199 -271h-188z" />
    <glyph glyph-name="aeacute" unicode="&#x1fd;" horiz-adv-x="1418" 
d="M329 -15q-119 0 -189.5 63t-81.5 216q-1 24 -1 47t1 43q10 121 82.5 192t220.5 125q56 20 108 35t106 29v57.5v57v57.5q0 25 -6 49t-28 39.5t-70 15.5q-56 0 -77 -22t-24 -73q-1 -20 -1.5 -53.5t0 -66t1.5 -51.5h-275q-1 9 -1.5 35.5t-0.5 56.5t1 49q4 116 42.5 189.5
t121 108.5t220.5 35q82 0 142.5 -12t101.5 -37q48 25 109.5 37t138.5 12q196 0 285.5 -77.5t98.5 -256.5q0 -18 1 -56t1 -86t-1 -97.5t-3 -90.5h-498v-130.5v-131.5q0 -57 30.5 -80t89.5 -23q62 0 82 27t21 74q3 54 3.5 87.5t-1.5 80.5h273q2 -13 3 -58.5t-1 -78.5
q-9 -182 -97.5 -261.5t-282.5 -79.5q-134 0 -221 35t-131 111h-23q-35 -75 -109 -108.5t-161 -33.5zM445 184q28 0 58 13t51 56.5t23 133.5q0 33 -1 77t-1 89q-34 -7 -72.5 -19t-69.5 -27q-54 -25 -74 -64t-25 -89q-1 -19 -1 -35t3 -34q9 -48 33 -74.5t76 -26.5zM854 748
h225q0 40 -0.5 88.5t-1.5 81.5q0 49 -26 71t-81 22q-58 0 -87 -22t-29 -73v-83v-85zM640 1280l190 271h197l-199 -271h-188z" />
    <glyph glyph-name="Oslashacute" unicode="&#x1fe;" 
d="M508 -19q-221 0 -318.5 89t-102.5 295q-2 118 -3 225t-1 211t1 211.5t3 224.5q5 205 102.5 293.5t318.5 88.5q217 0 314.5 -88.5t103.5 -293.5q5 -118 7 -225t2 -211.5t-2 -211.5t-7 -224q-6 -206 -103.5 -295t-314.5 -89zM508 209q74 0 106.5 32t33.5 107q3 82 5.5 160
t3.5 154.5t0 155.5l-295 -388q2 -21 2.5 -41t1.5 -41q2 -75 35 -107t107 -32zM356 745l296 391q0 29 -1 58.5t-3 58.5q-1 75 -33.5 107t-106.5 32t-107 -32t-35 -107q-4 -87 -6.5 -171t-3.5 -167.5t0 -169.5zM424 1680l190 271h197l-199 -271h-188z" />
    <glyph glyph-name="oslashacute" unicode="&#x1ff;" horiz-adv-x="974" 
d="M154 338l628 657l95 -101l-712 -742zM488 -19q-146 0 -233.5 38t-129 122.5t-48.5 222.5q-2 42 -3 104t-1 131.5t1 132.5t3 105q8 140 50 224t129 121t232 37q148 0 235 -39t127 -123t47 -220q2 -42 3.5 -105t1.5 -131.5t-1.5 -131t-3.5 -105.5q-8 -138 -48 -222.5
t-127 -122.5t-234 -38zM488 189q70 0 99 27t30 79q3 88 4.5 164.5t1.5 148t-1.5 144.5t-4.5 155q-1 51 -30.5 77.5t-98.5 26.5q-68 0 -99.5 -28.5t-33.5 -76.5q-2 -64 -3 -137.5t-1 -152.5t1.5 -159.5t4.5 -161.5q2 -52 32.5 -79t98.5 -27zM403 1280l190 271h197l-199 -271
h-188z" />
    <glyph glyph-name="uni0200" unicode="&#x200;" horiz-adv-x="985" 
d="M38 0l214 1600h481l215 -1600h-286l-35 352h-269l-34 -352h-286zM384 598h217l-35 351l-27 405h-92l-27 -405zM534 1680l-204 271h190l205 -271h-191zM245 1680l-205 271h191l204 -271h-190z" />
    <glyph glyph-name="uni0201" unicode="&#x201;" horiz-adv-x="966" 
d="M339 -15q-136 0 -202 63.5t-79 217.5q-1 18 -1 45t1 43q6 81 37.5 138.5t98 101t177.5 82.5q57 21 110 35.5t120 30.5v162q0 55 -29 81t-92 26q-55 0 -82.5 -22t-30.5 -72q-1 -14 -1.5 -52t0 -75t1.5 -45h-270q-1 16 -2 58t0 82q5 116 43 190t122 109t229 35
q147 0 231 -38.5t119 -122t35 -217.5l-2 -841h-277v127h-42q-35 -73 -81 -107.5t-133 -34.5zM453 184q46 0 84.5 23.5t59.5 63.5l2 289q-40 -9 -81 -21t-78 -28q-63 -26 -81 -67.5t-21 -89.5q-1 -25 -1 -36t1 -32q5 -49 34 -75.5t81 -26.5zM528 1280l-204 271h190l205 -271
h-191zM239 1280l-205 271h191l204 -271h-190z" />
    <glyph glyph-name="uni0202" unicode="&#x202;" horiz-adv-x="985" 
d="M38 0l214 1600h481l215 -1600h-286l-35 352h-269l-34 -352h-286zM384 598h217l-35 351l-27 405h-92l-27 -405zM493 1968q155 0 227.5 -67.5t82.5 -220.5h-172q0 77 -32.5 111.5t-105.5 34.5t-105.5 -34.5t-32.5 -111.5h-172q8 154 81 221t229 67z" />
    <glyph glyph-name="uni0203" unicode="&#x203;" horiz-adv-x="966" 
d="M339 -15q-136 0 -202 63.5t-79 217.5q-1 18 -1 45t1 43q6 81 37.5 138.5t98 101t177.5 82.5q57 21 110 35.5t120 30.5v162q0 55 -29 81t-92 26q-55 0 -82.5 -22t-30.5 -72q-1 -14 -1.5 -52t0 -75t1.5 -45h-270q-1 16 -2 58t0 82q5 116 43 190t122 109t229 35
q147 0 231 -38.5t119 -122t35 -217.5l-2 -841h-277v127h-42q-35 -73 -81 -107.5t-133 -34.5zM453 184q46 0 84.5 23.5t59.5 63.5l2 289q-40 -9 -81 -21t-78 -28q-63 -26 -81 -67.5t-21 -89.5q-1 -25 -1 -36t1 -32q5 -49 34 -75.5t81 -26.5zM487 1568q155 0 227.5 -67.5
t82.5 -220.5h-172q0 77 -32.5 111.5t-105.5 34.5t-105.5 -34.5t-32.5 -111.5h-172q8 154 81 221t229 67z" />
    <glyph glyph-name="uni0204" unicode="&#x204;" horiz-adv-x="856" 
d="M102 0v1600h699v-246h-421v-419h401v-245h-401v-444h421v-246h-699zM492 1680l-204 271h190l205 -271h-191zM203 1680l-205 271h191l204 -271h-190z" />
    <glyph glyph-name="uni0205" unicode="&#x205;" horiz-adv-x="935" 
d="M482 -19q-212 0 -302.5 81t-101.5 260q-3 51 -4 127t-1 159t1 154.5t4 111.5q12 186 105.5 265.5t294.5 79.5q202 0 293 -78t100 -256q1 -24 1.5 -80.5t0 -124.5t-3.5 -127h-514q0 -62 1.5 -126.5t4.5 -135.5q2 -54 29.5 -77.5t90.5 -23.5q60 0 84 23.5t27 79.5
q2 30 2.5 69.5t-2.5 96.5h277q2 -15 3 -59.5t-1 -77.5q-9 -182 -99.5 -261.5t-289.5 -79.5zM357 746h237q1 38 1 73t-1 61t-2 36q-3 51 -28.5 73t-85.5 22q-64 0 -89.5 -22.5t-27.5 -72.5q-1 -44 -2.5 -86.5t-1.5 -83.5zM515 1280l-204 271h190l205 -271h-191zM226 1280
l-205 271h191l204 -271h-190z" />
    <glyph glyph-name="uni0206" unicode="&#x206;" horiz-adv-x="856" 
d="M102 0v1600h699v-246h-421v-419h401v-245h-401v-444h421v-246h-699zM451 1968q155 0 227.5 -67.5t82.5 -220.5h-172q0 77 -32.5 111.5t-105.5 34.5t-105.5 -34.5t-32.5 -111.5h-172q8 154 81 221t229 67z" />
    <glyph glyph-name="uni0207" unicode="&#x207;" horiz-adv-x="935" 
d="M482 -19q-212 0 -302.5 81t-101.5 260q-3 51 -4 127t-1 159t1 154.5t4 111.5q12 186 105.5 265.5t294.5 79.5q202 0 293 -78t100 -256q1 -24 1.5 -80.5t0 -124.5t-3.5 -127h-514q0 -62 1.5 -126.5t4.5 -135.5q2 -54 29.5 -77.5t90.5 -23.5q60 0 84 23.5t27 79.5
q2 30 2.5 69.5t-2.5 96.5h277q2 -15 3 -59.5t-1 -77.5q-9 -182 -99.5 -261.5t-289.5 -79.5zM357 746h237q1 38 1 73t-1 61t-2 36q-3 51 -28.5 73t-85.5 22q-64 0 -89.5 -22.5t-27.5 -72.5q-1 -44 -2.5 -86.5t-1.5 -83.5zM474 1568q155 0 227.5 -67.5t82.5 -220.5h-172
q0 77 -32.5 111.5t-105.5 34.5t-105.5 -34.5t-32.5 -111.5h-172q8 154 81 221t229 67z" />
    <glyph glyph-name="uni0208" unicode="&#x208;" horiz-adv-x="482" 
d="M102 0v1600h278v-1600h-278zM282 1680l-204 271h190l205 -271h-191zM-7 1680l-205 271h191l204 -271h-190z" />
    <glyph glyph-name="uni0209" unicode="&#x209;" horiz-adv-x="470" 
d="M96 0v1200h278v-1200h-278zM276 1280l-204 271h190l205 -271h-191zM-13 1280l-205 271h191l204 -271h-190z" />
    <glyph glyph-name="uni020A" unicode="&#x20a;" horiz-adv-x="482" 
d="M102 0v1600h278v-1600h-278zM241 1968q155 0 227.5 -67.5t82.5 -220.5h-172q0 77 -32.5 111.5t-105.5 34.5t-105.5 -34.5t-32.5 -111.5h-172q8 154 81 221t229 67z" />
    <glyph glyph-name="uni020B" unicode="&#x20b;" horiz-adv-x="470" 
d="M96 0v1200h278v-1200h-278zM235 1568q155 0 227.5 -67.5t82.5 -220.5h-172q0 77 -32.5 111.5t-105.5 34.5t-105.5 -34.5t-32.5 -111.5h-172q8 154 81 221t229 67z" />
    <glyph glyph-name="uni020C" unicode="&#x20c;" 
d="M508 -19q-221 0 -318.5 89t-102.5 295q-2 118 -3 225t-1 211t1 211.5t3 224.5q5 205 102.5 293.5t318.5 88.5q217 0 314.5 -88.5t103.5 -293.5q5 -118 7 -225t2 -211.5t-2 -211.5t-7 -224q-6 -206 -103.5 -295t-314.5 -89zM508 209q74 0 106.5 32t33.5 107q5 117 7.5 229
t2.5 223.5t-2.5 224.5t-7.5 228q-1 75 -33.5 107t-106.5 32t-107 -32t-35 -107q-5 -115 -7.5 -227.5t-2.5 -224t2.5 -224t7.5 -229.5q2 -75 35 -107t107 -32zM550 1680l-204 271h190l205 -271h-191zM261 1680l-205 271h191l204 -271h-190z" />
    <glyph glyph-name="uni020D" unicode="&#x20d;" horiz-adv-x="974" 
d="M488 -19q-146 0 -233.5 38t-129 122.5t-48.5 222.5q-2 42 -3 104t-1 131.5t1 132.5t3 105q8 140 50 224t129 121t232 37q148 0 235 -39t127 -123t47 -220q2 -42 3.5 -105t1.5 -131.5t-1.5 -131t-3.5 -105.5q-8 -138 -48 -222.5t-127 -122.5t-234 -38zM488 189q70 0 99 27
t30 79q3 88 4.5 164.5t1.5 148t-1.5 144.5t-4.5 155q-1 51 -30.5 77.5t-98.5 26.5q-68 0 -99.5 -28.5t-33.5 -76.5q-2 -64 -3 -137.5t-1 -152.5t1.5 -159.5t4.5 -161.5q2 -52 32.5 -79t98.5 -27zM529 1280l-204 271h190l205 -271h-191zM240 1280l-205 271h191l204 -271h-190
z" />
    <glyph glyph-name="uni020E" unicode="&#x20e;" 
d="M508 -19q-221 0 -318.5 89t-102.5 295q-2 118 -3 225t-1 211t1 211.5t3 224.5q5 205 102.5 293.5t318.5 88.5q217 0 314.5 -88.5t103.5 -293.5q5 -118 7 -225t2 -211.5t-2 -211.5t-7 -224q-6 -206 -103.5 -295t-314.5 -89zM508 209q74 0 106.5 32t33.5 107q5 117 7.5 229
t2.5 223.5t-2.5 224.5t-7.5 228q-1 75 -33.5 107t-106.5 32t-107 -32t-35 -107q-5 -115 -7.5 -227.5t-2.5 -224t2.5 -224t7.5 -229.5q2 -75 35 -107t107 -32zM510 1968q155 0 227.5 -67.5t82.5 -220.5h-172q0 77 -32.5 111.5t-105.5 34.5t-105.5 -34.5t-32.5 -111.5h-172
q8 154 81 221t229 67z" />
    <glyph glyph-name="uni020F" unicode="&#x20f;" horiz-adv-x="974" 
d="M488 -19q-146 0 -233.5 38t-129 122.5t-48.5 222.5q-2 42 -3 104t-1 131.5t1 132.5t3 105q8 140 50 224t129 121t232 37q148 0 235 -39t127 -123t47 -220q2 -42 3.5 -105t1.5 -131.5t-1.5 -131t-3.5 -105.5q-8 -138 -48 -222.5t-127 -122.5t-234 -38zM488 189q70 0 99 27
t30 79q3 88 4.5 164.5t1.5 148t-1.5 144.5t-4.5 155q-1 51 -30.5 77.5t-98.5 26.5q-68 0 -99.5 -28.5t-33.5 -76.5q-2 -64 -3 -137.5t-1 -152.5t1.5 -159.5t4.5 -161.5q2 -52 32.5 -79t98.5 -27zM488 1568q155 0 227.5 -67.5t82.5 -220.5h-172q0 77 -32.5 111.5t-105.5 34.5
t-105.5 -34.5t-32.5 -111.5h-172q8 154 81 221t229 67z" />
    <glyph glyph-name="uni0210" unicode="&#x210;" horiz-adv-x="979" 
d="M102 0v1600h388q213 0 307.5 -86t101.5 -284q2 -62 3 -109.5t0 -94t-3 -105.5q-4 -125 -42 -204t-119 -120l184 -597h-295l-151 551h-96v-551h-278zM380 796h110q65 0 96.5 28.5t34.5 82.5q3 55 4 111.5t0 113.5t-4 112q-3 54 -34.5 82t-96.5 28h-110v-558zM518 1680
l-204 271h190l205 -271h-191zM229 1680l-205 271h191l204 -271h-190z" />
    <glyph glyph-name="uni0211" unicode="&#x211;" horiz-adv-x="718" 
d="M96 0v1200h285v-145h51q13 86 60 119t122 33q25 0 50 -1.5t40 -3.5v-212h-87q-103 0 -161.5 -29.5t-74.5 -101.5v-859h-285zM435 1280l-204 271h190l205 -271h-191zM146 1280l-205 271h191l204 -271h-190z" />
    <glyph glyph-name="uni0212" unicode="&#x212;" horiz-adv-x="979" 
d="M102 0v1600h388q213 0 307.5 -86t101.5 -284q2 -62 3 -109.5t0 -94t-3 -105.5q-4 -125 -42 -204t-119 -120l184 -597h-295l-151 551h-96v-551h-278zM380 796h110q65 0 96.5 28.5t34.5 82.5q3 55 4 111.5t0 113.5t-4 112q-3 54 -34.5 82t-96.5 28h-110v-558zM477 1968
q155 0 227.5 -67.5t82.5 -220.5h-172q0 77 -32.5 111.5t-105.5 34.5t-105.5 -34.5t-32.5 -111.5h-172q8 154 81 221t229 67z" />
    <glyph glyph-name="uni0213" unicode="&#x213;" horiz-adv-x="718" 
d="M96 0v1200h285v-145h51q13 86 60 119t122 33q25 0 50 -1.5t40 -3.5v-212h-87q-103 0 -161.5 -29.5t-74.5 -101.5v-859h-285zM394 1568q155 0 227.5 -67.5t82.5 -220.5h-172q0 77 -32.5 111.5t-105.5 34.5t-105.5 -34.5t-32.5 -111.5h-172q8 154 81 221t229 67z" />
    <glyph glyph-name="uni0214" unicode="&#x214;" horiz-adv-x="1014" 
d="M508 -19q-223 0 -320 88.5t-100 293.5q-4 308 -4 619t4 618h278q-3 -205 -3.5 -420t0.5 -430.5t3 -419.5q0 -59 36 -90t106 -31t105 31t35 90q2 204 3.5 419.5t1 430.5t-4.5 420h278q5 -307 5 -618t-5 -619q-2 -205 -99 -293.5t-319 -88.5zM549 1680l-204 271h190
l205 -271h-191zM260 1680l-205 271h191l204 -271h-190z" />
    <glyph glyph-name="uni0215" unicode="&#x215;" horiz-adv-x="1022" 
d="M367 -19q-128 0 -203.5 75.5t-75.5 249.5v894h280l4 -918q0 -50 24.5 -74t77.5 -24q50 0 100 24.5t69 66.5v925h284v-1200h-284v127h-38q-47 -79 -104 -112.5t-134 -33.5zM545 1280l-204 271h190l205 -271h-191zM256 1280l-205 271h191l204 -271h-190z" />
    <glyph glyph-name="uni0216" unicode="&#x216;" horiz-adv-x="1014" 
d="M508 -19q-223 0 -320 88.5t-100 293.5q-4 308 -4 619t4 618h278q-3 -205 -3.5 -420t0.5 -430.5t3 -419.5q0 -59 36 -90t106 -31t105 31t35 90q2 204 3.5 419.5t1 430.5t-4.5 420h278q5 -307 5 -618t-5 -619q-2 -205 -99 -293.5t-319 -88.5zM508 1968q155 0 227.5 -67.5
t82.5 -220.5h-172q0 77 -32.5 111.5t-105.5 34.5t-105.5 -34.5t-32.5 -111.5h-172q8 154 81 221t229 67z" />
    <glyph glyph-name="uni0217" unicode="&#x217;" horiz-adv-x="1022" 
d="M367 -19q-128 0 -203.5 75.5t-75.5 249.5v894h280l4 -918q0 -50 24.5 -74t77.5 -24q50 0 100 24.5t69 66.5v925h284v-1200h-284v127h-38q-47 -79 -104 -112.5t-134 -33.5zM504 1568q155 0 227.5 -67.5t82.5 -220.5h-172q0 77 -32.5 111.5t-105.5 34.5t-105.5 -34.5
t-32.5 -111.5h-172q8 154 81 221t229 67z" />
    <glyph glyph-name="uni0218" unicode="&#x218;" horiz-adv-x="979" 
d="M491 -19q-215 0 -311 88.5t-105 294.5q-1 36 -1 76t2 80.5t6 76.5h263q-4 -76 -5 -148.5t5 -135.5q4 -51 41 -77.5t105 -26.5q64 0 99 26.5t41 77.5q4 36 5 72t-0.5 72t-4.5 71q-4 48 -35 84t-82 47l-172 40q-101 23 -160 72t-85 123.5t-29 174.5q-1 47 -1 87t1 82
q6 136 50.5 220t135.5 122.5t237 38.5q212 0 308 -88t104 -293q2 -46 0.5 -110t-4.5 -121h-267q3 72 4 142t-2 140q-2 50 -38.5 76.5t-105.5 26.5q-65 0 -101.5 -26.5t-41.5 -76.5q-6 -55 -6 -110t6 -110q4 -47 27 -81.5t74 -46.5l153 -32q110 -24 176.5 -74.5t98 -127
t35.5 -179.5q1 -26 1 -54t-1 -56t-2 -54q-9 -206 -105.5 -294.5t-312.5 -88.5zM389 -444l80 150h-118v214h296v-189l-108 -175h-150z" />
    <glyph glyph-name="uni0219" unicode="&#x219;" horiz-adv-x="892" 
d="M441 -19q-196 0 -279.5 79.5t-92.5 261.5q-1 38 0 72t2 49h249q-3 -58 -2 -92t2 -60q2 -56 32 -79t89 -23q69 0 100.5 24t32.5 80v32.5v12v30.5q-1 36 -17.5 59.5t-59.5 34.5l-143 37q-94 25 -159 64t-99 98t-34 147v33.5v30.5q1 186 89 266.5t303 80.5
q195 0 278.5 -77.5t91.5 -256.5q2 -22 1 -65.5t-3 -58.5h-258q1 22 1.5 52t0 58.5t-1.5 44.5q-3 51 -26.5 73t-83.5 22q-64 0 -89 -22t-27 -73q0 -6 -1 -23t-1 -60q1 -46 18 -73t68 -39l127 -29q143 -33 214.5 -103.5t71.5 -206.5v-33.5v-33.5q-1 -179 -91.5 -256.5
t-302.5 -77.5zM345 -444l80 150h-118v214h296v-189l-108 -175h-150z" />
    <glyph glyph-name="uni021A" unicode="&#x21a;" horiz-adv-x="841" 
d="M281 0v1354h-270v246h819v-246h-270v-1354h-279zM322 -444l80 150h-118v214h296v-189l-108 -175h-150z" />
    <glyph glyph-name="uni021B" unicode="&#x21b;" horiz-adv-x="707" 
d="M572 -19q-228 0 -325.5 79t-98.5 266l-2 664h-116v210h122v340h283v-340h222v-210h-229l3 -697q0 -63 31.5 -84t110.5 -21q27 0 51.5 1t54.5 1v-199q-24 -4 -49.5 -7t-57.5 -3zM329 -444l80 150h-118v214h296v-189l-108 -175h-150z" />
    <glyph glyph-name="uni022A" unicode="&#x22a;" 
d="M508 -19q-221 0 -318.5 89t-102.5 295q-2 118 -3 225t-1 211t1 211.5t3 224.5q5 205 102.5 293.5t318.5 88.5q217 0 314.5 -88.5t103.5 -293.5q5 -118 7 -225t2 -211.5t-2 -211.5t-7 -224q-6 -206 -103.5 -295t-314.5 -89zM508 209q74 0 106.5 32t33.5 107q5 117 7.5 229
t2.5 223.5t-2.5 224.5t-7.5 228q-1 75 -33.5 107t-106.5 32t-107 -32t-35 -107q-5 -115 -7.5 -227.5t-2.5 -224t2.5 -224t7.5 -229.5q2 -75 35 -107t107 -32zM563 1710v188h188v-188h-188zM268 1710v188h188v-188h-188zM171 2085h677v-126h-677v126z" />
    <glyph glyph-name="uni022B" unicode="&#x22b;" horiz-adv-x="974" 
d="M488 -19q-146 0 -233.5 38t-129 122.5t-48.5 222.5q-2 42 -3 104t-1 131.5t1 132.5t3 105q8 140 50 224t129 121t232 37q148 0 235 -39t127 -123t47 -220q2 -42 3.5 -105t1.5 -131.5t-1.5 -131t-3.5 -105.5q-8 -138 -48 -222.5t-127 -122.5t-234 -38zM488 189q70 0 99 27
t30 79q3 88 4.5 164.5t1.5 148t-1.5 144.5t-4.5 155q-1 51 -30.5 77.5t-98.5 26.5q-68 0 -99.5 -28.5t-33.5 -76.5q-2 -64 -3 -137.5t-1 -152.5t1.5 -159.5t4.5 -161.5q2 -52 32.5 -79t98.5 -27zM541 1310v188h188v-188h-188zM246 1310v188h188v-188h-188zM149 1685h677
v-126h-677v126z" />
    <glyph glyph-name="uni022C" unicode="&#x22c;" 
d="M508 -19q-221 0 -318.5 89t-102.5 295q-2 118 -3 225t-1 211t1 211.5t3 224.5q5 205 102.5 293.5t318.5 88.5q217 0 314.5 -88.5t103.5 -293.5q5 -118 7 -225t2 -211.5t-2 -211.5t-7 -224q-6 -206 -103.5 -295t-314.5 -89zM508 209q74 0 106.5 32t33.5 107q5 117 7.5 229
t2.5 223.5t-2.5 224.5t-7.5 228q-1 75 -33.5 107t-106.5 32t-107 -32t-35 -107q-5 -115 -7.5 -227.5t-2.5 -224t2.5 -224t7.5 -229.5q2 -75 35 -107t107 -32zM668 1893h110q-6 -112 -47 -161.5t-116 -49.5q-47 0 -74.5 14t-46.5 32.5t-37.5 33t-46.5 14.5q-31 0 -42.5 -20.5
t-16.5 -60.5h-110q9 116 49.5 169t119.5 53q47 0 74 -14t44.5 -32.5t36 -32t48.5 -13.5t42 17.5t13 50.5zM171 2134h677v-126h-677v126z" />
    <glyph glyph-name="uni022D" unicode="&#x22d;" horiz-adv-x="974" 
d="M488 -19q-146 0 -233.5 38t-129 122.5t-48.5 222.5q-2 42 -3 104t-1 131.5t1 132.5t3 105q8 140 50 224t129 121t232 37q148 0 235 -39t127 -123t47 -220q2 -42 3.5 -105t1.5 -131.5t-1.5 -131t-3.5 -105.5q-8 -138 -48 -222.5t-127 -122.5t-234 -38zM488 189q70 0 99 27
t30 79q3 88 4.5 164.5t1.5 148t-1.5 144.5t-4.5 155q-1 51 -30.5 77.5t-98.5 26.5q-68 0 -99.5 -28.5t-33.5 -76.5q-2 -64 -3 -137.5t-1 -152.5t1.5 -159.5t4.5 -161.5q2 -52 32.5 -79t98.5 -27zM646 1493h110q-6 -112 -47 -161.5t-116 -49.5q-47 0 -74.5 14t-46.5 32.5
t-37.5 33t-46.5 14.5q-31 0 -42.5 -20.5t-16.5 -60.5h-110q9 116 49.5 169t119.5 53q47 0 74 -14t44.5 -32.5t36 -32t48.5 -13.5t42 17.5t13 50.5zM149 1734h677v-126h-677v126z" />
    <glyph glyph-name="uni0230" unicode="&#x230;" 
d="M508 -19q-221 0 -318.5 89t-102.5 295q-2 118 -3 225t-1 211t1 211.5t3 224.5q5 205 102.5 293.5t318.5 88.5q217 0 314.5 -88.5t103.5 -293.5q5 -118 7 -225t2 -211.5t-2 -211.5t-7 -224q-6 -206 -103.5 -295t-314.5 -89zM508 209q74 0 106.5 32t33.5 107q5 117 7.5 229
t2.5 223.5t-2.5 224.5t-7.5 228q-1 75 -33.5 107t-106.5 32t-107 -32t-35 -107q-5 -115 -7.5 -227.5t-2.5 -224t2.5 -224t7.5 -229.5q2 -75 35 -107t107 -32zM414 1680v188h188v-188h-188zM171 2085h677v-126h-677v126z" />
    <glyph glyph-name="uni0231" unicode="&#x231;" horiz-adv-x="974" 
d="M488 -19q-146 0 -233.5 38t-129 122.5t-48.5 222.5q-2 42 -3 104t-1 131.5t1 132.5t3 105q8 140 50 224t129 121t232 37q148 0 235 -39t127 -123t47 -220q2 -42 3.5 -105t1.5 -131.5t-1.5 -131t-3.5 -105.5q-8 -138 -48 -222.5t-127 -122.5t-234 -38zM488 189q70 0 99 27
t30 79q3 88 4.5 164.5t1.5 148t-1.5 144.5t-4.5 155q-1 51 -30.5 77.5t-98.5 26.5q-68 0 -99.5 -28.5t-33.5 -76.5q-2 -64 -3 -137.5t-1 -152.5t1.5 -159.5t4.5 -161.5q2 -52 32.5 -79t98.5 -27zM393 1280v188h188v-188h-188zM149 1685h677v-126h-677v126z" />
    <glyph glyph-name="uni0232" unicode="&#x232;" horiz-adv-x="897" 
d="M309 0v508h-32l-259 1092h284l84 -398l34 -468h57l34 468l84 398h284l-260 -1092h-31v-508h-279zM111 1815h677v-126h-677v126z" />
    <glyph glyph-name="uni0233" unicode="&#x233;" horiz-adv-x="910" 
d="M225 -420q-35 0 -75.5 4t-78.5 10v206q29 -1 76 -2.5t78 -1.5q85 0 118.5 23.5t42.5 79.5l16 101h-150l-219 1200h288l59 -547l49 -448h72l38 448l55 547h288l-213 -1279q-19 -111 -61.5 -187t-132.5 -115t-250 -39zM117 1415h677v-126h-677v126z" />
    <glyph glyph-name="uni0237" unicode="&#x237;" horiz-adv-x="477" 
d="M-30 -424q-36 0 -78.5 4t-79.5 10v206q29 -1 76.5 -2.5t80.5 -1.5q64 0 95.5 26t31.5 74v1308h285v-1282q0 -183 -101.5 -262.5t-309.5 -79.5z" />
    <glyph glyph-name="uni0259" unicode="&#x259;" horiz-adv-x="935" 
d="M454 1219q211 0 302 -80.5t102 -260.5q2 -50 3.5 -126.5t1.5 -159.5t-1.5 -154.5t-3.5 -111.5q-12 -185 -106 -265t-295 -80t-292.5 78t-99.5 256q-1 24 -1.5 80.5t0 124.5t3.5 127h513q0 63 -1.5 127t-4.5 135q-1 55 -28.5 78t-91.5 23q-59 0 -83.5 -23.5t-27.5 -79.5
q-1 -30 -2 -69t2 -97h-276q-1 15 -2 59.5t0 77.5q8 183 99 262t290 79zM578 454h-237v-73t0.5 -61t1.5 -36q3 -51 29.5 -73t84.5 -22q65 0 90.5 22.5t26.5 72.5q2 45 3 87.5t1 82.5z" />
    <glyph glyph-name="uni02B9" unicode="&#x2b9;" horiz-adv-x="419" 
d="M138 1052l-54 276v272h251v-272l-54 -276h-143z" />
    <glyph glyph-name="uni02BA" unicode="&#x2ba;" horiz-adv-x="813" 
d="M135 1052l-51 276v272h239v-272l-51 -276h-137zM541 1052l-50 276v272h239v-272l-51 -276h-138z" />
    <glyph glyph-name="uni02BB" unicode="&#x2bb;" horiz-adv-x="464" 
d="M342 1644l-80 -150h118v-214h-296v189l108 175h150z" />
    <glyph glyph-name="uni02BC" unicode="&#x2bc;" horiz-adv-x="419" 
d="M138 1052l-54 276v272h251v-272l-54 -276h-143z" />
    <glyph glyph-name="uni02BE" unicode="&#x2be;" horiz-adv-x="466" 
d="M92 1088v148q52 -1 93.5 33.5t41.5 84.5t-42.5 84.5t-102.5 33.5v148q83 0 151.5 -35.5t109.5 -96t41 -134.5t-42.5 -134.5t-109.5 -96.5t-140 -35z" />
    <glyph glyph-name="uni02BF" unicode="&#x2bf;" horiz-adv-x="466" 
d="M374 1088q-73 -1 -139.5 35t-109.5 96.5t-43 134.5t41 134.5t109.5 96t151.5 35.5v-148q-60 1 -102.5 -33.5t-42.5 -84.5t41 -84.5t94 -33.5v-148z" />
    <glyph glyph-name="circumflex" unicode="&#x2c6;" horiz-adv-x="685" 
d="M84 1282l175 271h168l175 -271h-186l-73 126l-74 -126h-185z" />
    <glyph glyph-name="caron" unicode="&#x2c7;" horiz-adv-x="669" 
d="M260 1280l-175 271h168l82 -140l82 140h167l-174 -271h-150z" />
    <glyph glyph-name="uni02C8" unicode="&#x2c8;" horiz-adv-x="416" 
d="M84 1600h248v-744h-248v744z" />
    <glyph glyph-name="uni02C9" unicode="&#x2c9;" horiz-adv-x="944" 
d="M118 1415h677v-126h-677v126z" />
    <glyph glyph-name="uni02CA" unicode="&#x2ca;" horiz-adv-x="640" 
d="M225 1052h-141l233 548h239z" />
    <glyph glyph-name="uni02CB" unicode="&#x2cb;" horiz-adv-x="640" 
d="M414 1052l-330 548h239l233 -548h-142z" />
    <glyph glyph-name="uni02CC" unicode="&#x2cc;" horiz-adv-x="416" 
d="M84 376h248v-776h-248v776z" />
    <glyph glyph-name="breve" unicode="&#x2d8;" horiz-adv-x="786" 
d="M394 1270q-156 0 -229 67t-81 221h172q0 -77 32.5 -112t105.5 -35t105.5 34.5t32.5 112.5h172q-10 -154 -82.5 -221t-227.5 -67z" />
    <glyph glyph-name="dotaccent" unicode="&#x2d9;" horiz-adv-x="413" 
d="M114 1280v188h188v-188h-188z" />
    <glyph glyph-name="ring" unicode="&#x2da;" horiz-adv-x="738" 
d="M273 1270q-85 0 -145.5 61t-60.5 146t60.5 145.5t145.5 60.5q86 0 146.5 -60.5t60.5 -145.5t-60.5 -146t-146.5 -61zM273 1415q27 0 44.5 18t17.5 44t-18 43.5t-44 17.5q-25 0 -43 -17.5t-18 -43.5t18 -44t43 -18z" />
    <glyph glyph-name="ogonek" unicode="&#x2db;" horiz-adv-x="484" 
d="M388 -330h-62q-144 0 -204.5 56.5t-42.5 183.5l14 90h145l-14 -90q-8 -57 16.5 -82t85.5 -25h62v-133z" />
    <glyph glyph-name="tilde" unicode="&#x2dc;" horiz-adv-x="818" 
d="M566 1492h110q-6 -112 -47 -161.5t-116 -49.5q-47 0 -74.5 14t-46.5 32.5t-37.5 33t-46.5 14.5q-31 0 -42.5 -20.5t-16.5 -60.5h-110q9 116 49.5 169t119.5 53q47 0 74 -14t44.5 -32.5t36 -32t48.5 -13.5t42 17.5t13 50.5z" />
    <glyph glyph-name="hungarumlaut" unicode="&#x2dd;" horiz-adv-x="849" 
d="M65 1282l224 272h192l-225 -272h-191zM355 1282l225 272h191l-224 -272h-192z" />
    <glyph glyph-name="gravecomb" unicode="&#x300;" horiz-adv-x="0" 
d="M259 1280l-181 271h198l172 -271h-189z" />
    <glyph glyph-name="acutecomb" unicode="&#x301;" horiz-adv-x="0" 
d="M66 1280l190 271h197l-199 -271h-188z" />
    <glyph glyph-name="uni0302" unicode="&#x302;" horiz-adv-x="0" 
d="M84 1282l175 271h168l175 -271h-186l-73 126l-74 -126h-185z" />
    <glyph glyph-name="tildecomb" unicode="&#x303;" horiz-adv-x="0" 
d="M566 1492h110q-6 -112 -47 -161.5t-116 -49.5q-47 0 -74.5 14t-46.5 32.5t-37.5 33t-46.5 14.5q-31 0 -42.5 -20.5t-16.5 -60.5h-110q9 116 49.5 169t119.5 53q47 0 74 -14t44.5 -32.5t36 -32t48.5 -13.5t42 17.5t13 50.5z" />
    <glyph glyph-name="uni0304" unicode="&#x304;" horiz-adv-x="0" 
d="M118 1415h677v-126h-677v126z" />
    <glyph glyph-name="uni0306" unicode="&#x306;" horiz-adv-x="0" 
d="M394 1270q-156 0 -229 67t-81 221h172q0 -77 32.5 -112t105.5 -35t105.5 34.5t32.5 112.5h172q-10 -154 -82.5 -221t-227.5 -67z" />
    <glyph glyph-name="uni0307" unicode="&#x307;" horiz-adv-x="0" 
d="M114 1280v188h188v-188h-188z" />
    <glyph glyph-name="uni0308" unicode="&#x308;" horiz-adv-x="0" 
d="M413 1310v188h188v-188h-188zM118 1310v188h188v-188h-188z" />
    <glyph glyph-name="hookabovecomb" unicode="&#x309;" horiz-adv-x="0" 
d="M236 1255l10 56q10 61 -11 82t-92 21h-64v131h64q142 0 204.5 -54.5t40.5 -179.5l-9 -56h-143z" />
    <glyph glyph-name="uni030A" unicode="&#x30a;" horiz-adv-x="0" 
d="M273 1270q-85 0 -145.5 61t-60.5 146t60.5 145.5t145.5 60.5q86 0 146.5 -60.5t60.5 -145.5t-60.5 -146t-146.5 -61zM273 1415q27 0 44.5 18t17.5 44t-18 43.5t-44 17.5q-25 0 -43 -17.5t-18 -43.5t18 -44t43 -18z" />
    <glyph glyph-name="uni030B" unicode="&#x30b;" horiz-adv-x="0" 
d="M65 1282l224 272h192l-225 -272h-191zM355 1282l225 272h191l-224 -272h-192z" />
    <glyph glyph-name="uni030C" unicode="&#x30c;" horiz-adv-x="0" 
d="M259 1280l-175 271h168l82 -140l82 140h167l-174 -271h-150z" />
    <glyph glyph-name="uni030F" unicode="&#x30f;" horiz-adv-x="0" 
d="M561 1280l-204 271h190l205 -271h-191zM272 1280l-205 271h191l204 -271h-190z" />
    <glyph glyph-name="uni0311" unicode="&#x311;" horiz-adv-x="0" 
d="M394 1568q155 0 227.5 -67.5t82.5 -220.5h-172q0 77 -32.5 111.5t-105.5 34.5t-105.5 -34.5t-32.5 -111.5h-172q8 154 81 221t229 67z" />
    <glyph glyph-name="uni0312" unicode="&#x312;" horiz-adv-x="0" 
d="M342 1644l-80 -150h118v-214h-296v189l108 175h150z" />
    <glyph glyph-name="uni031B" unicode="&#x31b;" horiz-adv-x="0" 
d="M200 1076q-7 0 -18.5 0.5t-27.5 3.5v134h30h16q57 0 82.5 36t30.5 119q1 19 1.5 57.5t0 77t-1.5 57.5h151q1 -19 1.5 -57.5t0 -77t-1.5 -57.5q-9 -151 -73 -222t-191 -71z" />
    <glyph glyph-name="dotbelowcomb" unicode="&#x323;" horiz-adv-x="0" 
d="M97 -268v188h188v-188h-188z" />
    <glyph glyph-name="uni0324" unicode="&#x324;" horiz-adv-x="0" 
d="M413 -240v188h188v-188h-188zM118 -240v188h188v-188h-188z" />
    <glyph glyph-name="uni0326" unicode="&#x326;" horiz-adv-x="0" 
d="M122 -444l80 150h-118v214h296v-189l-108 -175h-150z" />
    <glyph glyph-name="uni0327" unicode="&#x327;" horiz-adv-x="0" 
d="M75 -330v133h61q61 0 86 25t17 82l-15 90h145l14 -90q18 -127 -41.5 -183.5t-204.5 -56.5h-62z" />
    <glyph glyph-name="uni0328" unicode="&#x328;" horiz-adv-x="0" 
d="M388 -330h-62q-144 0 -204.5 56.5t-42.5 183.5l14 90h145l-14 -90q-8 -57 16.5 -82t85.5 -25h62v-133z" />
    <glyph glyph-name="uni032E" unicode="&#x32e;" horiz-adv-x="0" 
d="M394 -368q-156 0 -229 67t-81 221h172q0 -77 32.5 -112t105.5 -35t105.5 34.5t32.5 112.5h172q-10 -154 -82.5 -221t-227.5 -67z" />
    <glyph glyph-name="uni0331" unicode="&#x331;" horiz-adv-x="0" 
d="M118 -83h677v-126h-677v126z" />
    <glyph glyph-name="uni0335" unicode="&#x335;" horiz-adv-x="0" 
d="M84 787h567v-139h-567v139z" />
    <glyph glyph-name="pi" unicode="&#x3c0;" horiz-adv-x="1402" 
d="M1181 -8q-150 0 -239.5 34.5t-130.5 109.5t-47 195v620h-166v-951h-282v951h-196v245h1139v-245h-214v-649q1 -56 28 -79.5t108 -23.5q26 0 48.5 1t52.5 1v-199q-22 -6 -47 -8t-54 -2z" />
    <glyph glyph-name="uni1E08" unicode="&#x1e08;" horiz-adv-x="999" 
d="M508 -19q-221 0 -318.5 88.5t-102.5 294.5q-2 115 -3 223t-1 213.5t1 214t3 225.5q3 196 104 287.5t317 91.5q211 0 310.5 -93t105.5 -288q1 -36 1 -76t-1 -80t-2 -75h-278q1 39 2 81.5t1 84.5t-2 82q-1 73 -33.5 104.5t-103.5 31.5q-73 0 -106.5 -31.5t-35.5 -104.5
q-3 -117 -5 -230.5t-2 -225t2 -223.5t5 -229q2 -75 35.5 -107t106.5 -32q76 0 109.5 32t35.5 107q2 43 2.5 81t0 79t-2.5 90h279q2 -56 2 -118.5t-2 -114.5q-6 -206 -104 -294.5t-320 -88.5zM279 -312v133h61q61 0 86 25t17 82l-15 90h145l14 -90q18 -127 -41.5 -183.5
t-204.5 -56.5h-62zM415 1680l190 271h197l-199 -271h-188z" />
    <glyph glyph-name="uni1E09" unicode="&#x1e09;" horiz-adv-x="936" 
d="M592 745q1 22 1.5 54t0 64.5t-1.5 52.5q-2 48 -25.5 71.5t-88.5 23.5q-64 0 -89.5 -22t-27.5 -73q-3 -90 -4.5 -168t-1.5 -151t1.5 -147t4.5 -159q2 -54 29.5 -78t90.5 -24q64 0 86.5 26t24.5 78q2 31 2 69.5t-2 96.5h276q3 -16 3.5 -59.5t-1.5 -77.5
q-8 -182 -98.5 -261.5t-290.5 -79.5q-211 0 -301.5 81t-101.5 260q-3 50 -4 126.5t-1 159.5t1 154.5t4 111.5q12 186 105.5 265.5t294.5 79.5q202 0 293 -77.5t99 -256.5q2 -34 1.5 -80.5t-3.5 -59.5h-276zM241 -312v133h61q61 0 86 25t17 82l-15 90h145l14 -90
q18 -127 -41.5 -183.5t-204.5 -56.5h-62zM392 1280l190 271h197l-199 -271h-188z" />
    <glyph glyph-name="uni1E0C" unicode="&#x1e0c;" horiz-adv-x="1005" 
d="M102 0v1600h406q215 0 310.5 -90.5t99.5 -297.5q3 -147 4 -279.5t0 -264t-4 -278.5q-4 -208 -99.5 -299t-309.5 -91h-407zM380 246h129q65 0 97.5 28.5t33.5 83.5q3 114 4.5 224t1.5 219t-1.5 219.5t-4.5 223.5q-1 54 -34 82t-98 28h-128v-1108zM372 -268v188h188v-188
h-188z" />
    <glyph glyph-name="uni1E0D" unicode="&#x1e0d;" horiz-adv-x="1012" 
d="M351 -19q-129 0 -197 75.5t-76 249.5q-3 55 -4 134t-1 164t1.5 162t3.5 128q8 175 78.5 250t198.5 75q97 0 146 -37.5t92 -108.5h39v527h284v-1600h-284v127h-41q-42 -70 -93.5 -108t-146.5 -38zM466 184q47 0 97 24t69 67v650q-19 43 -69 67t-97 24q-52 0 -77 -23
t-28 -68q-5 -104 -7 -216t-0.5 -221t7.5 -205q3 -52 26.5 -75.5t78.5 -23.5zM403 -268v188h188v-188h-188z" />
    <glyph glyph-name="uni1E0E" unicode="&#x1e0e;" horiz-adv-x="1005" 
d="M102 0v1600h406q215 0 310.5 -90.5t99.5 -297.5q3 -147 4 -279.5t0 -264t-4 -278.5q-4 -208 -99.5 -299t-309.5 -91h-407zM380 246h129q65 0 97.5 28.5t33.5 83.5q3 114 4.5 224t1.5 219t-1.5 219.5t-4.5 223.5q-1 54 -34 82t-98 28h-128v-1108zM128 -83h677v-126h-677
v126z" />
    <glyph glyph-name="uni1E0F" unicode="&#x1e0f;" horiz-adv-x="1012" 
d="M351 -19q-129 0 -197 75.5t-76 249.5q-3 55 -4 134t-1 164t1.5 162t3.5 128q8 175 78.5 250t198.5 75q97 0 146 -37.5t92 -108.5h39v527h284v-1600h-284v127h-41q-42 -70 -93.5 -108t-146.5 -38zM466 184q47 0 97 24t69 67v650q-19 43 -69 67t-97 24q-52 0 -77 -23
t-28 -68q-5 -104 -7 -216t-0.5 -221t7.5 -205q3 -52 26.5 -75.5t78.5 -23.5zM159 -83h677v-126h-677v126z" />
    <glyph glyph-name="uni1E14" unicode="&#x1e14;" horiz-adv-x="856" 
d="M102 0v1600h699v-246h-421v-419h401v-245h-401v-444h421v-246h-699zM113 1815h677v-126h-677v126zM328 1896l-181 271h198l172 -271h-189z" />
    <glyph glyph-name="uni1E15" unicode="&#x1e15;" horiz-adv-x="935" 
d="M482 -19q-212 0 -302.5 81t-101.5 260q-3 51 -4 127t-1 159t1 154.5t4 111.5q12 186 105.5 265.5t294.5 79.5q202 0 293 -78t100 -256q1 -24 1.5 -80.5t0 -124.5t-3.5 -127h-514q0 -62 1.5 -126.5t4.5 -135.5q2 -54 29.5 -77.5t90.5 -23.5q60 0 84 23.5t27 79.5
q2 30 2.5 69.5t-2.5 96.5h277q2 -15 3 -59.5t-1 -77.5q-9 -182 -99.5 -261.5t-289.5 -79.5zM357 746h237q1 38 1 73t-1 61t-2 36q-3 51 -28.5 73t-85.5 22q-64 0 -89.5 -22.5t-27.5 -72.5q-1 -44 -2.5 -86.5t-1.5 -83.5zM135 1415h677v-126h-677v126zM351 1497l-181 271h198
l172 -271h-189z" />
    <glyph glyph-name="uni1E16" unicode="&#x1e16;" horiz-adv-x="856" 
d="M102 0v1600h699v-246h-421v-419h401v-245h-401v-444h421v-246h-699zM113 1815h677v-126h-677v126zM366 1896l190 271h197l-199 -271h-188z" />
    <glyph glyph-name="uni1E17" unicode="&#x1e17;" horiz-adv-x="935" 
d="M482 -19q-212 0 -302.5 81t-101.5 260q-3 51 -4 127t-1 159t1 154.5t4 111.5q12 186 105.5 265.5t294.5 79.5q202 0 293 -78t100 -256q1 -24 1.5 -80.5t0 -124.5t-3.5 -127h-514q0 -62 1.5 -126.5t4.5 -135.5q2 -54 29.5 -77.5t90.5 -23.5q60 0 84 23.5t27 79.5
q2 30 2.5 69.5t-2.5 96.5h277q2 -15 3 -59.5t-1 -77.5q-9 -182 -99.5 -261.5t-289.5 -79.5zM357 746h237q1 38 1 73t-1 61t-2 36q-3 51 -28.5 73t-85.5 22q-64 0 -89.5 -22.5t-27.5 -72.5q-1 -44 -2.5 -86.5t-1.5 -83.5zM135 1415h677v-126h-677v126zM389 1497l190 271h197
l-199 -271h-188z" />
    <glyph glyph-name="uni1E1C" unicode="&#x1e1c;" horiz-adv-x="856" 
d="M102 0v1600h699v-246h-421v-419h401v-245h-401v-444h421v-246h-699zM255 -312v133h61q61 0 86 25t17 82l-15 90h145l14 -90q18 -127 -41.5 -183.5t-204.5 -56.5h-62zM451 1670q-156 0 -229 67t-81 221h172q0 -77 32.5 -112t105.5 -35t105.5 34.5t32.5 112.5h172
q-10 -154 -82.5 -221t-227.5 -67z" />
    <glyph glyph-name="uni1E1D" unicode="&#x1e1d;" horiz-adv-x="935" 
d="M482 -19q-212 0 -302.5 81t-101.5 260q-3 51 -4 127t-1 159t1 154.5t4 111.5q12 186 105.5 265.5t294.5 79.5q202 0 293 -78t100 -256q1 -24 1.5 -80.5t0 -124.5t-3.5 -127h-514q0 -62 1.5 -126.5t4.5 -135.5q2 -54 29.5 -77.5t90.5 -23.5q60 0 84 23.5t27 79.5
q2 30 2.5 69.5t-2.5 96.5h277q2 -15 3 -59.5t-1 -77.5q-9 -182 -99.5 -261.5t-289.5 -79.5zM357 746h237q1 38 1 73t-1 61t-2 36q-3 51 -28.5 73t-85.5 22q-64 0 -89.5 -22.5t-27.5 -72.5q-1 -44 -2.5 -86.5t-1.5 -83.5zM252 -312v133h61q61 0 86 25t17 82l-15 90h145
l14 -90q18 -127 -41.5 -183.5t-204.5 -56.5h-62zM474 1270q-156 0 -229 67t-81 221h172q0 -77 32.5 -112t105.5 -35t105.5 34.5t32.5 112.5h172q-10 -154 -82.5 -221t-227.5 -67z" />
    <glyph glyph-name="uni1E20" unicode="&#x1e20;" horiz-adv-x="1008" 
d="M510 -19q-146 0 -237 38.5t-135 123t-49 221.5q-3 92 -4.5 203.5t-1.5 228.5t1.5 227t4.5 199q6 142 50 229.5t135 127.5t236 40q212 0 308 -88t108 -293q3 -51 3 -115t-3 -116h-279q3 68 3 132.5t-3 132.5q-4 65 -35 92.5t-102 27.5q-74 0 -106 -27.5t-37 -92.5
q-5 -112 -8 -231t-3 -240t3 -240t8 -231q5 -66 37 -93.5t106 -27.5q77 0 111 27.5t40 93.5q2 27 2.5 62t0 69.5t-2.5 61.5h-117v243h388q4 -96 3.5 -203t-5.5 -199q-9 -206 -106.5 -294.5t-313.5 -88.5zM164 1815h677v-126h-677v126z" />
    <glyph glyph-name="uni1E21" unicode="&#x1e21;" 
d="M458 -394q-160 0 -256 47.5t-116 134.5q-3 14 -4.5 34.5t0.5 35.5q8 53 42 87t92 41v40q-55 9 -87 38.5t-39 76.5q-3 20 -2 33t2 28q5 44 45.5 70.5t103.5 35.5v40q-84 37 -125 112t-48 195q-2 32 -3 61t-1 56.5t1 52.5t3 49q9 123 53 199.5t130.5 111t223.5 34.5
q133 0 217.5 -32t127.5 -103h40q9 61 46 88.5t112 27.5v-211h-31q-50 0 -78.5 -22.5t-28.5 -83.5v-55v-37t0.5 -42t0 -45.5t-2.5 -48.5q-8 -124 -51 -200.5t-129 -111.5t-224 -35q-93 0 -135.5 -13.5t-42.5 -43.5v-7q0 -21 12 -33t49 -17.5t111 -6.5q207 -3 308 -64
t123 -180q3 -16 3.5 -40t-3.5 -50q-14 -89 -64 -143.5t-142.5 -79t-232.5 -24.5zM476 -203q55 0 97 8.5t67.5 25t34.5 42.5q5 16 4 30.5t-6 28.5q-8 24 -33 39.5t-66 23.5t-98 8q-75 0 -121 -17t-57 -54q-4 -16 -4 -31t4 -29q7 -25 30 -42t60.5 -25t87.5 -8zM472 516
q61 0 94.5 26.5t36.5 72.5q2 31 3.5 67.5t1.5 75.5t-1.5 78.5t-3.5 74.5q-3 48 -35.5 74t-94.5 26q-65 0 -98.5 -26.5t-36.5 -77.5q-1 -37 -2 -74.5t-1.5 -73.5t0.5 -71t3 -66q4 -51 37.5 -78.5t96.5 -27.5zM134 1415h677v-126h-677v126z" />
    <glyph glyph-name="uni1E24" unicode="&#x1e24;" horiz-adv-x="1015" 
d="M102 0v1600h278v-665h255v665h278v-1600h-278v690h-255v-690h-278zM413 -268v188h188v-188h-188z" />
    <glyph glyph-name="uni1E25" unicode="&#x1e25;" horiz-adv-x="1030" 
d="M96 0v1600h284v-527h49q43 71 92 108.5t146 37.5q131 0 199 -75t69 -250l3 -894h-283l-4 918q0 50 -24.5 74t-78.5 24q-50 0 -99 -24.5t-69 -66.5v-925h-284zM414 -268v188h188v-188h-188z" />
    <glyph glyph-name="uni1E2A" unicode="&#x1e2a;" horiz-adv-x="1015" 
d="M102 0v1600h278v-665h255v665h278v-1600h-278v690h-255v-690h-278zM509 -368q-156 0 -229 67t-81 221h172q0 -77 32.5 -112t105.5 -35t105.5 34.5t32.5 112.5h172q-10 -154 -82.5 -221t-227.5 -67z" />
    <glyph glyph-name="uni1E2B" unicode="&#x1e2b;" horiz-adv-x="1030" 
d="M96 0v1600h284v-527h49q43 71 92 108.5t146 37.5q131 0 199 -75t69 -250l3 -894h-283l-4 918q0 50 -24.5 74t-78.5 24q-50 0 -99 -24.5t-69 -66.5v-925h-284zM509 -368q-156 0 -229 67t-81 221h172q0 -77 32.5 -112t105.5 -35t105.5 34.5t32.5 112.5h172
q-10 -154 -82.5 -221t-227.5 -67z" />
    <glyph glyph-name="uni1E2E" unicode="&#x1e2e;" horiz-adv-x="482" 
d="M102 0v1600h278v-1600h-278zM294 1710v188h188v-188h-188zM-1 1710v188h188v-188h-188zM156 1950l190 271h197l-199 -271h-188z" />
    <glyph glyph-name="uni1E2F" unicode="&#x1e2f;" horiz-adv-x="470" 
d="M96 0v1200h278v-1200h-278zM288 1310v188h188v-188h-188zM-7 1310v188h188v-188h-188zM150 1550l190 271h197l-199 -271h-188z" />
    <glyph glyph-name="uni1E36" unicode="&#x1e36;" horiz-adv-x="795" 
d="M102 0v1600h278v-1354h390v-246h-668zM340 -268v188h188v-188h-188z" />
    <glyph glyph-name="uni1E37" unicode="&#x1e37;" horiz-adv-x="470" 
d="M96 0v1600h278v-1600h-278zM140 -268v188h188v-188h-188z" />
    <glyph glyph-name="uni1E3A" unicode="&#x1e3a;" horiz-adv-x="795" 
d="M102 0v1600h278v-1354h390v-246h-668zM96 -83h677v-126h-677v126z" />
    <glyph glyph-name="uni1E3B" unicode="&#x1e3b;" horiz-adv-x="470" 
d="M96 0v1600h278v-1600h-278zM-104 -83h677v-126h-677v126z" />
    <glyph glyph-name="uni1E42" unicode="&#x1e42;" horiz-adv-x="1618" 
d="M102 0v1600h508l126 -613l32 -740h84l30 740l128 613h506v-1600h-287v493l52 861h-90l-87 -884l-125 -469h-349l-115 469l-88 884h-89l51 -861v-493h-287zM715 -268v188h188v-188h-188z" />
    <glyph glyph-name="uni1E43" unicode="&#x1e43;" horiz-adv-x="1545" 
d="M96 0v1200h280v-127h51q42 70 87.5 108t141.5 38q90 0 152 -38.5t90 -125.5h44q42 70 97 117t151 47q125 0 194 -75t69 -250v-894h-280v918q0 52 -28 75t-76 23q-41 0 -82.5 -26.5t-65.5 -64.5v-925h-282v918q0 50 -25.5 74t-76.5 24q-46 0 -93.5 -24.5t-67.5 -66.5v-925
h-280zM681 -268v188h188v-188h-188z" />
    <glyph glyph-name="uni1E44" unicode="&#x1e44;" horiz-adv-x="1193" 
d="M102 0v1600h464l116 -509l113 -845h89l-51 686l-22 668h280v-1600h-486l-117 531l-86 825h-93l47 -744l24 -612h-278zM500 1680v188h188v-188h-188z" />
    <glyph glyph-name="uni1E45" unicode="&#x1e45;" horiz-adv-x="1030" 
d="M96 0v1200h279v-127h54q43 71 93 108.5t145 37.5q131 0 201 -75t70 -250v-894h-278v918q-1 50 -29.5 74t-82.5 24q-48 0 -101 -24.5t-72 -66.5v-925h-279zM423 1280v188h188v-188h-188z" />
    <glyph glyph-name="uni1E46" unicode="&#x1e46;" horiz-adv-x="1193" 
d="M102 0v1600h464l116 -509l113 -845h89l-51 686l-22 668h280v-1600h-486l-117 531l-86 825h-93l47 -744l24 -612h-278zM498 -268v188h188v-188h-188z" />
    <glyph glyph-name="uni1E47" unicode="&#x1e47;" horiz-adv-x="1030" 
d="M96 0v1200h279v-127h54q43 71 93 108.5t145 37.5q131 0 201 -75t70 -250v-894h-278v918q-1 50 -29.5 74t-82.5 24q-48 0 -101 -24.5t-72 -66.5v-925h-279zM423 -268v188h188v-188h-188z" />
    <glyph glyph-name="uni1E48" unicode="&#x1e48;" horiz-adv-x="1193" 
d="M102 0v1600h464l116 -509l113 -845h89l-51 686l-22 668h280v-1600h-486l-117 531l-86 825h-93l47 -744l24 -612h-278zM254 -83h677v-126h-677v126z" />
    <glyph glyph-name="uni1E49" unicode="&#x1e49;" horiz-adv-x="1030" 
d="M96 0v1200h279v-127h54q43 71 93 108.5t145 37.5q131 0 201 -75t70 -250v-894h-278v918q-1 50 -29.5 74t-82.5 24q-48 0 -101 -24.5t-72 -66.5v-925h-279zM179 -83h677v-126h-677v126z" />
    <glyph glyph-name="uni1E4C" unicode="&#x1e4c;" 
d="M508 -19q-221 0 -318.5 89t-102.5 295q-2 118 -3 225t-1 211t1 211.5t3 224.5q5 205 102.5 293.5t318.5 88.5q217 0 314.5 -88.5t103.5 -293.5q5 -118 7 -225t2 -211.5t-2 -211.5t-7 -224q-6 -206 -103.5 -295t-314.5 -89zM508 209q74 0 106.5 32t33.5 107q5 117 7.5 229
t2.5 223.5t-2.5 224.5t-7.5 228q-1 75 -33.5 107t-106.5 32t-107 -32t-35 -107q-5 -115 -7.5 -227.5t-2.5 -224t2.5 -224t7.5 -229.5q2 -75 35 -107t107 -32zM668 1893h110q-6 -112 -47 -161.5t-116 -49.5q-47 0 -74.5 14t-46.5 32.5t-37.5 33t-46.5 14.5q-31 0 -42.5 -20.5
t-16.5 -60.5h-110q9 116 49.5 169t119.5 53q47 0 74 -14t44.5 -32.5t36 -32t48.5 -13.5t42 17.5t13 50.5zM424 1999l190 271h197l-199 -271h-188z" />
    <glyph glyph-name="uni1E4D" unicode="&#x1e4d;" horiz-adv-x="974" 
d="M488 -19q-146 0 -233.5 38t-129 122.5t-48.5 222.5q-2 42 -3 104t-1 131.5t1 132.5t3 105q8 140 50 224t129 121t232 37q148 0 235 -39t127 -123t47 -220q2 -42 3.5 -105t1.5 -131.5t-1.5 -131t-3.5 -105.5q-8 -138 -48 -222.5t-127 -122.5t-234 -38zM488 189q70 0 99 27
t30 79q3 88 4.5 164.5t1.5 148t-1.5 144.5t-4.5 155q-1 51 -30.5 77.5t-98.5 26.5q-68 0 -99.5 -28.5t-33.5 -76.5q-2 -64 -3 -137.5t-1 -152.5t1.5 -159.5t4.5 -161.5q2 -52 32.5 -79t98.5 -27zM646 1493h110q-6 -112 -47 -161.5t-116 -49.5q-47 0 -74.5 14t-46.5 32.5
t-37.5 33t-46.5 14.5q-31 0 -42.5 -20.5t-16.5 -60.5h-110q9 116 49.5 169t119.5 53q47 0 74 -14t44.5 -32.5t36 -32t48.5 -13.5t42 17.5t13 50.5zM403 1599l190 271h197l-199 -271h-188z" />
    <glyph glyph-name="uni1E4E" unicode="&#x1e4e;" 
d="M508 -19q-221 0 -318.5 89t-102.5 295q-2 118 -3 225t-1 211t1 211.5t3 224.5q5 205 102.5 293.5t318.5 88.5q217 0 314.5 -88.5t103.5 -293.5q5 -118 7 -225t2 -211.5t-2 -211.5t-7 -224q-6 -206 -103.5 -295t-314.5 -89zM508 209q74 0 106.5 32t33.5 107q5 117 7.5 229
t2.5 223.5t-2.5 224.5t-7.5 228q-1 75 -33.5 107t-106.5 32t-107 -32t-35 -107q-5 -115 -7.5 -227.5t-2.5 -224t2.5 -224t7.5 -229.5q2 -75 35 -107t107 -32zM668 1893h110q-6 -112 -47 -161.5t-116 -49.5q-47 0 -74.5 14t-46.5 32.5t-37.5 33t-46.5 14.5q-31 0 -42.5 -20.5
t-16.5 -60.5h-110q9 116 49.5 169t119.5 53q47 0 74 -14t44.5 -32.5t36 -32t48.5 -13.5t42 17.5t13 50.5zM563 2029v188h188v-188h-188zM268 2029v188h188v-188h-188z" />
    <glyph glyph-name="uni1E4F" unicode="&#x1e4f;" horiz-adv-x="974" 
d="M488 -19q-146 0 -233.5 38t-129 122.5t-48.5 222.5q-2 42 -3 104t-1 131.5t1 132.5t3 105q8 140 50 224t129 121t232 37q148 0 235 -39t127 -123t47 -220q2 -42 3.5 -105t1.5 -131.5t-1.5 -131t-3.5 -105.5q-8 -138 -48 -222.5t-127 -122.5t-234 -38zM488 189q70 0 99 27
t30 79q3 88 4.5 164.5t1.5 148t-1.5 144.5t-4.5 155q-1 51 -30.5 77.5t-98.5 26.5q-68 0 -99.5 -28.5t-33.5 -76.5q-2 -64 -3 -137.5t-1 -152.5t1.5 -159.5t4.5 -161.5q2 -52 32.5 -79t98.5 -27zM646 1493h110q-6 -112 -47 -161.5t-116 -49.5q-47 0 -74.5 14t-46.5 32.5
t-37.5 33t-46.5 14.5q-31 0 -42.5 -20.5t-16.5 -60.5h-110q9 116 49.5 169t119.5 53q47 0 74 -14t44.5 -32.5t36 -32t48.5 -13.5t42 17.5t13 50.5zM541 1629v188h188v-188h-188zM246 1629v188h188v-188h-188z" />
    <glyph glyph-name="uni1E50" unicode="&#x1e50;" 
d="M508 -19q-221 0 -318.5 89t-102.5 295q-2 118 -3 225t-1 211t1 211.5t3 224.5q5 205 102.5 293.5t318.5 88.5q217 0 314.5 -88.5t103.5 -293.5q5 -118 7 -225t2 -211.5t-2 -211.5t-7 -224q-6 -206 -103.5 -295t-314.5 -89zM508 209q74 0 106.5 32t33.5 107q5 117 7.5 229
t2.5 223.5t-2.5 224.5t-7.5 228q-1 75 -33.5 107t-106.5 32t-107 -32t-35 -107q-5 -115 -7.5 -227.5t-2.5 -224t2.5 -224t7.5 -229.5q2 -75 35 -107t107 -32zM171 1815h677v-126h-677v126zM387 1897l-181 271h198l172 -271h-189z" />
    <glyph glyph-name="uni1E51" unicode="&#x1e51;" horiz-adv-x="974" 
d="M488 -19q-146 0 -233.5 38t-129 122.5t-48.5 222.5q-2 42 -3 104t-1 131.5t1 132.5t3 105q8 140 50 224t129 121t232 37q148 0 235 -39t127 -123t47 -220q2 -42 3.5 -105t1.5 -131.5t-1.5 -131t-3.5 -105.5q-8 -138 -48 -222.5t-127 -122.5t-234 -38zM488 189q70 0 99 27
t30 79q3 88 4.5 164.5t1.5 148t-1.5 144.5t-4.5 155q-1 51 -30.5 77.5t-98.5 26.5q-68 0 -99.5 -28.5t-33.5 -76.5q-2 -64 -3 -137.5t-1 -152.5t1.5 -159.5t4.5 -161.5q2 -52 32.5 -79t98.5 -27zM149 1415h677v-126h-677v126zM365 1497l-181 271h198l172 -271h-189z" />
    <glyph glyph-name="uni1E52" unicode="&#x1e52;" 
d="M508 -19q-221 0 -318.5 89t-102.5 295q-2 118 -3 225t-1 211t1 211.5t3 224.5q5 205 102.5 293.5t318.5 88.5q217 0 314.5 -88.5t103.5 -293.5q5 -118 7 -225t2 -211.5t-2 -211.5t-7 -224q-6 -206 -103.5 -295t-314.5 -89zM508 209q74 0 106.5 32t33.5 107q5 117 7.5 229
t2.5 223.5t-2.5 224.5t-7.5 228q-1 75 -33.5 107t-106.5 32t-107 -32t-35 -107q-5 -115 -7.5 -227.5t-2.5 -224t2.5 -224t7.5 -229.5q2 -75 35 -107t107 -32zM171 1815h677v-126h-677v126zM424 1897l190 271h197l-199 -271h-188z" />
    <glyph glyph-name="uni1E53" unicode="&#x1e53;" horiz-adv-x="974" 
d="M488 -19q-146 0 -233.5 38t-129 122.5t-48.5 222.5q-2 42 -3 104t-1 131.5t1 132.5t3 105q8 140 50 224t129 121t232 37q148 0 235 -39t127 -123t47 -220q2 -42 3.5 -105t1.5 -131.5t-1.5 -131t-3.5 -105.5q-8 -138 -48 -222.5t-127 -122.5t-234 -38zM488 189q70 0 99 27
t30 79q3 88 4.5 164.5t1.5 148t-1.5 144.5t-4.5 155q-1 51 -30.5 77.5t-98.5 26.5q-68 0 -99.5 -28.5t-33.5 -76.5q-2 -64 -3 -137.5t-1 -152.5t1.5 -159.5t4.5 -161.5q2 -52 32.5 -79t98.5 -27zM149 1415h677v-126h-677v126zM403 1497l190 271h197l-199 -271h-188z" />
    <glyph glyph-name="uni1E5A" unicode="&#x1e5a;" horiz-adv-x="979" 
d="M102 0v1600h388q213 0 307.5 -86t101.5 -284q2 -62 3 -109.5t0 -94t-3 -105.5q-4 -125 -42 -204t-119 -120l184 -597h-295l-151 551h-96v-551h-278zM380 796h110q65 0 96.5 28.5t34.5 82.5q3 55 4 111.5t0 113.5t-4 112q-3 54 -34.5 82t-96.5 28h-110v-558zM408 -268v188
h188v-188h-188z" />
    <glyph glyph-name="uni1E5B" unicode="&#x1e5b;" horiz-adv-x="718" 
d="M96 0v1200h285v-145h51q13 86 60 119t122 33q25 0 50 -1.5t40 -3.5v-212h-87q-103 0 -161.5 -29.5t-74.5 -101.5v-859h-285zM143 -268v188h188v-188h-188z" />
    <glyph glyph-name="uni1E5E" unicode="&#x1e5e;" horiz-adv-x="979" 
d="M102 0v1600h388q213 0 307.5 -86t101.5 -284q2 -62 3 -109.5t0 -94t-3 -105.5q-4 -125 -42 -204t-119 -120l184 -597h-295l-151 551h-96v-551h-278zM380 796h110q65 0 96.5 28.5t34.5 82.5q3 55 4 111.5t0 113.5t-4 112q-3 54 -34.5 82t-96.5 28h-110v-558zM164 -83h677
v-126h-677v126z" />
    <glyph glyph-name="uni1E5F" unicode="&#x1e5f;" horiz-adv-x="718" 
d="M96 0v1200h285v-145h51q13 86 60 119t122 33q25 0 50 -1.5t40 -3.5v-212h-87q-103 0 -161.5 -29.5t-74.5 -101.5v-859h-285zM-101 -83h677v-126h-677v126z" />
    <glyph glyph-name="uni1E60" unicode="&#x1e60;" horiz-adv-x="979" 
d="M491 -19q-215 0 -311 88.5t-105 294.5q-1 36 -1 76t2 80.5t6 76.5h263q-4 -76 -5 -148.5t5 -135.5q4 -51 41 -77.5t105 -26.5q64 0 99 26.5t41 77.5q4 36 5 72t-0.5 72t-4.5 71q-4 48 -35 84t-82 47l-172 40q-101 23 -160 72t-85 123.5t-29 174.5q-1 47 -1 87t1 82
q6 136 50.5 220t135.5 122.5t237 38.5q212 0 308 -88t104 -293q2 -46 0.5 -110t-4.5 -121h-267q3 72 4 142t-2 140q-2 50 -38.5 76.5t-105.5 26.5q-65 0 -101.5 -26.5t-41.5 -76.5q-6 -55 -6 -110t6 -110q4 -47 27 -81.5t74 -46.5l153 -32q110 -24 176.5 -74.5t98 -127
t35.5 -179.5q1 -26 1 -54t-1 -56t-2 -54q-9 -206 -105.5 -294.5t-312.5 -88.5zM393 1680v188h188v-188h-188z" />
    <glyph glyph-name="uni1E61" unicode="&#x1e61;" horiz-adv-x="892" 
d="M441 -19q-196 0 -279.5 79.5t-92.5 261.5q-1 38 0 72t2 49h249q-3 -58 -2 -92t2 -60q2 -56 32 -79t89 -23q69 0 100.5 24t32.5 80v32.5v12v30.5q-1 36 -17.5 59.5t-59.5 34.5l-143 37q-94 25 -159 64t-99 98t-34 147v33.5v30.5q1 186 89 266.5t303 80.5
q195 0 278.5 -77.5t91.5 -256.5q2 -22 1 -65.5t-3 -58.5h-258q1 22 1.5 52t0 58.5t-1.5 44.5q-3 51 -26.5 73t-83.5 22q-64 0 -89 -22t-27 -73q0 -6 -1 -23t-1 -60q1 -46 18 -73t68 -39l127 -29q143 -33 214.5 -103.5t71.5 -206.5v-33.5v-33.5q-1 -179 -91.5 -256.5
t-302.5 -77.5zM350 1280v188h188v-188h-188z" />
    <glyph glyph-name="uni1E62" unicode="&#x1e62;" horiz-adv-x="979" 
d="M491 -19q-215 0 -311 88.5t-105 294.5q-1 36 -1 76t2 80.5t6 76.5h263q-4 -76 -5 -148.5t5 -135.5q4 -51 41 -77.5t105 -26.5q64 0 99 26.5t41 77.5q4 36 5 72t-0.5 72t-4.5 71q-4 48 -35 84t-82 47l-172 40q-101 23 -160 72t-85 123.5t-29 174.5q-1 47 -1 87t1 82
q6 136 50.5 220t135.5 122.5t237 38.5q212 0 308 -88t104 -293q2 -46 0.5 -110t-4.5 -121h-267q3 72 4 142t-2 140q-2 50 -38.5 76.5t-105.5 26.5q-65 0 -101.5 -26.5t-41.5 -76.5q-6 -55 -6 -110t6 -110q4 -47 27 -81.5t74 -46.5l153 -32q110 -24 176.5 -74.5t98 -127
t35.5 -179.5q1 -26 1 -54t-1 -56t-2 -54q-9 -206 -105.5 -294.5t-312.5 -88.5zM393 -268v188h188v-188h-188z" />
    <glyph glyph-name="uni1E63" unicode="&#x1e63;" horiz-adv-x="892" 
d="M441 -19q-196 0 -279.5 79.5t-92.5 261.5q-1 38 0 72t2 49h249q-3 -58 -2 -92t2 -60q2 -56 32 -79t89 -23q69 0 100.5 24t32.5 80v32.5v12v30.5q-1 36 -17.5 59.5t-59.5 34.5l-143 37q-94 25 -159 64t-99 98t-34 147v33.5v30.5q1 186 89 266.5t303 80.5
q195 0 278.5 -77.5t91.5 -256.5q2 -22 1 -65.5t-3 -58.5h-258q1 22 1.5 52t0 58.5t-1.5 44.5q-3 51 -26.5 73t-83.5 22q-64 0 -89 -22t-27 -73q0 -6 -1 -23t-1 -60q1 -46 18 -73t68 -39l127 -29q143 -33 214.5 -103.5t71.5 -206.5v-33.5v-33.5q-1 -179 -91.5 -256.5
t-302.5 -77.5zM350 -268v188h188v-188h-188z" />
    <glyph glyph-name="uni1E64" unicode="&#x1e64;" horiz-adv-x="979" 
d="M491 -19q-215 0 -311 88.5t-105 294.5q-1 36 -1 76t2 80.5t6 76.5h263q-4 -76 -5 -148.5t5 -135.5q4 -51 41 -77.5t105 -26.5q64 0 99 26.5t41 77.5q4 36 5 72t-0.5 72t-4.5 71q-4 48 -35 84t-82 47l-172 40q-101 23 -160 72t-85 123.5t-29 174.5q-1 47 -1 87t1 82
q6 136 50.5 220t135.5 122.5t237 38.5q212 0 308 -88t104 -293q2 -46 0.5 -110t-4.5 -121h-267q3 72 4 142t-2 140q-2 50 -38.5 76.5t-105.5 26.5q-65 0 -101.5 -26.5t-41.5 -76.5q-6 -55 -6 -110t6 -110q4 -47 27 -81.5t74 -46.5l153 -32q110 -24 176.5 -74.5t98 -127
t35.5 -179.5q1 -26 1 -54t-1 -56t-2 -54q-9 -206 -105.5 -294.5t-312.5 -88.5zM403 1680l190 271h197l-199 -271h-188zM393 2033v188h188v-188h-188z" />
    <glyph glyph-name="uni1E65" unicode="&#x1e65;" horiz-adv-x="892" 
d="M441 -19q-196 0 -279.5 79.5t-92.5 261.5q-1 38 0 72t2 49h249q-3 -58 -2 -92t2 -60q2 -56 32 -79t89 -23q69 0 100.5 24t32.5 80v32.5v12v30.5q-1 36 -17.5 59.5t-59.5 34.5l-143 37q-94 25 -159 64t-99 98t-34 147v33.5v30.5q1 186 89 266.5t303 80.5
q195 0 278.5 -77.5t91.5 -256.5q2 -22 1 -65.5t-3 -58.5h-258q1 22 1.5 52t0 58.5t-1.5 44.5q-3 51 -26.5 73t-83.5 22q-64 0 -89 -22t-27 -73q0 -6 -1 -23t-1 -60q1 -46 18 -73t68 -39l127 -29q143 -33 214.5 -103.5t71.5 -206.5v-33.5v-33.5q-1 -179 -91.5 -256.5
t-302.5 -77.5zM360 1280l190 271h197l-199 -271h-188zM350 1633v188h188v-188h-188z" />
    <glyph glyph-name="uni1E66" unicode="&#x1e66;" horiz-adv-x="979" 
d="M491 -19q-215 0 -311 88.5t-105 294.5q-1 36 -1 76t2 80.5t6 76.5h263q-4 -76 -5 -148.5t5 -135.5q4 -51 41 -77.5t105 -26.5q64 0 99 26.5t41 77.5q4 36 5 72t-0.5 72t-4.5 71q-4 48 -35 84t-82 47l-172 40q-101 23 -160 72t-85 123.5t-29 174.5q-1 47 -1 87t1 82
q6 136 50.5 220t135.5 122.5t237 38.5q212 0 308 -88t104 -293q2 -46 0.5 -110t-4.5 -121h-267q3 72 4 142t-2 140q-2 50 -38.5 76.5t-105.5 26.5q-65 0 -101.5 -26.5t-41.5 -76.5q-6 -55 -6 -110t6 -110q4 -47 27 -81.5t74 -46.5l153 -32q110 -24 176.5 -74.5t98 -127
t35.5 -179.5q1 -26 1 -54t-1 -56t-2 -54q-9 -206 -105.5 -294.5t-312.5 -88.5zM412 1680l-175 271h168l82 -140l82 140h167l-174 -271h-150zM393 2033v188h188v-188h-188z" />
    <glyph glyph-name="uni1E67" unicode="&#x1e67;" horiz-adv-x="892" 
d="M441 -19q-196 0 -279.5 79.5t-92.5 261.5q-1 38 0 72t2 49h249q-3 -58 -2 -92t2 -60q2 -56 32 -79t89 -23q69 0 100.5 24t32.5 80v32.5v12v30.5q-1 36 -17.5 59.5t-59.5 34.5l-143 37q-94 25 -159 64t-99 98t-34 147v33.5v30.5q1 186 89 266.5t303 80.5
q195 0 278.5 -77.5t91.5 -256.5q2 -22 1 -65.5t-3 -58.5h-258q1 22 1.5 52t0 58.5t-1.5 44.5q-3 51 -26.5 73t-83.5 22q-64 0 -89 -22t-27 -73q0 -6 -1 -23t-1 -60q1 -46 18 -73t68 -39l127 -29q143 -33 214.5 -103.5t71.5 -206.5v-33.5v-33.5q-1 -179 -91.5 -256.5
t-302.5 -77.5zM369 1280l-175 271h168l82 -140l82 140h167l-174 -271h-150zM350 1633v188h188v-188h-188z" />
    <glyph glyph-name="uni1E68" unicode="&#x1e68;" horiz-adv-x="979" 
d="M491 -19q-215 0 -311 88.5t-105 294.5q-1 36 -1 76t2 80.5t6 76.5h263q-4 -76 -5 -148.5t5 -135.5q4 -51 41 -77.5t105 -26.5q64 0 99 26.5t41 77.5q4 36 5 72t-0.5 72t-4.5 71q-4 48 -35 84t-82 47l-172 40q-101 23 -160 72t-85 123.5t-29 174.5q-1 47 -1 87t1 82
q6 136 50.5 220t135.5 122.5t237 38.5q212 0 308 -88t104 -293q2 -46 0.5 -110t-4.5 -121h-267q3 72 4 142t-2 140q-2 50 -38.5 76.5t-105.5 26.5q-65 0 -101.5 -26.5t-41.5 -76.5q-6 -55 -6 -110t6 -110q4 -47 27 -81.5t74 -46.5l153 -32q110 -24 176.5 -74.5t98 -127
t35.5 -179.5q1 -26 1 -54t-1 -56t-2 -54q-9 -206 -105.5 -294.5t-312.5 -88.5zM393 -268v188h188v-188h-188zM393 1680v188h188v-188h-188z" />
    <glyph glyph-name="uni1E69" unicode="&#x1e69;" horiz-adv-x="892" 
d="M441 -19q-196 0 -279.5 79.5t-92.5 261.5q-1 38 0 72t2 49h249q-3 -58 -2 -92t2 -60q2 -56 32 -79t89 -23q69 0 100.5 24t32.5 80v32.5v12v30.5q-1 36 -17.5 59.5t-59.5 34.5l-143 37q-94 25 -159 64t-99 98t-34 147v33.5v30.5q1 186 89 266.5t303 80.5
q195 0 278.5 -77.5t91.5 -256.5q2 -22 1 -65.5t-3 -58.5h-258q1 22 1.5 52t0 58.5t-1.5 44.5q-3 51 -26.5 73t-83.5 22q-64 0 -89 -22t-27 -73q0 -6 -1 -23t-1 -60q1 -46 18 -73t68 -39l127 -29q143 -33 214.5 -103.5t71.5 -206.5v-33.5v-33.5q-1 -179 -91.5 -256.5
t-302.5 -77.5zM350 -268v188h188v-188h-188zM350 1280v188h188v-188h-188z" />
    <glyph glyph-name="uni1E6C" unicode="&#x1e6c;" horiz-adv-x="841" 
d="M281 0v1354h-270v246h819v-246h-270v-1354h-279zM326 -268v188h188v-188h-188z" />
    <glyph glyph-name="uni1E6D" unicode="&#x1e6d;" horiz-adv-x="707" 
d="M572 -19q-228 0 -325.5 79t-98.5 266l-2 664h-116v210h122v340h283v-340h222v-210h-229l3 -697q0 -63 31.5 -84t110.5 -21q27 0 51.5 1t54.5 1v-199q-24 -4 -49.5 -7t-57.5 -3zM334 -268v188h188v-188h-188z" />
    <glyph glyph-name="uni1E6E" unicode="&#x1e6e;" horiz-adv-x="841" 
d="M281 0v1354h-270v246h819v-246h-270v-1354h-279zM82 -83h677v-126h-677v126z" />
    <glyph glyph-name="uni1E6F" unicode="&#x1e6f;" horiz-adv-x="707" 
d="M572 -19q-228 0 -325.5 79t-98.5 266l-2 664h-116v210h122v340h283v-340h222v-210h-229l3 -697q0 -63 31.5 -84t110.5 -21q27 0 51.5 1t54.5 1v-199q-24 -4 -49.5 -7t-57.5 -3zM89 -83h677v-126h-677v126z" />
    <glyph glyph-name="uni1E78" unicode="&#x1e78;" horiz-adv-x="1014" 
d="M508 -19q-223 0 -320 88.5t-100 293.5q-4 308 -4 619t4 618h278q-3 -205 -3.5 -420t0.5 -430.5t3 -419.5q0 -59 36 -90t106 -31t105 31t35 90q2 204 3.5 419.5t1 430.5t-4.5 420h278q5 -307 5 -618t-5 -619q-2 -205 -99 -293.5t-319 -88.5zM666 1893h110
q-6 -112 -47 -161.5t-116 -49.5q-47 0 -74.5 14t-46.5 32.5t-37.5 33t-46.5 14.5q-31 0 -42.5 -20.5t-16.5 -60.5h-110q9 116 49.5 169t119.5 53q47 0 74 -14t44.5 -32.5t36 -32t48.5 -13.5t42 17.5t13 50.5zM423 1999l190 271h197l-199 -271h-188z" />
    <glyph glyph-name="uni1E79" unicode="&#x1e79;" horiz-adv-x="1022" 
d="M367 -19q-128 0 -203.5 75.5t-75.5 249.5v894h280l4 -918q0 -50 24.5 -74t77.5 -24q50 0 100 24.5t69 66.5v925h284v-1200h-284v127h-38q-47 -79 -104 -112.5t-134 -33.5zM663 1493h110q-6 -112 -47 -161.5t-116 -49.5q-47 0 -74.5 14t-46.5 32.5t-37.5 33t-46.5 14.5
q-31 0 -42.5 -20.5t-16.5 -60.5h-110q9 116 49.5 169t119.5 53q47 0 74 -14t44.5 -32.5t36 -32t48.5 -13.5t42 17.5t13 50.5zM419 1599l190 271h197l-199 -271h-188z" />
    <glyph glyph-name="uni1E7A" unicode="&#x1e7a;" horiz-adv-x="1014" 
d="M508 -19q-223 0 -320 88.5t-100 293.5q-4 308 -4 619t4 618h278q-3 -205 -3.5 -420t0.5 -430.5t3 -419.5q0 -59 36 -90t106 -31t105 31t35 90q2 204 3.5 419.5t1 430.5t-4.5 420h278q5 -307 5 -618t-5 -619q-2 -205 -99 -293.5t-319 -88.5zM169 1815h677v-126h-677v126z
M561 1927v188h188v-188h-188zM266 1927v188h188v-188h-188z" />
    <glyph glyph-name="uni1E7B" unicode="&#x1e7b;" horiz-adv-x="1022" 
d="M367 -19q-128 0 -203.5 75.5t-75.5 249.5v894h280l4 -918q0 -50 24.5 -74t77.5 -24q50 0 100 24.5t69 66.5v925h284v-1200h-284v127h-38q-47 -79 -104 -112.5t-134 -33.5zM166 1415h677v-126h-677v126zM558 1527v188h188v-188h-188zM263 1527v188h188v-188h-188z" />
    <glyph glyph-name="Wgrave" unicode="&#x1e80;" horiz-adv-x="1657" 
d="M190 0l-146 1600h280l50 -712l32 -642h89l3 642l130 702h401l130 -702l3 -642h89l32 642l50 712h280l-146 -1600h-496l-71 458l-28 896h-87l-29 -896l-70 -458h-496zM655 1680l-181 271h198l172 -271h-189z" />
    <glyph glyph-name="wgrave" unicode="&#x1e81;" horiz-adv-x="1516" 
d="M182 0l-158 1200h284l50 -603l21 -392h79l10 392l57 602h467l54 -602l13 -392h74l21 392l54 603h283l-161 -1200h-476l-37 467l-17 527h-85l-18 -527l-34 -467h-481zM638 1280l-181 271h198l172 -271h-189z" />
    <glyph glyph-name="Wacute" unicode="&#x1e82;" horiz-adv-x="1657" 
d="M190 0l-146 1600h280l50 -712l32 -642h89l3 642l130 702h401l130 -702l3 -642h89l32 642l50 712h280l-146 -1600h-496l-71 458l-28 896h-87l-29 -896l-70 -458h-496zM692 1680l190 271h197l-199 -271h-188z" />
    <glyph glyph-name="wacute" unicode="&#x1e83;" horiz-adv-x="1516" 
d="M182 0l-158 1200h284l50 -603l21 -392h79l10 392l57 602h467l54 -602l13 -392h74l21 392l54 603h283l-161 -1200h-476l-37 467l-17 527h-85l-18 -527l-34 -467h-481zM676 1280l190 271h197l-199 -271h-188z" />
    <glyph glyph-name="Wdieresis" unicode="&#x1e84;" horiz-adv-x="1657" 
d="M190 0l-146 1600h280l50 -712l32 -642h89l3 642l130 702h401l130 -702l3 -642h89l32 642l50 712h280l-146 -1600h-496l-71 458l-28 896h-87l-29 -896l-70 -458h-496zM831 1710v188h188v-188h-188zM536 1710v188h188v-188h-188z" />
    <glyph glyph-name="wdieresis" unicode="&#x1e85;" horiz-adv-x="1516" 
d="M182 0l-158 1200h284l50 -603l21 -392h79l10 392l57 602h467l54 -602l13 -392h74l21 392l54 603h283l-161 -1200h-476l-37 467l-17 527h-85l-18 -527l-34 -467h-481zM814 1310v188h188v-188h-188zM519 1310v188h188v-188h-188z" />
    <glyph glyph-name="uni1E8E" unicode="&#x1e8e;" horiz-adv-x="897" 
d="M309 0v508h-32l-259 1092h284l84 -398l34 -468h57l34 468l84 398h284l-260 -1092h-31v-508h-279zM354 1680v188h188v-188h-188z" />
    <glyph glyph-name="uni1E8F" unicode="&#x1e8f;" horiz-adv-x="910" 
d="M225 -420q-35 0 -75.5 4t-78.5 10v206q29 -1 76 -2.5t78 -1.5q85 0 118.5 23.5t42.5 79.5l16 101h-150l-219 1200h288l59 -547l49 -448h72l38 448l55 547h288l-213 -1279q-19 -111 -61.5 -187t-132.5 -115t-250 -39zM361 1280v188h188v-188h-188z" />
    <glyph glyph-name="uni1E92" unicode="&#x1e92;" horiz-adv-x="830" 
d="M31 0v232l469 1122h-445v246h744v-238l-486 -1116h455v-246h-737zM297 -268v188h188v-188h-188z" />
    <glyph glyph-name="uni1E93" unicode="&#x1e93;" horiz-adv-x="810" 
d="M42 0v177l429 818h-421v205h723v-182l-436 -813h431v-205h-726zM312 -268v188h188v-188h-188z" />
    <glyph glyph-name="uni1E97" unicode="&#x1e97;" horiz-adv-x="707" 
d="M572 -19q-228 0 -325.5 79t-98.5 266l-2 664h-116v210h122v340h283v-340h222v-210h-229l3 -697q0 -63 31.5 -84t110.5 -21q27 0 51.5 1t54.5 1v-199q-24 -4 -49.5 -7t-57.5 -3zM372 1652v188h188v-188h-188zM77 1652v188h188v-188h-188z" />
    <glyph glyph-name="uni1E9E" unicode="&#x1e9e;" horiz-adv-x="1042" 
d="M80 0v1221q0 204 96 291.5t306 87.5h454v-210l-207 -480q126 -42 176.5 -131.5t56.5 -227.5q1 -27 1 -54.5t-1 -55.5l-2 -56q-8 -206 -98.5 -295.5t-302.5 -89.5h-106v227h106q61 0 89 27.5t34 79.5q5 56 5 109t-5 108q-4 48 -25.5 87t-74.5 39h-121l-4 219l188 477h-163
q-59 0 -91 -26t-32 -75v-1272h-279z" />
    <glyph glyph-name="uni1EA0" unicode="&#x1ea0;" horiz-adv-x="985" 
d="M38 0l214 1600h481l215 -1600h-286l-35 352h-269l-34 -352h-286zM384 598h217l-35 351l-27 405h-92l-27 -405zM397 -268v188h188v-188h-188z" />
    <glyph glyph-name="uni1EA1" unicode="&#x1ea1;" horiz-adv-x="966" 
d="M339 -15q-136 0 -202 63.5t-79 217.5q-1 18 -1 45t1 43q6 81 37.5 138.5t98 101t177.5 82.5q57 21 110 35.5t120 30.5v162q0 55 -29 81t-92 26q-55 0 -82.5 -22t-30.5 -72q-1 -14 -1.5 -52t0 -75t1.5 -45h-270q-1 16 -2 58t0 82q5 116 43 190t122 109t229 35
q147 0 231 -38.5t119 -122t35 -217.5l-2 -841h-277v127h-42q-35 -73 -81 -107.5t-133 -34.5zM453 184q46 0 84.5 23.5t59.5 63.5l2 289q-40 -9 -81 -21t-78 -28q-63 -26 -81 -67.5t-21 -89.5q-1 -25 -1 -36t1 -32q5 -49 34 -75.5t81 -26.5zM370 -268v188h188v-188h-188z" />
    <glyph glyph-name="uni1EA2" unicode="&#x1ea2;" horiz-adv-x="985" 
d="M38 0l214 1600h481l215 -1600h-286l-35 352h-269l-34 -352h-286zM384 598h217l-35 351l-27 405h-92l-27 -405zM497 1657l10 56q10 61 -11 82t-92 21h-64v131h64q142 0 204.5 -54.5t40.5 -179.5l-9 -56h-143z" />
    <glyph glyph-name="uni1EA3" unicode="&#x1ea3;" horiz-adv-x="966" 
d="M339 -15q-136 0 -202 63.5t-79 217.5q-1 18 -1 45t1 43q6 81 37.5 138.5t98 101t177.5 82.5q57 21 110 35.5t120 30.5v162q0 55 -29 81t-92 26q-55 0 -82.5 -22t-30.5 -72q-1 -14 -1.5 -52t0 -75t1.5 -45h-270q-1 16 -2 58t0 82q5 116 43 190t122 109t229 35
q147 0 231 -38.5t119 -122t35 -217.5l-2 -841h-277v127h-42q-35 -73 -81 -107.5t-133 -34.5zM453 184q46 0 84.5 23.5t59.5 63.5l2 289q-40 -9 -81 -21t-78 -28q-63 -26 -81 -67.5t-21 -89.5q-1 -25 -1 -36t1 -32q5 -49 34 -75.5t81 -26.5zM473 1282l10 56q10 61 -11 82
t-92 21h-64v131h64q142 0 204.5 -54.5t40.5 -179.5l-9 -56h-143z" />
    <glyph glyph-name="uni1EA4" unicode="&#x1ea4;" horiz-adv-x="985" 
d="M38 0l214 1600h481l215 -1600h-286l-35 352h-269l-34 -352h-286zM384 598h217l-35 351l-27 405h-92l-27 -405zM230 1682l175 271h168l175 -271h-186l-73 126l-74 -126h-185zM712 1897l190 271h197l-199 -271h-188z" />
    <glyph glyph-name="uni1EA5" unicode="&#x1ea5;" horiz-adv-x="966" 
d="M339 -15q-136 0 -202 63.5t-79 217.5q-1 18 -1 45t1 43q6 81 37.5 138.5t98 101t177.5 82.5q57 21 110 35.5t120 30.5v162q0 55 -29 81t-92 26q-55 0 -82.5 -22t-30.5 -72q-1 -14 -1.5 -52t0 -75t1.5 -45h-270q-1 16 -2 58t0 82q5 116 43 190t122 109t229 35
q147 0 231 -38.5t119 -122t35 -217.5l-2 -841h-277v127h-42q-35 -73 -81 -107.5t-133 -34.5zM453 184q46 0 84.5 23.5t59.5 63.5l2 289q-40 -9 -81 -21t-78 -28q-63 -26 -81 -67.5t-21 -89.5q-1 -25 -1 -36t1 -32q5 -49 34 -75.5t81 -26.5zM225 1282l175 271h168l175 -271
h-186l-73 126l-74 -126h-185zM706 1497l190 271h197l-199 -271h-188z" />
    <glyph glyph-name="uni1EA6" unicode="&#x1ea6;" horiz-adv-x="985" 
d="M38 0l214 1600h481l215 -1600h-286l-35 352h-269l-34 -352h-286zM384 598h217l-35 351l-27 405h-92l-27 -405zM230 1682l175 271h168l175 -271h-186l-73 126l-74 -126h-185zM755 1897l-181 271h198l172 -271h-189z" />
    <glyph glyph-name="uni1EA7" unicode="&#x1ea7;" horiz-adv-x="966" 
d="M339 -15q-136 0 -202 63.5t-79 217.5q-1 18 -1 45t1 43q6 81 37.5 138.5t98 101t177.5 82.5q57 21 110 35.5t120 30.5v162q0 55 -29 81t-92 26q-55 0 -82.5 -22t-30.5 -72q-1 -14 -1.5 -52t0 -75t1.5 -45h-270q-1 16 -2 58t0 82q5 116 43 190t122 109t229 35
q147 0 231 -38.5t119 -122t35 -217.5l-2 -841h-277v127h-42q-35 -73 -81 -107.5t-133 -34.5zM453 184q46 0 84.5 23.5t59.5 63.5l2 289q-40 -9 -81 -21t-78 -28q-63 -26 -81 -67.5t-21 -89.5q-1 -25 -1 -36t1 -32q5 -49 34 -75.5t81 -26.5zM225 1282l175 271h168l175 -271
h-186l-73 126l-74 -126h-185zM749 1497l-181 271h198l172 -271h-189z" />
    <glyph glyph-name="uni1EA8" unicode="&#x1ea8;" horiz-adv-x="985" 
d="M38 0l214 1600h481l215 -1600h-286l-35 352h-269l-34 -352h-286zM384 598h217l-35 351l-27 405h-92l-27 -405zM230 1682l175 271h168l175 -271h-186l-73 126l-74 -126h-185zM699 1889l10 56q10 61 -11 82t-92 21h-64v131h64q142 0 204.5 -54.5t40.5 -179.5l-9 -56h-143z
" />
    <glyph glyph-name="uni1EA9" unicode="&#x1ea9;" horiz-adv-x="966" 
d="M339 -15q-136 0 -202 63.5t-79 217.5q-1 18 -1 45t1 43q6 81 37.5 138.5t98 101t177.5 82.5q57 21 110 35.5t120 30.5v162q0 55 -29 81t-92 26q-55 0 -82.5 -22t-30.5 -72q-1 -14 -1.5 -52t0 -75t1.5 -45h-270q-1 16 -2 58t0 82q5 116 43 190t122 109t229 35
q147 0 231 -38.5t119 -122t35 -217.5l-2 -841h-277v127h-42q-35 -73 -81 -107.5t-133 -34.5zM453 184q46 0 84.5 23.5t59.5 63.5l2 289q-40 -9 -81 -21t-78 -28q-63 -26 -81 -67.5t-21 -89.5q-1 -25 -1 -36t1 -32q5 -49 34 -75.5t81 -26.5zM225 1282l175 271h168l175 -271
h-186l-73 126l-74 -126h-185zM693 1489l10 56q10 61 -11 82t-92 21h-64v131h64q142 0 204.5 -54.5t40.5 -179.5l-9 -56h-143z" />
    <glyph glyph-name="uni1EAA" unicode="&#x1eaa;" horiz-adv-x="985" 
d="M38 0l214 1600h481l215 -1600h-286l-35 352h-269l-34 -352h-286zM384 598h217l-35 351l-27 405h-92l-27 -405zM230 1682l175 271h168l175 -271h-186l-73 126l-74 -126h-185zM649 2213h110q-6 -112 -47 -161.5t-116 -49.5q-47 0 -74.5 14t-46.5 32.5t-37.5 33t-46.5 14.5
q-31 0 -42.5 -20.5t-16.5 -60.5h-110q9 116 49.5 169t119.5 53q47 0 74 -14t44.5 -32.5t36 -32t48.5 -13.5t42 17.5t13 50.5z" />
    <glyph glyph-name="uni1EAB" unicode="&#x1eab;" horiz-adv-x="966" 
d="M339 -15q-136 0 -202 63.5t-79 217.5q-1 18 -1 45t1 43q6 81 37.5 138.5t98 101t177.5 82.5q57 21 110 35.5t120 30.5v162q0 55 -29 81t-92 26q-55 0 -82.5 -22t-30.5 -72q-1 -14 -1.5 -52t0 -75t1.5 -45h-270q-1 16 -2 58t0 82q5 116 43 190t122 109t229 35
q147 0 231 -38.5t119 -122t35 -217.5l-2 -841h-277v127h-42q-35 -73 -81 -107.5t-133 -34.5zM453 184q46 0 84.5 23.5t59.5 63.5l2 289q-40 -9 -81 -21t-78 -28q-63 -26 -81 -67.5t-21 -89.5q-1 -25 -1 -36t1 -32q5 -49 34 -75.5t81 -26.5zM225 1282l175 271h168l175 -271
h-186l-73 126l-74 -126h-185zM643 1813h110q-6 -112 -47 -161.5t-116 -49.5q-47 0 -74.5 14t-46.5 32.5t-37.5 33t-46.5 14.5q-31 0 -42.5 -20.5t-16.5 -60.5h-110q9 116 49.5 169t119.5 53q47 0 74 -14t44.5 -32.5t36 -32t48.5 -13.5t42 17.5t13 50.5z" />
    <glyph glyph-name="uni1EAC" unicode="&#x1eac;" horiz-adv-x="985" 
d="M38 0l214 1600h481l215 -1600h-286l-35 352h-269l-34 -352h-286zM384 598h217l-35 351l-27 405h-92l-27 -405zM397 -268v188h188v-188h-188zM230 1682l175 271h168l175 -271h-186l-73 126l-74 -126h-185z" />
    <glyph glyph-name="uni1EAD" unicode="&#x1ead;" horiz-adv-x="966" 
d="M339 -15q-136 0 -202 63.5t-79 217.5q-1 18 -1 45t1 43q6 81 37.5 138.5t98 101t177.5 82.5q57 21 110 35.5t120 30.5v162q0 55 -29 81t-92 26q-55 0 -82.5 -22t-30.5 -72q-1 -14 -1.5 -52t0 -75t1.5 -45h-270q-1 16 -2 58t0 82q5 116 43 190t122 109t229 35
q147 0 231 -38.5t119 -122t35 -217.5l-2 -841h-277v127h-42q-35 -73 -81 -107.5t-133 -34.5zM453 184q46 0 84.5 23.5t59.5 63.5l2 289q-40 -9 -81 -21t-78 -28q-63 -26 -81 -67.5t-21 -89.5q-1 -25 -1 -36t1 -32q5 -49 34 -75.5t81 -26.5zM370 -268v188h188v-188h-188z
M225 1282l175 271h168l175 -271h-186l-73 126l-74 -126h-185z" />
    <glyph glyph-name="uni1EAE" unicode="&#x1eae;" horiz-adv-x="985" 
d="M38 0l214 1600h481l215 -1600h-286l-35 352h-269l-34 -352h-286zM384 598h217l-35 351l-27 405h-92l-27 -405zM493 1670q-156 0 -229 67t-81 221h172q0 -77 32.5 -112t105.5 -35t105.5 34.5t32.5 112.5h172q-10 -154 -82.5 -221t-227.5 -67zM407 2029l190 271h197
l-199 -271h-188z" />
    <glyph glyph-name="uni1EAF" unicode="&#x1eaf;" horiz-adv-x="966" 
d="M339 -15q-136 0 -202 63.5t-79 217.5q-1 18 -1 45t1 43q6 81 37.5 138.5t98 101t177.5 82.5q57 21 110 35.5t120 30.5v162q0 55 -29 81t-92 26q-55 0 -82.5 -22t-30.5 -72q-1 -14 -1.5 -52t0 -75t1.5 -45h-270q-1 16 -2 58t0 82q5 116 43 190t122 109t229 35
q147 0 231 -38.5t119 -122t35 -217.5l-2 -841h-277v127h-42q-35 -73 -81 -107.5t-133 -34.5zM453 184q46 0 84.5 23.5t59.5 63.5l2 289q-40 -9 -81 -21t-78 -28q-63 -26 -81 -67.5t-21 -89.5q-1 -25 -1 -36t1 -32q5 -49 34 -75.5t81 -26.5zM487 1270q-156 0 -229 67t-81 221
h172q0 -77 32.5 -112t105.5 -35t105.5 34.5t32.5 112.5h172q-10 -154 -82.5 -221t-227.5 -67zM402 1629l190 271h197l-199 -271h-188z" />
    <glyph glyph-name="uni1EB0" unicode="&#x1eb0;" horiz-adv-x="985" 
d="M38 0l214 1600h481l215 -1600h-286l-35 352h-269l-34 -352h-286zM384 598h217l-35 351l-27 405h-92l-27 -405zM493 1670q-156 0 -229 67t-81 221h172q0 -77 32.5 -112t105.5 -35t105.5 34.5t32.5 112.5h172q-10 -154 -82.5 -221t-227.5 -67zM370 2029l-181 271h198
l172 -271h-189z" />
    <glyph glyph-name="uni1EB1" unicode="&#x1eb1;" horiz-adv-x="966" 
d="M339 -15q-136 0 -202 63.5t-79 217.5q-1 18 -1 45t1 43q6 81 37.5 138.5t98 101t177.5 82.5q57 21 110 35.5t120 30.5v162q0 55 -29 81t-92 26q-55 0 -82.5 -22t-30.5 -72q-1 -14 -1.5 -52t0 -75t1.5 -45h-270q-1 16 -2 58t0 82q5 116 43 190t122 109t229 35
q147 0 231 -38.5t119 -122t35 -217.5l-2 -841h-277v127h-42q-35 -73 -81 -107.5t-133 -34.5zM453 184q46 0 84.5 23.5t59.5 63.5l2 289q-40 -9 -81 -21t-78 -28q-63 -26 -81 -67.5t-21 -89.5q-1 -25 -1 -36t1 -32q5 -49 34 -75.5t81 -26.5zM487 1270q-156 0 -229 67t-81 221
h172q0 -77 32.5 -112t105.5 -35t105.5 34.5t32.5 112.5h172q-10 -154 -82.5 -221t-227.5 -67zM364 1629l-181 271h198l172 -271h-189z" />
    <glyph glyph-name="uni1EB2" unicode="&#x1eb2;" horiz-adv-x="985" 
d="M38 0l214 1600h481l215 -1600h-286l-35 352h-269l-34 -352h-286zM384 598h217l-35 351l-27 405h-92l-27 -405zM493 1670q-156 0 -229 67t-81 221h172q0 -77 32.5 -112t105.5 -35t105.5 34.5t32.5 112.5h172q-10 -154 -82.5 -221t-227.5 -67zM420 1974l10 56q10 61 -11 82
t-92 21h-64v131h64q142 0 204.5 -54.5t40.5 -179.5l-9 -56h-143z" />
    <glyph glyph-name="uni1EB3" unicode="&#x1eb3;" horiz-adv-x="966" 
d="M339 -15q-136 0 -202 63.5t-79 217.5q-1 18 -1 45t1 43q6 81 37.5 138.5t98 101t177.5 82.5q57 21 110 35.5t120 30.5v162q0 55 -29 81t-92 26q-55 0 -82.5 -22t-30.5 -72q-1 -14 -1.5 -52t0 -75t1.5 -45h-270q-1 16 -2 58t0 82q5 116 43 190t122 109t229 35
q147 0 231 -38.5t119 -122t35 -217.5l-2 -841h-277v127h-42q-35 -73 -81 -107.5t-133 -34.5zM453 184q46 0 84.5 23.5t59.5 63.5l2 289q-40 -9 -81 -21t-78 -28q-63 -26 -81 -67.5t-21 -89.5q-1 -25 -1 -36t1 -32q5 -49 34 -75.5t81 -26.5zM487 1270q-156 0 -229 67t-81 221
h172q0 -77 32.5 -112t105.5 -35t105.5 34.5t32.5 112.5h172q-10 -154 -82.5 -221t-227.5 -67zM414 1574l10 56q10 61 -11 82t-92 21h-64v131h64q142 0 204.5 -54.5t40.5 -179.5l-9 -56h-143z" />
    <glyph glyph-name="uni1EB4" unicode="&#x1eb4;" horiz-adv-x="985" 
d="M38 0l214 1600h481l215 -1600h-286l-35 352h-269l-34 -352h-286zM384 598h217l-35 351l-27 405h-92l-27 -405zM493 1670q-156 0 -229 67t-81 221h172q0 -77 32.5 -112t105.5 -35t105.5 34.5t32.5 112.5h172q-10 -154 -82.5 -221t-227.5 -67zM651 2242h110
q-6 -112 -47 -161.5t-116 -49.5q-47 0 -74.5 14t-46.5 32.5t-37.5 33t-46.5 14.5q-31 0 -42.5 -20.5t-16.5 -60.5h-110q9 116 49.5 169t119.5 53q47 0 74 -14t44.5 -32.5t36 -32t48.5 -13.5t42 17.5t13 50.5z" />
    <glyph glyph-name="uni1EB5" unicode="&#x1eb5;" horiz-adv-x="966" 
d="M339 -15q-136 0 -202 63.5t-79 217.5q-1 18 -1 45t1 43q6 81 37.5 138.5t98 101t177.5 82.5q57 21 110 35.5t120 30.5v162q0 55 -29 81t-92 26q-55 0 -82.5 -22t-30.5 -72q-1 -14 -1.5 -52t0 -75t1.5 -45h-270q-1 16 -2 58t0 82q5 116 43 190t122 109t229 35
q147 0 231 -38.5t119 -122t35 -217.5l-2 -841h-277v127h-42q-35 -73 -81 -107.5t-133 -34.5zM453 184q46 0 84.5 23.5t59.5 63.5l2 289q-40 -9 -81 -21t-78 -28q-63 -26 -81 -67.5t-21 -89.5q-1 -25 -1 -36t1 -32q5 -49 34 -75.5t81 -26.5zM487 1270q-156 0 -229 67t-81 221
h172q0 -77 32.5 -112t105.5 -35t105.5 34.5t32.5 112.5h172q-10 -154 -82.5 -221t-227.5 -67zM645 1842h110q-6 -112 -47 -161.5t-116 -49.5q-47 0 -74.5 14t-46.5 32.5t-37.5 33t-46.5 14.5q-31 0 -42.5 -20.5t-16.5 -60.5h-110q9 116 49.5 169t119.5 53q47 0 74 -14
t44.5 -32.5t36 -32t48.5 -13.5t42 17.5t13 50.5z" />
    <glyph glyph-name="uni1EB6" unicode="&#x1eb6;" horiz-adv-x="985" 
d="M38 0l214 1600h481l215 -1600h-286l-35 352h-269l-34 -352h-286zM384 598h217l-35 351l-27 405h-92l-27 -405zM397 -268v188h188v-188h-188zM493 1670q-156 0 -229 67t-81 221h172q0 -77 32.5 -112t105.5 -35t105.5 34.5t32.5 112.5h172q-10 -154 -82.5 -221t-227.5 -67z
" />
    <glyph glyph-name="uni1EB7" unicode="&#x1eb7;" horiz-adv-x="966" 
d="M339 -15q-136 0 -202 63.5t-79 217.5q-1 18 -1 45t1 43q6 81 37.5 138.5t98 101t177.5 82.5q57 21 110 35.5t120 30.5v162q0 55 -29 81t-92 26q-55 0 -82.5 -22t-30.5 -72q-1 -14 -1.5 -52t0 -75t1.5 -45h-270q-1 16 -2 58t0 82q5 116 43 190t122 109t229 35
q147 0 231 -38.5t119 -122t35 -217.5l-2 -841h-277v127h-42q-35 -73 -81 -107.5t-133 -34.5zM453 184q46 0 84.5 23.5t59.5 63.5l2 289q-40 -9 -81 -21t-78 -28q-63 -26 -81 -67.5t-21 -89.5q-1 -25 -1 -36t1 -32q5 -49 34 -75.5t81 -26.5zM370 -268v188h188v-188h-188z
M487 1270q-156 0 -229 67t-81 221h172q0 -77 32.5 -112t105.5 -35t105.5 34.5t32.5 112.5h172q-10 -154 -82.5 -221t-227.5 -67z" />
    <glyph glyph-name="uni1EB8" unicode="&#x1eb8;" horiz-adv-x="856" 
d="M102 0v1600h699v-246h-421v-419h401v-245h-401v-444h421v-246h-699zM381 -268v188h188v-188h-188z" />
    <glyph glyph-name="uni1EB9" unicode="&#x1eb9;" horiz-adv-x="935" 
d="M482 -19q-212 0 -302.5 81t-101.5 260q-3 51 -4 127t-1 159t1 154.5t4 111.5q12 186 105.5 265.5t294.5 79.5q202 0 293 -78t100 -256q1 -24 1.5 -80.5t0 -124.5t-3.5 -127h-514q0 -62 1.5 -126.5t4.5 -135.5q2 -54 29.5 -77.5t90.5 -23.5q60 0 84 23.5t27 79.5
q2 30 2.5 69.5t-2.5 96.5h277q2 -15 3 -59.5t-1 -77.5q-9 -182 -99.5 -261.5t-289.5 -79.5zM357 746h237q1 38 1 73t-1 61t-2 36q-3 51 -28.5 73t-85.5 22q-64 0 -89.5 -22.5t-27.5 -72.5q-1 -44 -2.5 -86.5t-1.5 -83.5zM379 -268v188h188v-188h-188z" />
    <glyph glyph-name="uni1EBA" unicode="&#x1eba;" horiz-adv-x="856" 
d="M102 0v1600h699v-246h-421v-419h401v-245h-401v-444h421v-246h-699zM435 1657l10 56q10 61 -11 82t-92 21h-64v131h64q142 0 204.5 -54.5t40.5 -179.5l-9 -56h-143z" />
    <glyph glyph-name="uni1EBB" unicode="&#x1ebb;" horiz-adv-x="935" 
d="M482 -19q-212 0 -302.5 81t-101.5 260q-3 51 -4 127t-1 159t1 154.5t4 111.5q12 186 105.5 265.5t294.5 79.5q202 0 293 -78t100 -256q1 -24 1.5 -80.5t0 -124.5t-3.5 -127h-514q0 -62 1.5 -126.5t4.5 -135.5q2 -54 29.5 -77.5t90.5 -23.5q60 0 84 23.5t27 79.5
q2 30 2.5 69.5t-2.5 96.5h277q2 -15 3 -59.5t-1 -77.5q-9 -182 -99.5 -261.5t-289.5 -79.5zM357 746h237q1 38 1 73t-1 61t-2 36q-3 51 -28.5 73t-85.5 22q-64 0 -89.5 -22.5t-27.5 -72.5q-1 -44 -2.5 -86.5t-1.5 -83.5zM484 1274l10 56q10 61 -11 82t-92 21h-64v131h64
q142 0 204.5 -54.5t40.5 -179.5l-9 -56h-143z" />
    <glyph glyph-name="uni1EBC" unicode="&#x1ebc;" horiz-adv-x="856" 
d="M102 0v1600h699v-246h-421v-419h401v-245h-401v-444h421v-246h-699zM610 1892h110q-6 -112 -47 -161.5t-116 -49.5q-47 0 -74.5 14t-46.5 32.5t-37.5 33t-46.5 14.5q-31 0 -42.5 -20.5t-16.5 -60.5h-110q9 116 49.5 169t119.5 53q47 0 74 -14t44.5 -32.5t36 -32
t48.5 -13.5t42 17.5t13 50.5z" />
    </font>
</defs>
</svg>
